<svg width="604" height="522" viewBox="0 0 604 522" fill="none" xmlns="http://www.w3.org/2000/svg">
<path d="M284.42 94.6256C229.188 88.5323 225.184 65.835 175.061 73.5652C139.168 79.0981 105.978 105.076 89.6609 122.711C68.6894 145.376 58.9004 167.546 49.1437 187.631C33.6268 219.565 24.0658 253.066 24.276 290.727C24.5794 344.536 55.9131 383.83 65.1389 395.395C152.83 505.353 392.451 509.251 509.274 401.307C548.597 364.976 562.529 326.579 565.325 318.497C596.496 228.514 547.018 145.898 538.153 131.089C517.123 95.9647 499.508 66.559 466.948 58.287C403.639 42.2049 361.404 103.116 284.42 94.6256Z" fill="#FF8D67"/>
<path d="M283.896 94.4242L495.814 155.609L397.906 467.351L194.024 403.456L283.896 94.4242Z" fill="#616363"/>
<path d="M280.613 88.6817L492.524 149.872L394.616 461.608L190.734 397.713L280.613 88.6817Z" fill="#D5D5D5"/>
<path d="M265.304 195.488C269.814 194.213 272.192 194.621 273.524 195.217C275.474 196.092 275.164 197.355 278.137 199.266C278.767 199.669 281.431 201.382 284.339 201.817C288.119 202.383 288.631 200.222 291.999 200.999C293.978 201.455 295.614 202.585 296.475 203.175C298.581 204.624 298.418 205.294 299.853 206.457C302.483 208.583 307.522 209.869 310.852 210.187C315.587 210.638 316.13 209.034 319.072 209.916C322.322 210.884 322.213 213.011 326.64 215.099C330.619 216.976 335.005 217.292 336.621 217.406C341.919 217.785 342.878 216.406 345.51 217.354C348.487 218.425 347.871 220.411 351.918 222.709C356.243 225.17 361.669 225.591 362.071 225.618C366.987 225.96 367.71 224.167 370.399 225.018C374.111 226.188 374.576 230.183 378.036 231.139C380.593 231.842 381.533 229.988 384.53 230.491C386.874 230.882 389.831 232.607 393.613 236.708" stroke="#101500" stroke-width="1.21514" stroke-linecap="round" stroke-linejoin="round"/>
<path d="M362.751 200.808C365.963 199.12 367.55 199.268 368.408 199.71C369.653 200.355 369.314 201.607 371.149 203.153C371.538 203.479 373.188 204.862 375.134 204.988C377.664 205.148 378.234 203.007 380.459 203.418C381.762 203.66 382.772 204.578 383.298 205.064C384.589 206.25 384.414 206.918 385.274 207.895C386.854 209.68 390.173 210.413 392.418 210.385C395.61 210.338 396.147 208.734 398.074 209.286C400.203 209.898 399.907 211.96 402.727 213.53C405.257 214.936 408.229 214.797 409.323 214.745C412.907 214.571 413.708 213.139 415.413 213.788C417.34 214.518 416.718 216.504 419.251 218.315C421.957 220.249 425.636 220.107 425.901 220.096C429.227 219.928 429.909 218.123 431.66 218.668C434.081 219.42 433.995 223.238 436.264 223.808C437.941 224.226 438.77 222.338 440.775 222.521C442.338 222.665 444.187 224.028 446.362 227.611" stroke="#101500" stroke-width="1.21514" stroke-linecap="round" stroke-linejoin="round"/>
<path d="M369.45 177.002C368.874 176.871 368.379 176.683 368.29 176.406C367.988 175.51 371.885 173.546 373.876 174.555C375.369 175.315 374.548 177.106 376.696 178.997C377.116 179.364 378.527 180.61 380.116 180.617C382.673 180.627 382.93 177.423 385.308 177.487C386.684 177.525 388.279 178.643 388.759 179.749C389.335 181.084 388.069 181.909 388.863 183.097C389.292 183.741 390.166 184.235 390.99 184.359C392.479 184.584 392.952 183.167 394.771 182.427C397.333 181.382 401.427 182.153 402.448 183.68C403.353 185.031 401.228 186.114 402.117 187.874C402.969 189.554 405.972 190.911 408.129 190.551C411.065 190.063 411.493 186.565 412.826 186.854C413.951 187.101 413.483 189.55 415.807 191.798C416.955 192.908 419.018 194.148 421.063 194.141C424.482 194.133 425.498 190.645 427.26 191.112C429.417 191.691 428.847 197.17 431.13 197.902C433.553 198.679 436.589 193.252 438.692 194.038C440.47 194.698 439.234 198.916 441.504 200.076C443.838 201.263 446.771 197.632 450.265 198.476C452.151 198.93 454.403 200.738 456.391 206.271" stroke="#101500" stroke-width="1.21514" stroke-linecap="round" stroke-linejoin="round"/>
<path d="M254.774 224.233C253.585 223.915 252.552 223.546 252.292 223.178C251.446 221.97 258.72 220.551 262.979 222.351C266.167 223.704 265.005 225.735 269.806 228.681C270.742 229.257 273.908 231.196 277.086 231.633C282.203 232.329 281.855 228.375 286.637 229.097C289.401 229.511 292.894 231.349 294.151 232.861C295.668 234.693 293.347 235.385 295.257 237.095C296.285 238.016 298.175 238.876 299.846 239.25C302.891 239.932 303.454 238.275 306.892 237.835C311.738 237.215 320.14 239.278 322.588 241.464C324.76 243.401 320.798 244.196 323.056 246.643C325.212 248.984 331.58 251.491 335.797 251.617C341.535 251.794 341.461 247.511 344.205 248.236C346.529 248.851 346.248 251.8 351.493 255.245C354.085 256.949 358.551 259.061 362.642 259.598C369.485 260.504 370.583 256.396 374.235 257.465C378.707 258.768 379.044 265.501 383.802 267.029C388.86 268.656 393.475 262.657 397.894 264.205C401.629 265.513 400.292 270.477 405.146 272.535C410.133 274.655 415.032 270.882 422.24 272.878C426.136 273.957 431.119 276.831 436.585 284.31" stroke="#101500" stroke-width="1.21514" stroke-linecap="round" stroke-linejoin="round"/>
<path d="M415.777 335.876C416.973 336.182 418.008 336.539 418.269 336.908C419.128 338.105 411.873 339.607 407.595 337.853C404.389 336.534 405.53 334.488 400.696 331.599C399.758 331.035 396.569 329.129 393.379 328.734C388.253 328.092 388.645 332.045 383.855 331.378C381.086 330.994 377.575 329.202 376.298 327.699C374.76 325.883 377.072 325.165 375.141 323.477C374.1 322.566 372.206 321.731 370.526 321.373C367.47 320.727 366.932 322.387 363.5 322.865C358.659 323.541 350.237 321.573 347.766 319.415C345.573 317.499 349.522 316.665 347.243 314.24C345.064 311.927 338.668 309.489 334.445 309.406C328.703 309.295 328.827 313.573 326.079 312.878C323.75 312.293 323.996 309.333 318.711 305.949C316.103 304.281 311.61 302.219 307.514 301.725C300.66 300.897 299.609 305.018 295.945 303.99C291.46 302.734 291.049 296.01 286.27 294.533C281.192 292.965 276.642 299.016 272.211 297.516C268.464 296.249 269.742 291.27 264.868 289.265C259.854 287.203 255.004 291.025 247.771 289.118C243.861 288.085 238.845 285.268 233.291 277.85" stroke="#101500" stroke-width="1.21514" stroke-linecap="round" stroke-linejoin="round"/>
<path d="M244.975 253.991C251.37 250.739 254.535 251.051 256.245 251.928C258.738 253.206 258.081 255.653 261.775 258.698C262.56 259.345 265.865 262.07 269.76 262.34C274.81 262.695 275.917 258.52 280.364 259.353C282.976 259.844 284.999 261.662 286.059 262.618C288.658 264.954 288.312 266.261 290.05 268.179C293.235 271.698 299.873 273.177 304.351 273.149C310.727 273.111 311.771 269.983 315.621 271.087C319.877 272.31 319.319 276.336 324.974 279.448C330.049 282.237 335.975 282.005 338.154 281.918C345.308 281.635 346.885 278.848 350.297 280.14C354.158 281.596 352.942 285.46 358.026 289.042C363.462 292.871 370.792 292.644 371.329 292.623C377.967 292.346 379.294 288.823 382.808 289.915C387.649 291.425 387.532 298.884 392.076 300.026C395.429 300.874 397.06 297.198 401.056 297.58C404.174 297.879 407.895 300.572 412.282 307.609" stroke="#101500" stroke-width="1.21514" stroke-linecap="round" stroke-linejoin="round"/>
<path d="M367.929 142.027C371.818 139.987 373.705 140.178 374.714 140.721C376.184 141.515 375.743 143.048 377.903 144.94C378.36 145.344 380.29 147.044 382.617 147.205C385.631 147.416 386.373 144.809 389.024 145.324C390.577 145.626 391.759 146.759 392.379 147.357C393.895 148.814 393.662 149.628 394.669 150.828C396.515 153.019 400.459 153.94 403.145 153.914C406.961 153.883 407.646 151.925 409.93 152.608C412.454 153.369 412.051 155.883 415.382 157.82C418.374 159.556 421.926 159.402 423.228 159.349C427.514 159.165 428.512 157.424 430.534 158.223C432.816 159.127 432.023 161.542 435.005 163.773C438.193 166.157 442.584 166.006 442.912 165.992C446.89 165.813 447.752 163.61 449.833 164.289C452.707 165.222 452.506 169.882 455.203 170.594C457.196 171.119 458.238 168.819 460.628 169.057C462.492 169.238 464.67 170.919 467.171 175.309" stroke="#101500" stroke-width="1.82271" stroke-linecap="round" stroke-linejoin="round"/>
<path d="M154.712 111.739L379.949 108.207C377.787 217.547 375.63 326.894 373.467 436.234L150.766 427.074C152.083 321.964 153.395 216.848 154.712 111.739Z" fill="#707474"/>
<path d="M154.829 102.424L375.401 102.582L367.581 429.239C293.457 425.804 219.339 422.371 145.215 418.936C148.418 313.434 151.627 207.926 154.829 102.424Z" fill="#DFEDED"/>
<path d="M175.176 115.404C196.508 115.378 217.841 115.352 239.173 115.326C238.468 141.764 237.761 168.208 237.056 194.647C215.462 194.875 193.862 195.096 172.268 195.324C173.242 168.684 174.209 142.044 175.182 115.405L175.176 115.404Z" fill="#B6BFBF"/>
<path d="M167.637 218.616C171.558 216.053 173.949 215.727 175.398 215.897C177.517 216.145 177.601 217.446 181.009 218.376C181.73 218.572 184.783 219.408 187.69 218.953C191.464 218.358 191.308 216.144 194.752 215.882C196.776 215.724 198.674 216.309 199.674 216.618C202.113 217.372 202.162 218.061 203.881 218.737C207.024 219.978 212.22 219.698 215.492 219.006C220.144 218.021 220.185 216.327 223.253 216.288C226.648 216.24 227.175 218.304 232.026 218.968C236.384 219.568 240.666 218.554 242.235 218.184C247.4 216.959 247.906 215.356 250.701 215.468C253.862 215.596 253.865 217.677 258.42 218.66C263.277 219.712 268.589 218.49 268.977 218.398C273.769 217.256 273.922 215.326 276.745 215.331C280.635 215.336 282.276 219.008 285.866 218.884C288.518 218.791 288.855 216.74 291.867 216.325C294.221 215.999 297.563 216.754 302.399 219.539" stroke="#00404A" stroke-width="1.21514" stroke-linecap="round" stroke-linejoin="round"/>
<path d="M264.506 183.485C267.066 180.912 268.624 180.577 269.57 180.743C270.947 180.983 271 182.286 273.219 183.205C273.688 183.401 275.675 184.226 277.571 183.761C280.033 183.156 279.938 180.945 282.181 180.671C283.499 180.51 284.736 181.086 285.385 181.394C286.973 182.137 287.003 182.828 288.121 183.504C290.167 184.736 293.554 184.442 295.686 183.74C298.72 182.739 298.753 181.049 300.749 180.998C302.961 180.94 303.298 183.002 306.458 183.65C309.296 184.235 312.088 183.211 313.111 182.836C316.48 181.6 316.815 179.99 318.635 180.097C320.692 180.22 320.689 182.294 323.649 183.271C326.815 184.307 330.275 183.072 330.528 182.979C333.652 181.825 333.762 179.895 335.599 179.888C338.134 179.883 339.192 183.551 341.532 183.414C343.259 183.311 343.485 181.263 345.449 180.838C346.982 180.505 349.158 181.253 352.302 184.023" stroke="#00404A" stroke-width="1.21514" stroke-linecap="round" stroke-linejoin="round"/>
<path d="M263.775 158.762C263.186 158.807 262.662 158.775 262.487 158.541C261.934 157.775 265.064 154.737 267.264 155.101C268.919 155.375 268.669 157.334 271.283 158.494C271.791 158.72 273.517 159.482 275.033 159.012C277.473 158.257 276.762 155.123 279.053 154.469C280.377 154.094 282.232 154.685 283.022 155.596C283.976 156.696 283.01 157.865 284.122 158.761C284.721 159.246 285.71 159.455 286.527 159.326C288.015 159.091 288.045 157.598 289.555 156.354C291.685 154.59 295.824 154.103 297.256 155.253C298.521 156.275 296.822 157.941 298.197 159.353C299.513 160.701 302.784 161.096 304.735 160.111C307.389 158.767 306.756 155.3 308.111 155.181C309.261 155.082 309.544 157.559 312.436 159.011C313.862 159.724 316.205 160.293 318.153 159.676C321.413 158.645 321.337 155.013 323.165 154.937C325.394 154.845 326.499 160.245 328.891 160.256C331.436 160.271 332.706 154.186 334.948 154.305C336.842 154.404 336.925 158.798 339.442 159.22C342.026 159.652 343.74 155.312 347.321 155.076C349.261 154.949 351.946 155.997 355.498 160.685" stroke="#00404A" stroke-width="1.21514" stroke-linecap="round" stroke-linejoin="round"/>
<path d="M166.198 249.196C164.969 249.247 163.87 249.206 163.511 248.928C162.344 248.031 168.853 244.494 173.46 244.945C176.91 245.28 176.404 247.571 181.873 248.943C182.933 249.211 186.535 250.114 189.705 249.58C194.801 248.714 193.283 245.041 198.06 244.301C200.821 243.874 204.704 244.577 206.355 245.649C208.348 246.947 206.344 248.299 208.678 249.357C209.934 249.93 211.991 250.181 213.699 250.039C216.811 249.779 216.853 248.03 220 246.584C224.441 244.544 233.075 244.001 236.061 245.349C238.713 246.551 235.17 248.486 238.056 250.152C240.812 251.737 247.641 252.224 251.707 251.088C257.238 249.536 255.886 245.475 258.716 245.346C261.113 245.236 261.729 248.135 267.768 249.853C270.747 250.697 275.639 251.379 279.711 250.673C286.516 249.487 286.332 245.244 290.136 245.169C294.789 245.075 297.13 251.4 302.127 251.435C307.437 251.471 310.05 244.369 314.73 244.524C318.682 244.654 318.892 249.791 324.146 250.304C329.539 250.831 333.081 245.771 340.562 245.517C344.602 245.377 350.223 246.63 357.671 252.135" stroke="#00404A" stroke-width="1.21514" stroke-linecap="round" stroke-linejoin="round"/>
<path d="M353.229 307.541C354.459 307.478 355.554 307.506 355.92 307.78C357.094 308.666 350.625 312.269 346.017 311.873C342.561 311.574 343.043 309.28 337.559 307.973C336.491 307.716 332.882 306.856 329.719 307.428C324.634 308.35 326.192 312.004 321.425 312.801C318.665 313.259 314.776 312.604 313.116 311.55C311.107 310.274 313.096 308.901 310.747 307.865C309.482 307.31 307.422 307.076 305.717 307.243C302.611 307.541 302.588 309.287 299.454 310.771C295.036 312.864 286.413 313.507 283.404 312.186C280.737 311.012 284.26 309.037 281.357 307.406C278.585 305.849 271.751 305.441 267.702 306.629C262.193 308.24 263.589 312.288 260.756 312.447C258.361 312.583 257.707 309.691 251.652 308.044C248.663 307.229 243.762 306.607 239.701 307.363C232.91 308.625 233.143 312.869 229.345 312.988C224.691 313.131 222.284 306.839 217.285 306.86C211.972 306.885 209.441 314.016 204.766 313.918C200.813 313.83 200.542 308.697 195.285 308.245C189.883 307.778 186.397 312.877 178.928 313.219C174.888 313.401 169.258 312.214 161.741 306.798" stroke="#00404A" stroke-width="1.21514" stroke-linecap="round" stroke-linejoin="round"/>
<path d="M165.749 280.526C170.875 275.509 173.993 274.863 175.886 275.19C178.647 275.665 178.751 278.196 183.183 279.991C184.123 280.371 188.097 281.983 191.89 281.078C196.815 279.905 196.623 275.588 201.113 275.052C203.748 274.736 206.226 275.864 207.522 276.461C210.702 277.911 210.76 279.263 212.991 280.571C217.084 282.974 223.856 282.403 228.128 281.033C234.201 279.085 234.261 275.792 238.264 275.696C242.687 275.587 243.364 279.6 249.688 280.873C255.367 282.018 260.95 280.019 263.006 279.288C269.747 276.878 270.417 273.746 274.057 273.954C278.173 274.187 278.17 278.238 284.097 280.136C290.429 282.16 297.354 279.752 297.864 279.573C304.116 277.32 304.329 273.563 308.006 273.556C313.078 273.546 315.202 280.7 319.874 280.43C323.328 280.231 323.783 276.239 327.713 275.408C330.782 274.762 335.134 276.22 341.425 281.619" stroke="#00404A" stroke-width="1.21514" stroke-linecap="round" stroke-linejoin="round"/>
<path d="M251.856 125.851C254.953 122.741 256.818 122.358 257.94 122.58C259.582 122.901 259.618 124.49 262.245 125.651C262.805 125.897 265.154 126.94 267.421 126.405C270.363 125.709 270.291 122.998 272.967 122.694C274.54 122.514 276.006 123.246 276.774 123.626C278.653 124.564 278.679 125.409 279.995 126.248C282.414 127.791 286.454 127.48 289.009 126.655C292.644 125.482 292.708 123.41 295.093 123.383C297.731 123.35 298.1 125.876 301.852 126.72C305.222 127.485 308.569 126.271 309.799 125.827C313.838 124.368 314.26 122.403 316.428 122.566C318.882 122.746 318.843 125.293 322.355 126.527C326.106 127.849 330.255 126.388 330.56 126.278C334.303 124.911 334.463 122.553 336.656 122.578C339.677 122.612 340.879 127.117 343.666 126.989C345.724 126.89 346.033 124.388 348.381 123.895C350.215 123.513 352.793 124.46 356.491 127.905" stroke="#00404A" stroke-width="1.82271" stroke-linecap="round" stroke-linejoin="round"/>
<path d="M197.6 164.629C194.12 165.567 189.123 166.865 186.029 171.492C185.819 171.805 182.034 177.616 183.895 182.111C188.163 192.42 220.924 192.95 225.517 182.781C227.144 179.178 225.218 174.281 223.381 171.593C220.484 167.354 216.029 166.06 212.345 164.955C205.001 162.749 198.914 164.278 197.599 164.635L197.6 164.629Z" fill="#2A56BA"/>
<path d="M200.007 119.709C197.798 120 190.332 122.423 185.736 130.425C180.718 139.152 180.949 151.854 186.535 159.393C187.188 160.272 192.161 166.821 197.812 165.979C200.846 165.53 201.475 163.331 204.773 163.097C209.126 162.788 210.507 166.435 214.211 166.886C219.622 167.544 224.964 160.754 227.294 156.14C232.399 146.038 230.136 132.316 223.918 125.459C220.823 122.045 216.599 120.164 214.047 119.731C212.333 119.436 211.111 119.231 209.761 119.915C208.681 120.466 208.196 121.244 207.116 121.236C206.135 121.231 205.656 120.591 204.765 120.083C203.324 119.263 201.966 119.443 200.014 119.704L200.007 119.709Z" fill="#9B531E"/>
<path d="M189.976 143.461C189.773 143.936 189.427 145.021 189.199 146.278C188.382 150.819 189.711 154.526 190.18 155.839C190.614 157.049 193.567 165.273 201.586 167.434C208.909 169.404 214.691 164.775 215.459 164.124C221.416 159.128 224.264 149.569 221.378 143.625C215.989 132.524 192.811 136.698 189.977 143.455L189.976 143.461Z" fill="#4F2508"/>
<path d="M199.845 157.095C198.978 158.646 200.415 159.932 199.268 162.536C198.595 164.066 197.613 164.711 197.816 165.82C197.898 166.274 198.199 166.919 199.614 167.753C203.98 170.349 208.89 168.849 210.174 168.456C212.183 167.841 212.599 167.293 212.736 166.852C213.073 165.784 211.615 165.299 211.21 163.025C210.841 160.971 211.301 159.257 211.528 159.001C211.558 158.969 211.723 158.802 211.767 158.532C211.782 158.43 211.775 158.349 211.771 158.293C211.73 157.895 211.591 157.408 211.563 157.343C210.309 154.401 201.605 153.934 199.84 157.088L199.845 157.095Z" fill="#E0B2A6"/>
<path d="M212.024 157.98C212.237 159.195 208.767 161.779 205.284 161.716C202.731 161.669 199.698 160.222 199.405 158.536C199.383 158.391 199.351 158.227 199.416 158.034C199.826 156.754 203.187 156.812 205.39 156.864C209.175 156.958 211.856 157.01 212.03 157.981L212.024 157.98Z" fill="#876564"/>
<path d="M205.543 160.069C213.293 160.238 219.746 152.524 219.957 142.839C220.169 133.154 214.058 125.165 206.309 124.996C198.559 124.827 192.106 132.541 191.894 142.226C191.683 151.911 197.794 159.9 205.543 160.069Z" fill="#E0B2A6"/>
<path d="M192.179 145.791C194.084 145.832 195.669 144.008 195.719 141.717C195.769 139.426 194.265 137.535 192.36 137.493C190.454 137.452 188.869 139.275 188.819 141.567C188.769 143.858 190.273 145.749 192.179 145.791Z" fill="#E0B2A6"/>
<path d="M219.526 146.392C221.431 146.434 223.016 144.61 223.066 142.319C223.116 140.027 221.612 138.136 219.707 138.095C217.801 138.053 216.216 139.877 216.166 142.168C216.116 144.459 217.62 146.351 219.526 146.392Z" fill="#E0B2A6"/>
<path d="M215.348 125.429C210.416 121.979 203.007 121.047 197.519 124.563C192.762 127.614 189.527 133.957 191.305 136.753C192.047 137.915 193.852 138.253 197.444 139.019C197.444 139.019 197.45 139.02 197.456 139.021L199.671 135.036L200.155 139.499C203.144 139.928 205.313 139.913 205.75 139.908C207.053 139.892 208.437 139.869 209.82 139.816L209.619 137.148L210.95 139.769C215.823 139.509 220.452 138.73 221.545 135.989C222.859 132.685 218.729 127.791 215.349 125.423L215.348 125.429Z" fill="#9B531E"/>
</svg>
