<svg width="192" height="78" viewBox="0 0 192 78" fill="none" xmlns="http://www.w3.org/2000/svg">
<g clip-path="url(#clip0_2104_127)">
<path d="M56.7077 39.1937L53.5888 36.2828C55.0027 36.2551 56.1948 35.9224 57.1651 35.2848C58.1354 34.6195 58.8562 33.7739 59.3275 32.7482C59.8265 31.7224 60.076 30.6135 60.076 29.4214C60.076 27.9798 59.7017 26.7739 58.9532 25.8036C58.2047 24.8056 57.1789 24.0571 55.876 23.5581C54.573 23.059 53.0898 22.8095 51.4265 22.8095C50.2067 22.8095 48.9869 22.9759 47.767 23.3086C46.575 23.6412 45.4799 24.1541 44.4819 24.8472C43.5116 25.5402 42.7215 26.3996 42.1116 27.4254C41.5294 28.4511 41.2383 29.6709 41.2383 31.0848C41.2383 31.861 41.3076 32.5957 41.4462 33.2888C41.6126 33.9541 41.9175 34.7442 42.3611 35.6591C41.973 36.0472 41.5017 36.3383 40.9472 36.5323C40.4205 36.6987 39.9354 36.7818 39.4918 36.7818C38.3829 36.7818 37.4403 36.5323 36.6641 36.0333C35.8878 35.5066 35.2918 34.8274 34.8759 33.9957C34.4878 33.1363 34.2938 32.2214 34.2938 31.2511C34.2938 29.4769 34.7928 27.9105 35.7908 26.5521C36.7888 25.166 38.1334 24.0155 39.8245 23.1006C41.5433 22.1581 43.4562 21.4511 45.5631 20.9798C47.6977 20.4808 49.9017 20.2313 52.175 20.2313C55.7789 20.2313 58.7314 20.6333 61.0324 21.4373C63.3334 22.2412 65.0245 23.3224 66.1057 24.6808C67.1869 26.0392 67.7275 27.5779 67.7275 29.2967C67.7275 30.5997 67.4087 31.8195 66.771 32.9561C66.1611 34.065 65.3156 35.0492 64.2344 35.9086C63.1809 36.768 62.0027 37.4888 60.6997 38.071C59.3968 38.6254 58.0661 38.9997 56.7077 39.1937ZM44.3571 49.6314C43.47 49.6314 42.6522 49.465 41.9037 49.1324C41.1552 48.8274 40.7116 48.3838 40.573 47.8017C40.9888 47.5799 41.3076 47.3027 41.5294 46.97C41.7789 46.6096 41.973 46.1383 42.1116 45.5561C42.2779 44.9739 42.4443 44.2254 42.6106 43.3106L44.9809 31.168C45.2581 29.7818 45.6047 28.6313 46.0205 27.7165C46.4641 26.8016 47.074 26.1224 47.8502 25.6789C48.6542 25.2076 49.7354 24.9719 51.0938 24.9719C52.0918 24.9719 52.9512 25.1521 53.672 25.5125C54.4205 25.8729 54.8364 26.3581 54.9195 26.968C54.5037 27.162 54.171 27.4393 53.9215 27.7996C53.672 28.16 53.4779 28.6175 53.3393 29.1719C53.2284 29.7264 53.076 30.4472 52.8819 31.3343L50.47 43.6017C50.2205 44.9323 49.8601 46.0551 49.3888 46.97C48.9453 47.8571 48.3215 48.5225 47.5175 48.966C46.7413 49.4096 45.6878 49.6314 44.3571 49.6314ZM63.9017 54.3304C62.4601 54.3304 61.2958 54.0254 60.4087 53.4155C59.5215 52.8334 58.773 51.9601 58.1631 50.7957C57.8582 50.1581 57.5671 49.4234 57.2898 48.5918C57.0126 47.7601 56.7354 46.8591 56.4582 45.8888C56.2086 44.9185 55.9314 43.9066 55.6265 42.8531C55.3492 41.7719 55.0443 40.6769 54.7116 39.568C54.3789 38.4591 54.0047 37.364 53.5888 36.2828L59.577 38.2373C60.1869 38.8195 60.769 39.6096 61.3235 40.6076C61.9057 41.5779 62.474 42.6175 63.0285 43.7264C63.5829 44.8353 64.1651 45.9026 64.775 46.9284C65.3849 47.9541 66.0225 48.8135 66.6879 49.5066C67.3809 50.2274 68.1295 50.6571 68.9334 50.7957C68.6562 51.8769 68.074 52.7363 67.1869 53.3739C66.2998 54.0116 65.2047 54.3304 63.9017 54.3304ZM73.0243 49.673C71.8876 49.673 70.9451 49.4096 70.1965 48.8829C69.448 48.3838 69.0738 47.663 69.0738 46.7205C69.0738 45.6947 69.4757 44.9185 70.2797 44.3918C71.0837 43.865 72.054 43.6017 73.1906 43.6017C74.3272 43.6017 75.2421 43.865 75.9352 44.3918C76.656 44.9185 77.0164 45.667 77.0164 46.6373C77.0164 47.6076 76.6282 48.3561 75.852 48.8829C75.1035 49.4096 74.1609 49.673 73.0243 49.673ZM96.944 49.1324L101.518 24.7224C101.768 23.4472 102.114 22.3798 102.558 21.5204C103.029 20.6333 103.667 19.968 104.471 19.5244C105.302 19.0531 106.342 18.8175 107.59 18.8175C108.504 18.8175 109.294 18.9838 109.96 19.3165C110.653 19.6214 111.055 20.0927 111.166 20.7303C110.639 21.2848 110.223 21.9501 109.918 22.7264C109.613 23.5026 109.35 24.459 109.128 25.5957C108.906 26.7046 108.629 28.0769 108.296 29.7125L104.72 48.3423L96.944 49.1324ZM84.7182 50.8789C83.8034 50.8789 82.9855 50.6987 82.2647 50.3383C81.5439 50.0056 81.142 49.5482 81.0588 48.966C81.4746 48.772 81.7934 48.5086 82.0152 48.1759C82.2647 47.8155 82.4588 47.3581 82.5974 46.8036C82.7637 46.2215 82.9301 45.4729 83.0964 44.5581L86.0073 29.3383C86.3123 27.6749 86.8806 26.3026 87.7123 25.2214C88.5717 24.1402 89.639 23.2947 90.9143 22.6848C92.2172 22.0472 93.6865 21.6036 95.3222 21.3541L90.7479 44.6828C90.4984 46.0413 90.1519 47.1779 89.7083 48.0928C89.2647 49.0076 88.6548 49.7007 87.8786 50.172C87.1024 50.6432 86.0489 50.8789 84.7182 50.8789ZM80.8093 33.4967C79.6449 33.4967 78.6608 33.2472 77.8568 32.7482C77.0806 32.2214 76.4845 31.5422 76.0687 30.7105C75.6806 29.8511 75.4865 28.9224 75.4865 27.9244C75.4865 26.5937 75.8192 25.2907 76.4845 24.0155C77.1499 22.7125 78.134 21.6452 79.437 20.8135C80.7677 19.9541 82.4172 19.5244 84.3855 19.5244C85.439 19.5244 86.3954 19.6214 87.2548 19.8155C88.1143 19.9818 88.9459 20.1897 89.7499 20.4392C90.5539 20.661 91.3994 20.8689 92.2865 21.063C93.1737 21.2293 94.1855 21.3264 95.3222 21.3541L89.7083 23.4333L89.5836 23.1006C89.1677 22.8788 88.738 22.6986 88.2944 22.56C87.8509 22.4214 87.3519 22.3521 86.7974 22.3521C85.4667 22.3521 84.3994 22.8373 83.5954 23.8076C82.7915 24.7501 82.3895 26.0531 82.3895 27.7165C82.3895 28.5204 82.4727 29.2828 82.639 30.0036C82.8053 30.7244 83.0964 31.5284 83.5123 32.4155C83.1519 32.8036 82.7083 33.0808 82.1816 33.2472C81.6826 33.4135 81.2251 33.4967 80.8093 33.4967ZM90.9143 36.9066L91.5796 33.663H101.477L100.894 36.9066H90.9143ZM117.044 49.6314C115.796 49.6314 114.715 49.4234 113.8 49.0076C112.885 48.5918 112.178 47.968 111.679 47.1363C111.18 46.2769 110.931 45.2096 110.931 43.9343C110.931 43.2413 111.028 42.2571 111.222 40.9818C111.416 39.7066 111.707 37.9878 112.095 35.8254C112.483 33.663 112.996 30.9185 113.634 27.5917L120.994 26.8432C120.44 29.8096 119.955 32.3046 119.539 34.3284C119.151 36.3244 118.832 37.9739 118.582 39.2769C118.361 40.5521 118.194 41.6056 118.083 42.4373C117.972 43.2413 117.917 43.9205 117.917 44.4749C117.917 44.8908 117.959 45.2927 118.042 45.6809C118.125 46.069 118.291 46.3878 118.541 46.6373C118.818 46.8868 119.206 47.0116 119.705 47.0116C120.509 47.0116 121.174 46.7205 121.701 46.1383C122.228 45.5561 122.644 44.8353 122.949 43.9759C123.281 43.0888 123.517 42.2432 123.656 41.4393L126.151 27.5917L133.553 26.8432L130.475 43.0611C130.448 43.3106 130.406 43.6017 130.351 43.9343C130.295 44.267 130.268 44.5581 130.268 44.8076C130.268 45.3066 130.406 45.764 130.683 46.1799C130.961 46.568 131.404 46.7759 132.014 46.8036C131.848 47.469 131.501 48.0096 130.974 48.4254C130.475 48.8413 129.893 49.1462 129.228 49.3403C128.59 49.5343 127.953 49.6314 127.315 49.6314C126.428 49.6314 125.624 49.4373 124.903 49.0492C124.182 48.6611 123.711 48.065 123.489 47.2611C122.796 48.0373 121.854 48.6195 120.662 49.0076C119.497 49.4234 118.291 49.6314 117.044 49.6314ZM143.65 49.6314C142.763 49.6314 141.737 49.5482 140.573 49.3819C139.436 49.2155 138.327 48.9383 137.246 48.5502C136.193 48.1621 135.292 47.6492 134.543 47.0116L137.995 29.4214L144.274 29.8789C144.967 28.964 145.854 28.2155 146.935 27.6333C148.044 27.0511 149.292 26.76 150.678 26.76C152.175 26.76 153.381 27.1066 154.296 27.7996C155.238 28.465 155.918 29.4076 156.333 30.6274C156.749 31.8472 156.957 33.261 156.957 34.869C156.957 36.9205 156.666 38.8333 156.084 40.6076C155.529 42.3819 154.684 43.9482 153.547 45.3066C152.438 46.665 151.052 47.7324 149.389 48.5086C147.725 49.2571 145.813 49.6314 143.65 49.6314ZM144.482 47.1363C145.23 47.1363 145.882 46.8452 146.436 46.263C147.019 45.6531 147.531 44.863 147.975 43.8927C148.419 42.8947 148.793 41.8135 149.098 40.6492C149.403 39.4571 149.624 38.2789 149.763 37.1145C149.902 35.9224 149.971 34.8412 149.971 33.8709C149.971 32.5125 149.846 31.4868 149.597 30.7937C149.347 30.1006 148.834 29.7541 148.058 29.7541C147.365 29.7541 146.769 29.9759 146.27 30.4195C145.771 30.8353 145.355 31.3898 145.022 32.0828C144.718 32.7482 144.454 33.4551 144.232 34.2036C144.038 34.9521 143.886 35.6313 143.775 36.2412L141.904 46.263C142.264 46.568 142.68 46.7898 143.151 46.9284C143.65 47.067 144.094 47.1363 144.482 47.1363ZM144.274 30.7937L137.745 30.5858C137.995 29.4214 138.217 28.2432 138.411 27.0511C138.605 25.8591 138.771 24.6808 138.91 23.5165C139.048 22.3521 139.145 21.2848 139.201 20.3145C139.256 19.9541 139.27 19.6214 139.242 19.3165C139.242 19.0115 139.228 18.7204 139.201 18.4432C139.811 18.0828 140.448 17.8333 141.114 17.6947C141.779 17.5283 142.403 17.4452 142.985 17.4452C144.011 17.4452 144.87 17.7085 145.563 18.2353C146.284 18.762 146.644 19.6491 146.644 20.8967C146.644 21.6452 146.533 22.5462 146.312 23.5996C146.118 24.6531 145.84 25.7897 145.48 27.0095C145.12 28.2294 144.718 29.4907 144.274 30.7937Z" fill="#11263A"/>
<path d="M57.8049 63.612L57.4503 62.5583C57.376 62.3219 57.2679 62.1598 57.1261 62.0719C56.9842 61.9774 56.785 61.9301 56.5283 61.9301H55.971C55.971 62.2003 55.971 62.4907 55.971 62.8015C55.9778 63.1054 55.9845 63.3824 55.9913 63.6323L56.6904 63.7742V64.1389H54.3803V63.7742L55.0895 63.6424C55.0963 63.3858 55.0997 63.1088 55.0997 62.8116C55.1064 62.5076 55.1098 62.2408 55.1098 62.0112V61.4539C55.1098 61.2242 55.1064 60.9574 55.0997 60.6534C55.0997 60.3495 55.0963 60.0725 55.0895 59.8226L54.3803 59.6909V59.3261H56.6904V59.6909L55.9913 59.8327C55.9845 60.0827 55.9778 60.363 55.971 60.6737C55.971 60.9844 55.971 61.2614 55.971 61.5045H56.4878C56.7242 61.5045 56.9302 61.4404 57.1058 61.312C57.2815 61.1837 57.4334 60.9236 57.5618 60.5319C57.7171 60.086 57.8894 59.7584 58.0785 59.549C58.2744 59.3396 58.5345 59.2214 58.8587 59.1944C59.1492 59.2687 59.2944 59.441 59.2944 59.7111C59.2876 59.8598 59.2336 59.9813 59.1323 60.0759C59.0377 60.1637 58.879 60.2076 58.6561 60.2076C58.5615 60.2076 58.4771 60.2042 58.4027 60.1975C58.3284 60.1907 58.2541 60.184 58.1798 60.1772C58.1461 60.2448 58.1089 60.3225 58.0684 60.4103C58.0346 60.4913 58.0008 60.5859 57.9671 60.694C57.8793 60.9642 57.7678 61.1803 57.6327 61.3424C57.5044 61.5045 57.3422 61.6295 57.1464 61.7173C57.4638 61.7849 57.7171 61.9065 57.9063 62.0821C58.0954 62.2509 58.244 62.4941 58.3521 62.8116L58.6459 63.6526L59.3957 63.7742V64.1389C59.2944 64.1659 59.1863 64.1896 59.0715 64.2098C58.9566 64.2369 58.8519 64.2504 58.7574 64.2504C58.4872 64.2504 58.2812 64.2098 58.1393 64.1288C57.9975 64.041 57.886 63.8687 57.8049 63.612ZM63.6509 64.2402C63.4077 64.2402 63.2051 64.1693 63.043 64.0275C62.8809 63.8856 62.7795 63.6965 62.739 63.4601C62.4621 63.7303 62.2189 63.9329 62.0095 64.068C61.8001 64.2031 61.5468 64.2706 61.2496 64.2706C60.8781 64.2706 60.5572 64.1659 60.287 63.9565C60.0236 63.7404 59.8919 63.4229 59.8919 63.0041C59.8919 62.8082 59.9358 62.6258 60.0236 62.457C60.1181 62.2881 60.287 62.1226 60.5302 61.9605C60.7734 61.7984 61.1212 61.6363 61.5738 61.4741C61.7292 61.4201 61.9082 61.3627 62.1108 61.3019C62.3135 61.2411 62.5161 61.1871 62.7187 61.1398V60.8865C62.7187 60.3934 62.6444 60.0658 62.4958 59.9037C62.3472 59.7415 62.1041 59.6605 61.7663 59.6605C61.692 59.6605 61.6076 59.6639 61.513 59.6706C61.4252 59.6774 61.3273 59.6943 61.2192 59.7213L61.0267 60.3799C60.9321 60.7041 60.7565 60.8662 60.4998 60.8662C60.2161 60.8662 60.0574 60.7277 60.0236 60.4508C60.1181 60.0658 60.3411 59.7618 60.6923 59.5389C61.0503 59.3092 61.486 59.1944 61.9994 59.1944C62.533 59.1944 62.9281 59.3295 63.1848 59.5997C63.4415 59.8631 63.5699 60.3157 63.5699 60.9574V63.1156C63.5699 63.3317 63.6036 63.4871 63.6712 63.5816C63.7387 63.6695 63.8265 63.7134 63.9346 63.7134C64.0224 63.7134 64.0967 63.6931 64.1575 63.6526C64.2183 63.612 64.2757 63.558 64.3298 63.4905L64.5324 63.7134C64.4108 63.9093 64.2757 64.0477 64.1271 64.1288C63.9853 64.2031 63.8265 64.2402 63.6509 64.2402ZM60.7936 62.8521C60.7936 63.1223 60.8713 63.3148 61.0267 63.4297C61.182 63.5445 61.3745 63.6019 61.6042 63.6019C61.7055 63.6019 61.8001 63.5884 61.8879 63.5614C61.9825 63.5344 62.0939 63.4837 62.2223 63.4094C62.3506 63.3283 62.5161 63.2135 62.7187 63.0649V61.5147C62.5431 61.562 62.3709 61.616 62.202 61.6768C62.0331 61.7308 61.8947 61.7781 61.7866 61.8186C61.4961 61.9335 61.28 62.0517 61.1381 62.1733C60.9963 62.2949 60.9017 62.4131 60.8544 62.5279C60.8139 62.6427 60.7936 62.7508 60.7936 62.8521ZM68.2893 61.4539C68.2893 61.2175 68.2859 60.9405 68.2792 60.623C68.2792 60.3056 68.2758 60.0185 68.2691 59.7618H67.2862C67.2119 60.5048 67.0599 61.204 66.8303 61.8592C66.6006 62.5144 66.3304 63.1291 66.0197 63.7032H68.2691C68.2758 63.4465 68.2792 63.1628 68.2792 62.8521C68.2859 62.5347 68.2893 62.2543 68.2893 62.0112V61.4539ZM65.9792 59.6909V59.3261H69.8902V59.6909L69.1607 59.8327C69.1539 60.0827 69.1472 60.3596 69.1404 60.6636C69.1404 60.9608 69.1404 61.2242 69.1404 61.4539V62.0112C69.1404 62.2543 69.1404 62.5347 69.1404 62.8521C69.1472 63.1628 69.1539 63.4465 69.1607 63.7032H69.9915L69.9307 65.6587H69.4647L69.2316 64.1389H65.5435L65.3105 65.6587H64.8342L64.7836 63.7032H65.3003C65.6718 63.1628 65.9826 62.5819 66.2325 61.9605C66.4892 61.3391 66.6648 60.6399 66.7594 59.8631L65.9792 59.6909ZM70.6945 66.5605V66.2059L71.5051 66.064C71.5119 65.7871 71.5152 65.5101 71.5152 65.2332C71.522 64.963 71.5254 64.6928 71.5254 64.4226V61.5248C71.5254 61.2479 71.522 61.0182 71.5152 60.8358C71.5152 60.6534 71.5085 60.4609 71.495 60.2583L70.6945 60.1671V59.8125L72.113 59.1944L72.265 59.2957L72.3258 59.9543C72.8054 59.4477 73.3154 59.1944 73.8558 59.1944C74.2205 59.1944 74.5481 59.2957 74.8386 59.4984C75.1291 59.701 75.3587 59.9915 75.5276 60.3697C75.7032 60.7413 75.791 61.1904 75.791 61.7173C75.791 62.2374 75.6998 62.69 75.5175 63.075C75.3351 63.4533 75.0851 63.7471 74.7677 63.9565C74.457 64.1659 74.1023 64.2706 73.7038 64.2706C73.4741 64.2706 73.2445 64.2234 73.0148 64.1288C72.7919 64.0342 72.5724 63.862 72.3562 63.612V64.4125C72.3562 64.6827 72.3562 64.9529 72.3562 65.2231C72.363 65.5 72.3697 65.777 72.3765 66.0539L73.2985 66.2059V66.5605H70.6945ZM73.6126 59.7719C73.4572 59.7719 73.2782 59.8125 73.0756 59.8935C72.873 59.9678 72.6433 60.1131 72.3866 60.3292V63.1764C72.5757 63.3587 72.7615 63.4905 72.9439 63.5715C73.1263 63.6526 73.312 63.6931 73.5011 63.6931C73.8794 63.6931 74.2036 63.5411 74.4738 63.2372C74.744 62.9332 74.8791 62.4536 74.8791 61.7984C74.8791 61.1499 74.7609 60.6501 74.5245 60.2988C74.2881 59.9476 73.9841 59.7719 73.6126 59.7719ZM79.0233 64.2706C78.6315 64.2706 78.2566 64.1794 77.8986 63.9971C77.5473 63.8079 77.2603 63.5276 77.0374 63.1561C76.8145 62.7778 76.703 62.3117 76.703 61.7578C76.703 61.1972 76.8145 60.7277 77.0374 60.3495C77.2603 59.9645 77.5473 59.6774 77.8986 59.4882C78.2566 59.2923 78.6315 59.1944 79.0233 59.1944C79.4151 59.1944 79.7866 59.2923 80.1378 59.4882C80.4958 59.6774 80.7863 59.9645 81.0092 60.3495C81.2388 60.7277 81.3537 61.1972 81.3537 61.7578C81.3537 62.3117 81.2388 62.7778 81.0092 63.1561C80.7863 63.5276 80.4958 63.8079 80.1378 63.9971C79.7866 64.1794 79.4151 64.2706 79.0233 64.2706ZM79.0233 63.8147C79.4623 63.8147 79.8001 63.6424 80.0365 63.2979C80.2729 62.9467 80.3911 62.4333 80.3911 61.7578C80.3911 61.0756 80.2729 60.5555 80.0365 60.1975C79.8001 59.8395 79.4623 59.6605 79.0233 59.6605C78.5842 59.6605 78.2465 59.8395 78.0101 60.1975C77.7804 60.5555 77.6656 61.0756 77.6656 61.7578C77.6656 62.4333 77.7804 62.9467 78.0101 63.2979C78.2465 63.6424 78.5842 63.8147 79.0233 63.8147ZM82.2537 59.6909V59.3261H84.8881C85.4082 59.3261 85.8033 59.4376 86.0735 59.6605C86.3505 59.8834 86.489 60.1637 86.489 60.5015C86.489 60.7514 86.4045 60.9844 86.2357 61.2006C86.0735 61.41 85.7932 61.5552 85.3947 61.6363C85.8675 61.7038 86.2053 61.849 86.4079 62.0719C86.6173 62.2881 86.722 62.5448 86.722 62.842C86.722 63.0514 86.6578 63.2574 86.5295 63.4601C86.4011 63.6559 86.1951 63.8181 85.9114 63.9464C85.6277 64.0747 85.2495 64.1389 84.7766 64.1389H82.2537V63.7742L82.963 63.6424C82.9697 63.3858 82.9731 63.1088 82.9731 62.8116C82.9798 62.5076 82.9832 62.2408 82.9832 62.0112V61.4539C82.9832 61.2242 82.9798 60.9574 82.9731 60.6534C82.9731 60.3495 82.9697 60.0725 82.963 59.8226L82.2537 59.6909ZM83.8343 62.0112C83.8343 62.2543 83.8343 62.5347 83.8343 62.8521C83.8411 63.1628 83.8478 63.4465 83.8546 63.7032H84.6044C85.4217 63.7032 85.8304 63.4128 85.8304 62.8319C85.8304 62.5144 85.729 62.2712 85.5264 62.1023C85.3238 61.9335 84.9962 61.849 84.5436 61.849H83.8343V62.0112ZM84.6652 59.7618H83.8546C83.8478 59.9982 83.8411 60.2718 83.8343 60.5825C83.8343 60.8865 83.8343 61.1769 83.8343 61.4539H84.5233C84.9151 61.4539 85.1988 61.383 85.3744 61.2411C85.55 61.0925 85.6379 60.8696 85.6379 60.5724C85.6379 60.2887 85.5534 60.0827 85.3846 59.9543C85.2224 59.826 84.9826 59.7618 84.6652 59.7618ZM89.8184 64.2706C89.4266 64.2706 89.0517 64.1794 88.6937 63.9971C88.3425 63.8079 88.0554 63.5276 87.8325 63.1561C87.6096 62.7778 87.4981 62.3117 87.4981 61.7578C87.4981 61.1972 87.6096 60.7277 87.8325 60.3495C88.0554 59.9645 88.3425 59.6774 88.6937 59.4882C89.0517 59.2923 89.4266 59.1944 89.8184 59.1944C90.2102 59.1944 90.5817 59.2923 90.933 59.4882C91.291 59.6774 91.5814 59.9645 91.8043 60.3495C92.034 60.7277 92.1488 61.1972 92.1488 61.7578C92.1488 62.3117 92.034 62.7778 91.8043 63.1561C91.5814 63.5276 91.291 63.8079 90.933 63.9971C90.5817 64.1794 90.2102 64.2706 89.8184 64.2706ZM89.8184 63.8147C90.2575 63.8147 90.5952 63.6424 90.8316 63.2979C91.0681 62.9467 91.1863 62.4333 91.1863 61.7578C91.1863 61.0756 91.0681 60.5555 90.8316 60.1975C90.5952 59.8395 90.2575 59.6605 89.8184 59.6605C89.3794 59.6605 89.0416 59.8395 88.8052 60.1975C88.5755 60.5555 88.4607 61.0756 88.4607 61.7578C88.4607 62.4333 88.5755 62.9467 88.8052 63.2979C89.0416 63.6424 89.3794 63.8147 89.8184 63.8147ZM95.3286 59.6605C95.1395 59.6605 94.9469 59.7145 94.7511 59.8226C94.5619 59.9307 94.3964 60.1029 94.2546 60.3393C94.1195 60.5758 94.0317 60.8899 93.9911 61.2816H95.8352C96.0784 61.2816 96.2371 61.231 96.3114 61.1297C96.3925 61.0283 96.433 60.9034 96.433 60.7548C96.433 60.5589 96.3823 60.3799 96.281 60.2178C96.1865 60.0489 96.0547 59.9138 95.8859 59.8125C95.7237 59.7111 95.538 59.6605 95.3286 59.6605ZM95.3185 64.2706C94.6362 64.2706 94.0891 64.0511 93.677 63.612C93.265 63.1662 93.059 62.5549 93.059 61.7781C93.059 61.258 93.1637 60.8054 93.3731 60.4204C93.5892 60.0354 93.8729 59.7348 94.2242 59.5186C94.5822 59.3025 94.9706 59.1944 95.3894 59.1944C95.7406 59.1944 96.0581 59.2721 96.3418 59.4274C96.6255 59.5828 96.8518 59.8057 97.0207 60.0962C97.1895 60.3799 97.274 60.7277 97.274 61.1398C97.274 61.2546 97.2672 61.3627 97.2537 61.464C97.2402 61.5586 97.2233 61.6396 97.203 61.7072H93.9709C93.9844 62.3286 94.1397 62.8015 94.437 63.1257C94.7342 63.4499 95.1259 63.612 95.6123 63.612C95.9365 63.612 96.2067 63.5479 96.4229 63.4195C96.639 63.2844 96.8383 63.1122 97.0207 62.9028L97.2638 63.0953C97.0747 63.4533 96.818 63.7404 96.4938 63.9565C96.1696 64.1659 95.7778 64.2706 95.3185 64.2706ZM104.348 64.2402C104.105 64.2402 103.902 64.1693 103.74 64.0275C103.578 63.8856 103.477 63.6965 103.436 63.4601C103.159 63.7303 102.916 63.9329 102.706 64.068C102.497 64.2031 102.244 64.2706 101.947 64.2706C101.575 64.2706 101.254 64.1659 100.984 63.9565C100.721 63.7404 100.589 63.4229 100.589 63.0041C100.589 62.8082 100.633 62.6258 100.721 62.457C100.815 62.2881 100.984 62.1226 101.227 61.9605C101.47 61.7984 101.818 61.6363 102.271 61.4741C102.426 61.4201 102.605 61.3627 102.808 61.3019C103.01 61.2411 103.213 61.1871 103.416 61.1398V60.8865C103.416 60.3934 103.341 60.0658 103.193 59.9037C103.044 59.7415 102.801 59.6605 102.463 59.6605C102.389 59.6605 102.305 59.6639 102.21 59.6706C102.122 59.6774 102.024 59.6943 101.916 59.7213L101.724 60.3799C101.629 60.7041 101.453 60.8662 101.197 60.8662C100.913 60.8662 100.754 60.7277 100.721 60.4508C100.815 60.0658 101.038 59.7618 101.389 59.5389C101.747 59.3092 102.183 59.1944 102.696 59.1944C103.23 59.1944 103.625 59.3295 103.882 59.5997C104.139 59.8631 104.267 60.3157 104.267 60.9574V63.1156C104.267 63.3317 104.301 63.4871 104.368 63.5816C104.436 63.6695 104.524 63.7134 104.632 63.7134C104.719 63.7134 104.794 63.6931 104.855 63.6526C104.915 63.612 104.973 63.558 105.027 63.4905L105.229 63.7134C105.108 63.9093 104.973 64.0477 104.824 64.1288C104.682 64.2031 104.524 64.2402 104.348 64.2402ZM101.491 62.8521C101.491 63.1223 101.568 63.3148 101.724 63.4297C101.879 63.5445 102.072 63.6019 102.301 63.6019C102.403 63.6019 102.497 63.5884 102.585 63.5614C102.679 63.5344 102.791 63.4837 102.919 63.4094C103.048 63.3283 103.213 63.2135 103.416 63.0649V61.5147C103.24 61.562 103.068 61.616 102.899 61.6768C102.73 61.7308 102.592 61.7781 102.484 61.8186C102.193 61.9335 101.977 62.0517 101.835 62.1733C101.693 62.2949 101.599 62.4131 101.551 62.5279C101.511 62.6427 101.491 62.7508 101.491 62.8521ZM105.684 59.6909V59.3261H109.484L109.565 61.0689H109.089L108.765 59.7618H107.295C107.289 60.0185 107.282 60.3056 107.275 60.623C107.275 60.9405 107.275 61.2175 107.275 61.4539V62.0112C107.275 62.2408 107.275 62.5076 107.275 62.8116C107.282 63.1088 107.289 63.3824 107.295 63.6323L108.106 63.7742V64.1389H105.684V63.7742L106.394 63.6323C106.4 63.3756 106.404 63.0987 106.404 62.8015C106.411 62.5043 106.414 62.2408 106.414 62.0112V61.4539C106.414 61.2242 106.411 60.9574 106.404 60.6534C106.404 60.3495 106.4 60.0725 106.394 59.8226L105.684 59.6909ZM112.496 59.6605C112.307 59.6605 112.114 59.7145 111.918 59.8226C111.729 59.9307 111.564 60.1029 111.422 60.3393C111.287 60.5758 111.199 60.8899 111.158 61.2816H113.003C113.246 61.2816 113.404 61.231 113.479 61.1297C113.56 61.0283 113.6 60.9034 113.6 60.7548C113.6 60.5589 113.55 60.3799 113.448 60.2178C113.354 60.0489 113.222 59.9138 113.053 59.8125C112.891 59.7111 112.705 59.6605 112.496 59.6605ZM112.486 64.2706C111.804 64.2706 111.256 64.0511 110.844 63.612C110.432 63.1662 110.226 62.5549 110.226 61.7781C110.226 61.258 110.331 60.8054 110.54 60.4204C110.757 60.0354 111.04 59.7348 111.392 59.5186C111.75 59.3025 112.138 59.1944 112.557 59.1944C112.908 59.1944 113.225 59.2721 113.509 59.4274C113.793 59.5828 114.019 59.8057 114.188 60.0962C114.357 60.3799 114.441 60.7277 114.441 61.1398C114.441 61.2546 114.435 61.3627 114.421 61.464C114.408 61.5586 114.391 61.6396 114.37 61.7072H111.138C111.152 62.3286 111.307 62.8015 111.604 63.1257C111.902 63.4499 112.293 63.612 112.78 63.612C113.104 63.612 113.374 63.5479 113.59 63.4195C113.806 63.2844 114.006 63.1122 114.188 62.9028L114.431 63.0953C114.242 63.4533 113.985 63.7404 113.661 63.9565C113.337 64.1659 112.945 64.2706 112.486 64.2706ZM118.583 59.6909V59.3261H120.903V59.6909L120.194 59.8327C120.187 60.0827 120.181 60.3596 120.174 60.6636C120.174 60.9608 120.174 61.2242 120.174 61.4539V62.0112C120.174 62.2408 120.174 62.5043 120.174 62.8015C120.181 63.0987 120.187 63.3756 120.194 63.6323L120.903 63.7742V64.1389H118.583V63.7742L119.292 63.6424C119.299 63.3925 119.302 63.1088 119.302 62.7913C119.309 62.4671 119.313 62.1496 119.313 61.8389H116.972C116.972 62.1496 116.972 62.4637 116.972 62.7812C116.979 63.0987 116.986 63.3824 116.992 63.6323L117.691 63.7742V64.1389H115.381V63.7742L116.09 63.6424C116.097 63.3858 116.101 63.1088 116.101 62.8116C116.107 62.5076 116.111 62.2408 116.111 62.0112V61.4539C116.111 61.2242 116.107 60.9574 116.101 60.6534C116.101 60.3495 116.097 60.0725 116.09 59.8226L115.381 59.6909V59.3261H117.691V59.6909L116.992 59.8327C116.986 60.0759 116.979 60.3427 116.972 60.6332C116.972 60.9169 116.972 61.1736 116.972 61.4032H119.313C119.313 61.1668 119.309 60.9067 119.302 60.623C119.302 60.3326 119.299 60.0658 119.292 59.8226L118.583 59.6909ZM123.954 64.2706C123.258 64.2706 122.704 64.0443 122.292 63.5918C121.88 63.1392 121.674 62.5245 121.674 61.7477C121.674 61.2141 121.782 60.7581 121.998 60.3799C122.221 59.9948 122.511 59.701 122.869 59.4984C123.227 59.2957 123.609 59.1944 124.014 59.1944C124.318 59.1944 124.599 59.2518 124.855 59.3667C125.112 59.4815 125.325 59.6402 125.494 59.8429C125.663 60.0388 125.767 60.2617 125.808 60.5116C125.76 60.7683 125.605 60.8966 125.342 60.8966C125.173 60.8966 125.044 60.8527 124.957 60.7649C124.876 60.6703 124.818 60.5521 124.784 60.4103L124.602 59.7415C124.507 59.7078 124.413 59.6875 124.318 59.6807C124.23 59.6672 124.143 59.6605 124.055 59.6605C123.623 59.6605 123.265 59.8294 122.981 60.1671C122.704 60.5048 122.565 60.9979 122.565 61.6464C122.565 62.2813 122.717 62.7677 123.021 63.1054C123.325 63.4432 123.714 63.612 124.187 63.612C124.477 63.612 124.744 63.5479 124.987 63.4195C125.23 63.2844 125.429 63.0919 125.585 62.842L125.838 62.9737C125.696 63.3925 125.467 63.7134 125.149 63.9363C124.832 64.1592 124.433 64.2706 123.954 64.2706ZM126.449 60.9675L126.53 59.3261H131.211L131.292 60.9675H130.826L130.542 59.7618H129.316C129.31 60.0185 129.303 60.3056 129.296 60.623C129.296 60.9405 129.296 61.2175 129.296 61.4539V62.0112C129.296 62.2408 129.296 62.5043 129.296 62.8015C129.303 63.0987 129.31 63.3756 129.316 63.6323L130.127 63.7742V64.1389H127.614V63.7742L128.425 63.6323C128.431 63.3756 128.435 63.0987 128.435 62.8015C128.442 62.5043 128.445 62.2408 128.445 62.0112V61.4539C128.445 61.2175 128.442 60.9405 128.435 60.623C128.435 60.3056 128.431 60.0185 128.425 59.7618H127.199L126.915 60.9675H126.449ZM131.994 59.6909V59.3261H134.629C135.149 59.3261 135.544 59.4376 135.814 59.6605C136.091 59.8834 136.23 60.1637 136.23 60.5015C136.23 60.7514 136.145 60.9844 135.976 61.2006C135.814 61.41 135.534 61.5552 135.135 61.6363C135.608 61.7038 135.946 61.849 136.149 62.0719C136.358 62.2881 136.463 62.5448 136.463 62.842C136.463 63.0514 136.399 63.2574 136.27 63.4601C136.142 63.6559 135.936 63.8181 135.652 63.9464C135.368 64.0747 134.99 64.1389 134.517 64.1389H131.994V63.7742L132.704 63.6424C132.71 63.3858 132.714 63.1088 132.714 62.8116C132.721 62.5076 132.724 62.2408 132.724 62.0112V61.4539C132.724 61.2242 132.721 60.9574 132.714 60.6534C132.714 60.3495 132.71 60.0725 132.704 59.8226L131.994 59.6909ZM133.575 62.0112C133.575 62.2543 133.575 62.5347 133.575 62.8521C133.582 63.1628 133.589 63.4465 133.595 63.7032H134.345C135.162 63.7032 135.571 63.4128 135.571 62.8319C135.571 62.5144 135.47 62.2712 135.267 62.1023C135.065 61.9335 134.737 61.849 134.284 61.849H133.575V62.0112ZM134.406 59.7618H133.595C133.589 59.9982 133.582 60.2718 133.575 60.5825C133.575 60.8865 133.575 61.1769 133.575 61.4539H134.264C134.656 61.4539 134.94 61.383 135.115 61.2411C135.291 61.0925 135.379 60.8696 135.379 60.5724C135.379 60.2887 135.294 60.0827 135.125 59.9543C134.963 59.826 134.723 59.7618 134.406 59.7618ZM139.559 64.2706C139.167 64.2706 138.793 64.1794 138.435 63.9971C138.083 63.8079 137.796 63.5276 137.573 63.1561C137.35 62.7778 137.239 62.3117 137.239 61.7578C137.239 61.1972 137.35 60.7277 137.573 60.3495C137.796 59.9645 138.083 59.6774 138.435 59.4882C138.793 59.2923 139.167 59.1944 139.559 59.1944C139.951 59.1944 140.322 59.2923 140.674 59.4882C141.032 59.6774 141.322 59.9645 141.545 60.3495C141.775 60.7277 141.89 61.1972 141.89 61.7578C141.89 62.3117 141.775 62.7778 141.545 63.1561C141.322 63.5276 141.032 63.8079 140.674 63.9971C140.322 64.1794 139.951 64.2706 139.559 64.2706ZM139.559 63.8147C139.998 63.8147 140.336 63.6424 140.572 63.2979C140.809 62.9467 140.927 62.4333 140.927 61.7578C140.927 61.0756 140.809 60.5555 140.572 60.1975C140.336 59.8395 139.998 59.6605 139.559 59.6605C139.12 59.6605 138.782 59.8395 138.546 60.1975C138.316 60.5555 138.201 61.0756 138.201 61.7578C138.201 62.4333 138.316 62.9467 138.546 63.2979C138.782 63.6424 139.12 63.8147 139.559 63.8147Z" fill="#11263A"/>
<path d="M22.9292 18.3717C45.8237 9.19041 70.5748 4.3048 95.3966 4.06627C120.217 3.80135 145.16 8.18141 168.421 16.9616" stroke="#11263A" stroke-width="2.00533" stroke-miterlimit="10" stroke-linecap="round"/>
<path d="M171.455 13.825L175.546 19.4769L168.983 19.2003L171.455 13.825Z" fill="#11263A" stroke="#11263A" stroke-width="2.00533" stroke-linecap="round" stroke-linejoin="round"/>
<path d="M170.998 13.7891C170.528 13.9949 171.209 15.2741 170.503 16.7518C169.777 18.2716 168.256 18.5872 168.398 19.0811C168.488 19.3988 169.159 19.4041 171.661 19.5043C174.36 19.613 174.937 19.6616 175.136 19.2922C175.244 19.0895 175.249 18.7423 173.978 16.9628C172.677 15.1443 171.541 13.5517 170.998 13.7891Z" fill="#11263A" stroke="#11263A" stroke-width="0.738806" stroke-linecap="round" stroke-linejoin="round"/>
<path d="M172.254 63.8433C147.36 72.5084 122.726 76.1929 98.1361 76.2816C73.5476 76.2573 48.8915 72.6372 23.96 64.029" stroke="#11263A" stroke-width="2.00533" stroke-miterlimit="10" stroke-linecap="round"/>
<path d="M25.8681 61.2986L20.0558 61.2437L23.4364 66.4523L25.8681 61.2986Z" fill="#11263A" stroke="#11263A" stroke-width="2.00533" stroke-linecap="round" stroke-linejoin="round"/>
<path d="M26.1137 61.6514C26.2034 62.1569 25.0065 62.3437 24.3521 63.7823C23.6777 65.262 24.2044 66.69 23.8023 66.8621C23.5426 66.9729 23.2133 66.4272 21.9278 64.4377C20.541 62.292 20.2275 61.8487 20.3805 61.4709C20.465 61.264 20.6972 61.0582 22.5189 61.0624C24.3807 61.0667 26.0102 61.0698 26.1137 61.6514Z" fill="#11263A" stroke="#11263A" stroke-width="0.738806" stroke-linecap="round" stroke-linejoin="round"/>
</g>
<defs>
<clipPath id="clip0_2104_127">
<rect width="192" height="77.6164" fill="white"/>
</clipPath>
</defs>
</svg>
