<svg width="196" height="80" viewBox="0 0 196 80" fill="none" xmlns="http://www.w3.org/2000/svg">
<path d="M14.1488 43.0148L12.2729 41.264C13.1233 41.2473 13.8403 41.0472 14.4239 40.6637C15.0075 40.2635 15.441 39.7549 15.7245 39.138C16.0246 38.521 16.1747 37.854 16.1747 37.137C16.1747 36.27 15.9496 35.5446 15.4994 34.961C15.0492 34.3607 14.4322 33.9105 13.6485 33.6104C12.8648 33.3102 11.9727 33.1602 10.9723 33.1602C10.2386 33.1602 9.50492 33.2602 8.77124 33.4603C8.05424 33.6604 7.3956 33.9689 6.79531 34.3857C6.21171 34.8026 5.73649 35.3195 5.36965 35.9365C5.01948 36.5534 4.8444 37.2871 4.8444 38.1375C4.8444 38.6044 4.88609 39.0463 4.96946 39.4631C5.06951 39.8633 5.25293 40.3385 5.51972 40.8888C5.28627 41.1222 5.00281 41.2973 4.66932 41.414C4.3525 41.5141 4.0607 41.5641 3.79391 41.5641C3.12693 41.5641 2.56 41.414 2.09311 41.1139C1.62623 40.7971 1.26773 40.3885 1.01761 39.8883C0.784166 39.3714 0.667445 38.8211 0.667445 38.2375C0.667445 37.1704 0.967586 36.2283 1.56787 35.4112C2.16815 34.5775 2.97686 33.8855 3.994 33.3352C5.02782 32.7683 6.17836 32.3431 7.44562 32.0596C8.72955 31.7595 10.0552 31.6094 11.4225 31.6094C13.5902 31.6094 15.366 31.8512 16.75 32.3348C18.134 32.8183 19.1511 33.4686 19.8014 34.2857C20.4517 35.1027 20.7769 36.0282 20.7769 37.062C20.7769 37.8457 20.5851 38.5794 20.2016 39.263C19.8348 39.93 19.3262 40.5219 18.6759 41.0389C18.0422 41.5558 17.3336 41.9893 16.5499 42.3395C15.7662 42.6729 14.9658 42.8981 14.1488 43.0148ZM6.72028 49.2927C6.1867 49.2927 5.6948 49.1927 5.24459 48.9926C4.79438 48.8092 4.52759 48.5424 4.44421 48.1922C4.69433 48.0588 4.88609 47.8921 5.01948 47.692C5.16955 47.4752 5.28627 47.1917 5.36965 46.8416C5.46969 46.4914 5.56974 46.0412 5.66979 45.4909L7.09545 38.1875C7.2622 37.3538 7.47063 36.6618 7.72075 36.1115C7.98754 35.5613 8.35438 35.1528 8.82126 34.886C9.30482 34.6025 9.95513 34.4608 10.7722 34.4608C11.3725 34.4608 11.8894 34.5692 12.3229 34.7859C12.7731 35.0027 13.0232 35.2945 13.0733 35.6613C12.8231 35.7781 12.623 35.9448 12.473 36.1616C12.3229 36.3783 12.2062 36.6535 12.1228 36.987C12.0561 37.3204 11.9644 37.754 11.8477 38.2876L10.397 45.666C10.2469 46.4664 10.0302 47.1417 9.7467 47.692C9.4799 48.2255 9.10473 48.6257 8.62117 48.8925C8.15428 49.1593 7.52065 49.2927 6.72028 49.2927ZM18.4758 52.119C17.6087 52.119 16.9084 51.9356 16.3748 51.5688C15.8412 51.2186 15.391 50.6934 15.0242 49.993C14.8407 49.6095 14.6657 49.1677 14.4989 48.6674C14.3322 48.1672 14.1654 47.6253 13.9987 47.0417C13.8486 46.4581 13.6819 45.8494 13.4985 45.2158C13.3317 44.5655 13.1483 43.9069 12.9482 43.2399C12.7481 42.5729 12.523 41.9143 12.2729 41.264L15.8746 42.4395C16.2414 42.7897 16.5916 43.2649 16.9251 43.8652C17.2752 44.4488 17.617 45.0741 17.9505 45.7411C18.284 46.408 18.6342 47.05 19.001 47.667C19.3679 48.2839 19.7514 48.8008 20.1516 49.2177C20.5684 49.6512 21.0186 49.9097 21.5022 49.993C21.3355 50.6433 20.9853 51.1603 20.4517 51.5438C19.9181 51.9273 19.2595 52.119 18.4758 52.119ZM26.1163 49.2927C25.0991 49.2927 24.1987 49.1093 23.415 48.7425C22.648 48.3756 22.0477 47.817 21.6142 47.0667C21.1806 46.2996 20.9639 45.3242 20.9639 44.1403C20.9639 43.0565 21.1139 42.006 21.4141 40.9888C21.7309 39.9717 22.2061 39.0546 22.8397 38.2375C23.49 37.4038 24.3154 36.7452 25.3159 36.2616C26.3164 35.7781 27.5003 35.5363 28.8676 35.5363C29.5846 35.5363 30.2432 35.628 30.8435 35.8114C31.4604 35.9781 31.9607 36.2866 32.3442 36.7368C32.7277 37.1704 32.9195 37.7957 32.9195 38.6127C32.9195 39.4631 32.6693 40.1968 32.1691 40.8137C31.6855 41.4307 30.9685 41.9143 30.0181 42.2644C29.0843 42.6146 27.9421 42.823 26.5915 42.8897C26.3747 42.8897 26.1496 42.8897 25.9162 42.8897C25.6994 42.8897 25.491 42.8897 25.2909 42.8897C25.2742 43.0898 25.2575 43.2982 25.2409 43.515C25.2242 43.7151 25.2159 43.8985 25.2159 44.0653C25.2159 44.7989 25.3743 45.3742 25.6911 45.7911C26.0079 46.1913 26.5581 46.3914 27.3418 46.3914C27.9922 46.3914 28.6341 46.2496 29.2677 45.9662C29.9014 45.6827 30.3766 45.2658 30.6934 44.7156C30.9269 44.849 31.0853 45.0157 31.1686 45.2158C31.2687 45.3992 31.3187 45.6243 31.3187 45.8911C31.3187 46.5581 31.0769 47.15 30.5934 47.667C30.1265 48.1839 29.4929 48.584 28.6925 48.8675C27.9088 49.151 27.05 49.2927 26.1163 49.2927ZM25.441 41.7642C26.0246 41.7642 26.5498 41.6808 27.0167 41.5141C27.5003 41.3473 27.9171 41.1139 28.2673 40.8137C28.6174 40.4969 28.8842 40.1218 29.0677 39.6882C29.2511 39.2547 29.3428 38.7711 29.3428 38.2375C29.3428 37.804 29.2594 37.4705 29.0927 37.2371C28.9426 36.987 28.6841 36.8619 28.3173 36.8619C28.0005 36.8619 27.692 36.9703 27.3919 37.187C27.0917 37.4038 26.8166 37.7206 26.5665 38.1375C26.333 38.5544 26.1163 39.0713 25.9162 39.6882C25.7328 40.2885 25.5744 40.9805 25.441 41.7642ZM38.3249 49.2927C36.7742 49.2927 35.557 48.8759 34.6732 48.0421C33.7895 47.1917 33.3476 45.8744 33.3476 44.0903C33.3476 42.9231 33.5227 41.8226 33.8728 40.7887C34.2397 39.7549 34.7649 38.8462 35.4486 38.0625C36.1322 37.2788 36.9576 36.6618 37.9247 36.2116C38.9085 35.7614 40.0257 35.5363 41.2763 35.5363C42.01 35.5363 42.6686 35.628 43.2522 35.8114C43.8525 35.9781 44.3277 36.2616 44.6779 36.6618C45.0281 37.0453 45.2031 37.5622 45.2031 38.2125C45.2031 39.0629 44.9197 39.6799 44.3527 40.0634C43.8025 40.4469 43.1605 40.6387 42.4268 40.6387C42.2934 40.6387 42.11 40.622 41.8766 40.5886C41.6598 40.5553 41.4847 40.4886 41.3513 40.3885C41.4681 40.0884 41.5681 39.7132 41.6515 39.263C41.7348 38.8128 41.7765 38.4293 41.7765 38.1125C41.7765 37.779 41.7182 37.5122 41.6015 37.3121C41.4847 37.112 41.2596 37.012 40.9261 37.012C40.4926 37.012 40.1008 37.1787 39.7506 37.5122C39.4004 37.8457 39.0919 38.2792 38.8252 38.8128C38.575 39.3464 38.3583 39.93 38.1748 40.5636C37.9914 41.1806 37.8497 41.7892 37.7497 42.3895C37.6663 42.9898 37.6246 43.515 37.6246 43.9652C37.6246 44.6822 37.7663 45.2658 38.0498 45.716C38.3499 46.1663 38.8752 46.3914 39.6255 46.3914C40.3092 46.3914 40.9345 46.2079 41.5014 45.8411C42.085 45.4576 42.5019 44.9407 42.752 44.2904C43.0855 44.4571 43.3273 44.6572 43.4773 44.8907C43.6274 45.1241 43.7024 45.4159 43.7024 45.7661C43.7024 46.4997 43.444 47.1334 42.9271 47.667C42.4268 48.1839 41.7682 48.584 40.9511 48.8675C40.1341 49.151 39.2587 49.2927 38.3249 49.2927ZM44.7455 49.2427L47.2967 36.0365L50.9484 35.5863L50.5732 37.9874C50.9401 37.2037 51.4403 36.6034 52.0739 36.1866C52.7242 35.753 53.4829 35.5363 54.35 35.5363C55.3004 35.5363 56.0174 35.7864 56.501 36.2866C57.0012 36.7702 57.2514 37.4538 57.2514 38.3376C57.2514 39.3381 56.9596 40.1718 56.3759 40.8388C55.7923 41.4891 55.0337 41.8142 54.0999 41.8142C53.8331 41.8142 53.5663 41.7809 53.2995 41.7142C53.0327 41.6475 52.8243 41.5307 52.6742 41.364C52.9577 41.0138 53.1828 40.5636 53.3495 40.0134C53.533 39.4464 53.6247 38.9462 53.6247 38.5127C53.6247 38.2125 53.5663 37.9624 53.4496 37.7623C53.3495 37.5622 53.1494 37.4622 52.8493 37.4622C52.5658 37.4622 52.299 37.5622 52.0489 37.7623C51.8155 37.9624 51.607 38.2459 51.4236 38.6127C51.2402 38.9629 51.0735 39.3881 50.9234 39.8883C50.7733 40.3885 50.6483 40.9388 50.5482 41.5391L49.3477 48.7925L44.7455 49.2427ZM60.7956 49.2927C60.0452 49.2927 59.3949 49.1677 58.8447 48.9175C58.2944 48.6674 57.8692 48.2922 57.5691 47.792C57.2689 47.2751 57.1189 46.6331 57.1189 45.8661C57.1189 45.4492 57.1772 44.8573 57.294 44.0903C57.4107 43.3233 57.5858 42.2894 57.8192 40.9888C58.0526 39.6882 58.3611 38.0374 58.7446 36.0365L63.1717 35.5863C62.8382 37.3705 62.5464 38.8712 62.2963 40.0884C62.0629 41.289 61.8711 42.2811 61.721 43.0648C61.5876 43.8318 61.4876 44.4655 61.4209 44.9657C61.3542 45.4492 61.3208 45.8578 61.3208 46.1913C61.3208 46.4414 61.3459 46.6832 61.3959 46.9166C61.4459 47.15 61.5459 47.3418 61.696 47.4919C61.8628 47.6419 62.0962 47.717 62.3963 47.717C62.8799 47.717 63.2801 47.5419 63.5969 47.1917C63.9137 46.8416 64.1638 46.408 64.3473 45.8911C64.5473 45.3575 64.6891 44.849 64.7725 44.3654L66.2732 36.0365L70.7252 35.5863L68.8744 45.3409C68.8577 45.4909 68.8327 45.666 68.7993 45.8661C68.766 46.0662 68.7493 46.2413 68.7493 46.3914C68.7493 46.6915 68.8327 46.9666 68.9994 47.2167C69.1662 47.4502 69.433 47.5752 69.7998 47.5919C69.6998 47.9921 69.4913 48.3173 69.1745 48.5674C68.8744 48.8175 68.5242 49.0009 68.124 49.1176C67.7405 49.2344 67.357 49.2927 66.9735 49.2927C66.4399 49.2927 65.9563 49.176 65.5228 48.9426C65.0893 48.7091 64.8058 48.3506 64.6724 47.867C64.2555 48.3339 63.6886 48.6841 62.9716 48.9175C62.2713 49.1677 61.5459 49.2927 60.7956 49.2927ZM74.3975 49.2927C73.6304 49.2927 73.0052 49.101 72.5216 48.7174C72.0547 48.3173 71.8213 47.7253 71.8213 46.9416C71.8213 46.6415 71.8463 46.2663 71.8963 45.8161C71.963 45.3492 72.038 44.8656 72.1214 44.3654C72.2215 43.8485 72.3132 43.3649 72.3965 42.9147C72.4966 42.4645 72.58 42.0893 72.6467 41.7892L73.7722 36.0365L78.2743 35.5863L76.3484 45.3409C76.3317 45.4743 76.3067 45.641 76.2733 45.8411C76.24 46.0412 76.2233 46.2246 76.2233 46.3914C76.2233 46.6915 76.3067 46.9666 76.4734 47.2167C76.6402 47.4502 76.9153 47.5752 77.2988 47.5919C77.1154 48.1755 76.7402 48.6007 76.1733 48.8675C75.6064 49.151 75.0144 49.2927 74.3975 49.2927ZM76.7236 33.9855C76.0066 33.9855 75.4146 33.8271 74.9477 33.5103C74.4808 33.1935 74.2474 32.735 74.2474 32.1347C74.2474 31.5011 74.4892 31.0258 74.9727 30.709C75.473 30.3755 76.0816 30.2088 76.7986 30.2088C77.4989 30.2088 78.0742 30.3755 78.5244 30.709C78.9746 31.0258 79.1997 31.4844 79.1997 32.0847C79.1997 32.7183 78.9579 33.1935 78.4744 33.5103C78.0075 33.8271 77.4239 33.9855 76.7236 33.9855ZM82.3463 49.2927C81.6126 49.2927 80.979 49.0926 80.4454 48.6924C79.9285 48.2922 79.6701 47.7086 79.6701 46.9416C79.6701 46.6081 79.7117 46.1746 79.7951 45.641C79.8785 45.0907 79.9702 44.5155 80.0702 43.9152C80.187 43.3149 80.3037 42.7396 80.4204 42.1894C80.5371 41.6391 80.6205 41.1889 80.6705 40.8388L81.4209 37.162H79.8701L79.9702 36.4117C80.904 36.1115 81.8377 35.703 82.7715 35.1861C83.722 34.6692 84.6224 34.0689 85.4728 33.3853H86.5733L85.998 36.0365H87.9489L87.7238 37.162H85.7979L84.2722 45.0157C84.2389 45.2492 84.2055 45.4743 84.1722 45.691C84.1388 45.8911 84.1138 46.0912 84.0971 46.2913C84.0971 46.8582 84.2305 47.2334 84.4973 47.4168C84.7641 47.5836 85.1476 47.6086 85.6479 47.4919C85.4311 47.9921 85.1476 48.3756 84.7975 48.6424C84.4473 48.8925 84.0554 49.0593 83.6219 49.1426C83.205 49.2427 82.7798 49.2927 82.3463 49.2927ZM104.863 49.2927C104.096 49.2927 103.471 49.101 102.987 48.7174C102.503 48.3173 102.262 47.7086 102.262 46.8916C102.262 46.5248 102.312 46.0662 102.412 45.5159C102.528 44.9657 102.654 44.3821 102.787 43.7651C102.937 43.1482 103.079 42.5312 103.212 41.9143C103.362 41.2806 103.487 40.7054 103.587 40.1885C103.687 39.6549 103.737 39.2047 103.737 38.8378C103.737 38.4543 103.662 38.1292 103.512 37.8624C103.362 37.5956 103.087 37.4622 102.687 37.4622C102.303 37.4622 101.962 37.6039 101.661 37.8874C101.378 38.1542 101.136 38.496 100.936 38.9129C100.753 39.3297 100.603 39.7549 100.486 40.1885C100.369 40.622 100.277 41.0138 100.211 41.364L98.76 48.7925L94.308 49.2427L95.6836 42.7146C95.7336 42.4979 95.792 42.2227 95.8587 41.8892C95.9254 41.5391 95.9921 41.1722 96.0588 40.7887C96.1255 40.4052 96.1838 40.0384 96.2339 39.6882C96.3006 39.3214 96.3339 39.0129 96.3339 38.7628C96.3339 38.4293 96.2589 38.1292 96.1088 37.8624C95.9587 37.5956 95.6836 37.4622 95.2834 37.4622C94.8832 37.4622 94.5414 37.5956 94.2579 37.8624C93.9745 38.1125 93.7327 38.446 93.5326 38.8628C93.3492 39.263 93.1991 39.6882 93.0824 40.1384C92.9657 40.572 92.8656 40.9805 92.7822 41.364L91.3566 48.7925L86.8795 49.2427L89.4807 36.0365L93.1324 35.5863L92.7572 37.9874C93.1908 37.1037 93.7911 36.4784 94.5581 36.1115C95.3251 35.728 96.1755 35.5363 97.1093 35.5363C97.943 35.5363 98.6433 35.6947 99.2103 36.0115C99.7772 36.3283 100.169 36.8619 100.386 37.6122C100.836 36.8619 101.436 36.3283 102.187 36.0115C102.937 35.6947 103.737 35.5363 104.588 35.5363C105.672 35.5363 106.522 35.7697 107.139 36.2366C107.756 36.7035 108.064 37.4538 108.064 38.4877C108.064 38.9212 108.014 39.4214 107.914 39.9884C107.831 40.5386 107.714 41.1139 107.564 41.7142C107.431 42.3144 107.297 42.9064 107.164 43.49C107.031 44.0569 106.914 44.5905 106.814 45.0907C106.714 45.5743 106.664 45.9828 106.664 46.3163C106.664 46.6665 106.739 46.9583 106.889 47.1917C107.056 47.4252 107.339 47.5586 107.739 47.5919C107.556 48.1755 107.181 48.6007 106.614 48.8675C106.047 49.151 105.463 49.2927 104.863 49.2927ZM114.488 49.2927C113.471 49.2927 112.57 49.1093 111.786 48.7425C111.019 48.3756 110.419 47.817 109.986 47.0667C109.552 46.2996 109.335 45.3242 109.335 44.1403C109.335 43.0565 109.485 42.006 109.786 40.9888C110.102 39.9717 110.578 39.0546 111.211 38.2375C111.861 37.4038 112.687 36.7452 113.687 36.2616C114.688 35.7781 115.872 35.5363 117.239 35.5363C117.956 35.5363 118.615 35.628 119.215 35.8114C119.832 35.9781 120.332 36.2866 120.716 36.7368C121.099 37.1704 121.291 37.7957 121.291 38.6127C121.291 39.4631 121.041 40.1968 120.541 40.8137C120.057 41.4307 119.34 41.9143 118.39 42.2644C117.456 42.6146 116.314 42.823 114.963 42.8897C114.746 42.8897 114.521 42.8897 114.288 42.8897C114.071 42.8897 113.862 42.8897 113.662 42.8897C113.646 43.0898 113.629 43.2982 113.612 43.515C113.596 43.7151 113.587 43.8985 113.587 44.0653C113.587 44.7989 113.746 45.3742 114.063 45.7911C114.379 46.1913 114.93 46.3914 115.713 46.3914C116.364 46.3914 117.006 46.2496 117.639 45.9662C118.273 45.6827 118.748 45.2658 119.065 44.7156C119.298 44.849 119.457 45.0157 119.54 45.2158C119.64 45.3992 119.69 45.6243 119.69 45.8911C119.69 46.5581 119.448 47.15 118.965 47.667C118.498 48.1839 117.864 48.584 117.064 48.8675C116.28 49.151 115.421 49.2927 114.488 49.2927ZM113.812 41.7642C114.396 41.7642 114.921 41.6808 115.388 41.5141C115.872 41.3473 116.289 41.1139 116.639 40.8137C116.989 40.4969 117.256 40.1218 117.439 39.6882C117.623 39.2547 117.714 38.7711 117.714 38.2375C117.714 37.804 117.631 37.4705 117.464 37.2371C117.314 36.987 117.056 36.8619 116.689 36.8619C116.372 36.8619 116.063 36.9703 115.763 37.187C115.463 37.4038 115.188 37.7206 114.938 38.1375C114.704 38.5544 114.488 39.0713 114.288 39.6882C114.104 40.2885 113.946 40.9805 113.812 41.7642ZM131.949 49.2927C131.182 49.2927 130.557 49.101 130.073 48.7174C129.589 48.3173 129.348 47.7086 129.348 46.8916C129.348 46.5248 129.398 46.0662 129.498 45.5159C129.614 44.9657 129.739 44.3821 129.873 43.7651C130.023 43.1482 130.165 42.5312 130.298 41.9143C130.448 41.2973 130.573 40.722 130.673 40.1885C130.773 39.6382 130.823 39.1796 130.823 38.8128C130.823 38.4293 130.748 38.1125 130.598 37.8624C130.448 37.5956 130.181 37.4622 129.798 37.4622C129.298 37.4622 128.881 37.6706 128.547 38.0875C128.214 38.5043 127.939 39.0129 127.722 39.6132C127.522 40.2135 127.363 40.7971 127.247 41.364L125.821 48.7925L121.344 49.2427L123.945 36.0365L127.597 35.5863L127.222 37.9874C127.672 37.1203 128.289 36.4951 129.072 36.1115C129.873 35.728 130.748 35.5363 131.699 35.5363C132.783 35.5363 133.633 35.7697 134.25 36.2366C134.867 36.7035 135.175 37.4538 135.175 38.4877C135.175 38.9212 135.125 39.4131 135.025 39.9633C134.925 40.5136 134.8 41.0972 134.65 41.7142C134.517 42.3144 134.383 42.9064 134.25 43.49C134.117 44.0569 134 44.5905 133.9 45.0907C133.8 45.5743 133.75 45.9828 133.75 46.3163C133.75 46.6665 133.825 46.9583 133.975 47.1917C134.142 47.4252 134.425 47.5586 134.825 47.5919C134.642 48.1755 134.267 48.6007 133.7 48.8675C133.149 49.151 132.566 49.2927 131.949 49.2927ZM139.6 49.2927C138.866 49.2927 138.232 49.0926 137.699 48.6924C137.182 48.2922 136.923 47.7086 136.923 46.9416C136.923 46.6081 136.965 46.1746 137.048 45.641C137.132 45.0907 137.224 44.5155 137.324 43.9152C137.44 43.3149 137.557 42.7396 137.674 42.1894C137.79 41.6391 137.874 41.1889 137.924 40.8388L138.674 37.162H137.124L137.224 36.4117C138.157 36.1115 139.091 35.703 140.025 35.1861C140.975 34.6692 141.876 34.0689 142.726 33.3853H143.827L143.251 36.0365H145.202L144.977 37.162H143.051L141.526 45.0157C141.492 45.2492 141.459 45.4743 141.426 45.691C141.392 45.8911 141.367 46.0912 141.35 46.2913C141.35 46.8582 141.484 47.2334 141.751 47.4168C142.017 47.5836 142.401 47.6086 142.901 47.4919C142.684 47.9921 142.401 48.3756 142.051 48.6424C141.701 48.8925 141.309 49.0593 140.875 49.1426C140.458 49.2427 140.033 49.2927 139.6 49.2927ZM157.839 48.9926L160.591 34.3107C160.741 33.5437 160.949 32.9017 161.216 32.3848C161.499 31.8512 161.883 31.451 162.366 31.1842C162.867 30.9008 163.492 30.759 164.242 30.759C164.793 30.759 165.268 30.8591 165.668 31.0592C166.085 31.2426 166.327 31.5261 166.393 31.9096C166.076 32.2431 165.826 32.6433 165.643 33.1101C165.46 33.577 165.301 34.1523 165.168 34.8359C165.034 35.5029 164.868 36.3283 164.667 37.3121L162.516 48.5174L157.839 48.9926ZM150.486 50.0431C149.936 50.0431 149.444 49.9347 149.01 49.7179C148.577 49.5178 148.335 49.2427 148.285 48.8925C148.535 48.7758 148.727 48.6174 148.86 48.4173C149.01 48.2005 149.127 47.9254 149.21 47.5919C149.31 47.2418 149.41 46.7915 149.51 46.2413L151.261 37.087C151.445 36.0865 151.786 35.2611 152.287 34.6108C152.804 33.9605 153.446 33.452 154.213 33.0851C154.996 32.7016 155.88 32.4348 156.864 32.2848L154.113 46.3163C153.962 47.1334 153.754 47.817 153.487 48.3673C153.22 48.9175 152.854 49.3344 152.387 49.6179C151.92 49.9013 151.286 50.0431 150.486 50.0431ZM148.135 39.5882C147.434 39.5882 146.842 39.4381 146.359 39.138C145.892 38.8211 145.534 38.4126 145.283 37.9124C145.05 37.3955 144.933 36.8369 144.933 36.2366C144.933 35.4362 145.133 34.6525 145.534 33.8855C145.934 33.1018 146.526 32.4598 147.309 31.9596C148.11 31.4427 149.102 31.1842 150.286 31.1842C150.919 31.1842 151.495 31.2426 152.012 31.3593C152.528 31.4594 153.029 31.5844 153.512 31.7345C153.996 31.8679 154.504 31.9929 155.038 32.1097C155.572 32.2097 156.18 32.2681 156.864 32.2848L153.487 33.5353L153.412 33.3352C153.162 33.2018 152.904 33.0935 152.637 33.0101C152.37 32.9267 152.07 32.885 151.736 32.885C150.936 32.885 150.294 33.1768 149.811 33.7604C149.327 34.3274 149.085 35.1111 149.085 36.1115C149.085 36.5951 149.135 37.0537 149.235 37.4872C149.335 37.9207 149.51 38.4043 149.76 38.9379C149.544 39.1713 149.277 39.3381 148.96 39.4381C148.66 39.5381 148.385 39.5882 148.135 39.5882ZM154.213 41.6391L154.613 39.6882H160.566L160.215 41.6391H154.213ZM169.929 49.2927C169.178 49.2927 168.528 49.1677 167.978 48.9175C167.428 48.6674 167.002 48.2922 166.702 47.792C166.402 47.2751 166.252 46.6331 166.252 45.8661C166.252 45.4492 166.31 44.8573 166.427 44.0903C166.544 43.3233 166.719 42.2894 166.952 40.9888C167.186 39.6882 167.494 38.0374 167.878 36.0365L172.305 35.5863C171.971 37.3705 171.68 38.8712 171.429 40.0884C171.196 41.289 171.004 42.2811 170.854 43.0648C170.721 43.8318 170.621 44.4655 170.554 44.9657C170.487 45.4492 170.454 45.8578 170.454 46.1913C170.454 46.4414 170.479 46.6832 170.529 46.9166C170.579 47.15 170.679 47.3418 170.829 47.4919C170.996 47.6419 171.229 47.717 171.529 47.717C172.013 47.717 172.413 47.5419 172.73 47.1917C173.047 46.8416 173.297 46.408 173.48 45.8911C173.68 45.3575 173.822 44.849 173.906 44.3654L175.406 36.0365L179.858 35.5863L178.008 45.3409C177.991 45.4909 177.966 45.666 177.932 45.8661C177.899 46.0662 177.882 46.2413 177.882 46.3914C177.882 46.6915 177.966 46.9666 178.133 47.2167C178.299 47.4502 178.566 47.5752 178.933 47.5919C178.833 47.9921 178.624 48.3173 178.308 48.5674C178.008 48.8175 177.657 49.0009 177.257 49.1176C176.874 49.2344 176.49 49.2927 176.107 49.2927C175.573 49.2927 175.089 49.176 174.656 48.9426C174.222 48.7091 173.939 48.3506 173.806 47.867C173.389 48.3339 172.822 48.6841 172.105 48.9175C171.404 49.1677 170.679 49.2927 169.929 49.2927ZM185.932 49.2927C185.398 49.2927 184.781 49.2427 184.081 49.1426C183.397 49.0426 182.73 48.8759 182.08 48.6424C181.446 48.409 180.904 48.1005 180.454 47.717L182.53 37.137L186.307 37.4122C186.724 36.8619 187.257 36.4117 187.908 36.0615C188.575 35.7114 189.325 35.5363 190.159 35.5363C191.059 35.5363 191.784 35.7447 192.335 36.1616C192.902 36.5618 193.31 37.1287 193.56 37.8624C193.81 38.596 193.935 39.4464 193.935 40.4136C193.935 41.6475 193.76 42.798 193.41 43.8652C193.077 44.9323 192.568 45.8744 191.884 46.6915C191.218 47.5085 190.384 48.1505 189.383 48.6174C188.383 49.0676 187.232 49.2927 185.932 49.2927ZM186.432 47.792C186.882 47.792 187.274 47.6169 187.607 47.2668C187.958 46.8999 188.266 46.4247 188.533 45.8411C188.8 45.2408 189.025 44.5905 189.208 43.8902C189.392 43.1732 189.525 42.4645 189.608 41.7642C189.692 41.0472 189.733 40.3969 189.733 39.8133C189.733 38.9962 189.658 38.3793 189.508 37.9624C189.358 37.5455 189.05 37.3371 188.583 37.3371C188.166 37.3371 187.808 37.4705 187.507 37.7373C187.207 37.9874 186.957 38.3209 186.757 38.7378C186.574 39.138 186.415 39.5632 186.282 40.0134C186.165 40.4636 186.073 40.8721 186.007 41.2389L184.881 47.2668C185.098 47.4502 185.348 47.5836 185.632 47.667C185.932 47.7503 186.199 47.792 186.432 47.792ZM186.307 37.9624L182.38 37.8374C182.53 37.137 182.664 36.4284 182.78 35.7114C182.897 34.9944 182.997 34.2857 183.08 33.5854C183.164 32.885 183.222 32.2431 183.255 31.6595C183.289 31.4427 183.297 31.2426 183.28 31.0592C183.28 30.8758 183.272 30.7007 183.255 30.5339C183.622 30.3172 184.006 30.1671 184.406 30.0837C184.806 29.9837 185.181 29.9337 185.532 29.9337C186.148 29.9337 186.665 30.0921 187.082 30.4089C187.516 30.7257 187.733 31.2593 187.733 32.0096C187.733 32.4598 187.666 33.0018 187.532 33.6354C187.416 34.269 187.249 34.9527 187.032 35.6863C186.815 36.42 186.574 37.1787 186.307 37.9624Z" fill="white"/>
<path d="M66.4909 58.8155L66.1952 57.9367C66.1332 57.7395 66.0431 57.6043 65.9248 57.5311C65.8065 57.4522 65.6403 57.4128 65.4262 57.4128H64.9615C64.9615 57.6381 64.9615 57.8804 64.9615 58.1395C64.9671 58.393 64.9728 58.624 64.9784 58.8324L65.5614 58.9507V59.2549H63.6349V58.9507L64.2264 58.8408C64.232 58.6268 64.2348 58.3958 64.2348 58.1479C64.2404 57.8944 64.2433 57.6719 64.2433 57.4804V57.0157C64.2433 56.8241 64.2404 56.6016 64.2348 56.3481C64.2348 56.0946 64.232 55.8637 64.2264 55.6552L63.6349 55.5454V55.2412H65.5614V55.5454L64.9784 55.6637C64.9728 55.8721 64.9671 56.1059 64.9615 56.365C64.9615 56.6241 64.9615 56.8551 64.9615 57.0579H65.3924C65.5896 57.0579 65.7614 57.0044 65.9079 56.8974C66.0543 56.7903 66.1811 56.5734 66.2881 56.2467C66.4177 55.8749 66.5613 55.6017 66.7191 55.4271C66.8824 55.2524 67.0993 55.1539 67.3697 55.1313C67.6119 55.1933 67.7331 55.3369 67.7331 55.5623C67.7274 55.6862 67.6824 55.7876 67.5979 55.8665C67.519 55.9397 67.3866 55.9763 67.2007 55.9763C67.1219 55.9763 67.0514 55.9735 66.9895 55.9679C66.9275 55.9622 66.8655 55.9566 66.8036 55.951C66.7754 56.0073 66.7444 56.0721 66.7106 56.1453C66.6825 56.2129 66.6543 56.2918 66.6261 56.3819C66.5529 56.6072 66.4599 56.7875 66.3473 56.9227C66.2402 57.0579 66.105 57.1621 65.9417 57.2354C66.2064 57.2917 66.4177 57.3931 66.5754 57.5396C66.7332 57.6804 66.8571 57.8832 66.9472 58.1479L67.1923 58.8493L67.8176 58.9507V59.2549C67.7331 59.2774 67.6429 59.2971 67.5472 59.314C67.4514 59.3366 67.3641 59.3478 67.2852 59.3478C67.0599 59.3478 66.8881 59.314 66.7698 59.2464C66.6515 59.1732 66.5585 59.0296 66.4909 58.8155ZM71.3663 59.3394C71.1635 59.3394 70.9945 59.2802 70.8593 59.1619C70.7241 59.0436 70.6396 58.8859 70.6058 58.6887C70.3748 58.9141 70.172 59.0831 69.9974 59.1957C69.8227 59.3084 69.6115 59.3647 69.3636 59.3647C69.0538 59.3647 68.7862 59.2774 68.5609 59.1028C68.3412 58.9225 68.2313 58.6578 68.2313 58.3085C68.2313 58.1451 68.268 57.993 68.3412 57.8522C68.4201 57.7114 68.5609 57.5734 68.7637 57.4382C68.9665 57.303 69.2566 57.1678 69.634 57.0326C69.7636 56.9875 69.9129 56.9396 70.0819 56.8889C70.2509 56.8382 70.4199 56.7931 70.5889 56.7537V56.5425C70.5889 56.1312 70.5269 55.858 70.403 55.7228C70.279 55.5876 70.0762 55.52 69.7946 55.52C69.7326 55.52 69.6622 55.5228 69.5833 55.5285C69.5101 55.5341 69.4284 55.5482 69.3383 55.5707L69.1777 56.12C69.0989 56.3904 68.9524 56.5256 68.7383 56.5256C68.5017 56.5256 68.3694 56.4101 68.3412 56.1791C68.4201 55.858 68.606 55.6045 68.8989 55.4186C69.1974 55.2271 69.5608 55.1313 69.9889 55.1313C70.4339 55.1313 70.7635 55.244 70.9776 55.4693C71.1916 55.689 71.2987 56.0665 71.2987 56.6016V58.4014C71.2987 58.5817 71.3268 58.7113 71.3832 58.7901C71.4395 58.8634 71.5127 58.9 71.6029 58.9C71.6761 58.9 71.7381 58.8831 71.7888 58.8493C71.8395 58.8155 71.8873 58.7704 71.9324 58.7141L72.1014 58.9C72 59.0634 71.8873 59.1788 71.7634 59.2464C71.6451 59.3084 71.5127 59.3394 71.3663 59.3394ZM68.9834 58.1817C68.9834 58.4071 69.0482 58.5676 69.1777 58.6634C69.3073 58.7592 69.4678 58.807 69.6594 58.807C69.7439 58.807 69.8227 58.7958 69.896 58.7732C69.9748 58.7507 70.0678 58.7085 70.1748 58.6465C70.2819 58.5789 70.4199 58.4831 70.5889 58.3592V57.0664C70.4424 57.1058 70.2988 57.1509 70.1579 57.2016C70.0171 57.2466 69.9016 57.2861 69.8115 57.3199C69.5692 57.4156 69.389 57.5142 69.2707 57.6156C69.1524 57.717 69.0735 57.8156 69.0341 57.9113C69.0003 58.0071 68.9834 58.0972 68.9834 58.1817ZM75.2345 57.0157C75.2345 56.8185 75.2317 56.5875 75.2261 56.3228C75.2261 56.058 75.2233 55.8186 75.2176 55.6045H74.398C74.336 56.2242 74.2093 56.8072 74.0177 57.3537C73.8262 57.9001 73.6009 58.4127 73.3418 58.8915H75.2176C75.2233 58.6775 75.2261 58.4409 75.2261 58.1817C75.2317 57.917 75.2345 57.6832 75.2345 57.4804V57.0157ZM73.308 55.5454V55.2412H76.5696V55.5454L75.9612 55.6637C75.9556 55.8721 75.95 56.1031 75.9443 56.3566C75.9443 56.6044 75.9443 56.8241 75.9443 57.0157V57.4804C75.9443 57.6832 75.9443 57.917 75.9443 58.1817C75.95 58.4409 75.9556 58.6775 75.9612 58.8915H76.6541L76.6034 60.5224H76.2147L76.0204 59.2549H72.9446L72.7503 60.5224H72.3531L72.3109 58.8915H72.7418C73.0516 58.4409 73.3108 57.9564 73.5192 57.4382C73.7333 56.9199 73.8797 56.3368 73.9586 55.689L73.308 55.5454ZM77.2404 61.2744V60.9787L77.9164 60.8604C77.922 60.6294 77.9248 60.3984 77.9248 60.1675C77.9305 59.9421 77.9333 59.7168 77.9333 59.4915V57.0748C77.9333 56.8438 77.9305 56.6523 77.9248 56.5002C77.9248 56.3481 77.9192 56.1876 77.9079 56.0186L77.2404 55.9425V55.6468L78.4234 55.1313L78.5501 55.2158L78.6008 55.7651C79.0008 55.3426 79.4261 55.1313 79.8768 55.1313C80.181 55.1313 80.4542 55.2158 80.6964 55.3848C80.9386 55.5538 81.1302 55.7961 81.271 56.1115C81.4175 56.4213 81.4907 56.796 81.4907 57.2354C81.4907 57.6691 81.4146 58.0465 81.2625 58.3676C81.1104 58.6831 80.902 58.9282 80.6373 59.1028C80.3781 59.2774 80.0824 59.3647 79.75 59.3647C79.5585 59.3647 79.367 59.3253 79.1754 59.2464C78.9895 59.1676 78.8064 59.0239 78.6262 58.8155V59.483C78.6262 59.7084 78.6262 59.9337 78.6262 60.159C78.6318 60.39 78.6374 60.621 78.6431 60.8519L79.412 60.9787V61.2744H77.2404ZM79.674 55.613C79.5444 55.613 79.3951 55.6468 79.2261 55.7144C79.0571 55.7763 78.8656 55.8975 78.6515 56.0777V58.4521C78.8093 58.6042 78.9642 58.7141 79.1163 58.7817C79.2684 58.8493 79.4233 58.8831 79.581 58.8831C79.8965 58.8831 80.1669 58.7563 80.3922 58.5028C80.6175 58.2493 80.7302 57.8494 80.7302 57.303C80.7302 56.7622 80.6316 56.3453 80.4345 56.0524C80.2373 55.7594 79.9838 55.613 79.674 55.613ZM84.1863 59.3647C83.8596 59.3647 83.5469 59.2887 83.2483 59.1366C82.9554 58.9789 82.716 58.7451 82.5301 58.4352C82.3442 58.1198 82.2513 57.7311 82.2513 57.2692C82.2513 56.8016 82.3442 56.4101 82.5301 56.0946C82.716 55.7735 82.9554 55.5341 83.2483 55.3764C83.5469 55.213 83.8596 55.1313 84.1863 55.1313C84.513 55.1313 84.8228 55.213 85.1158 55.3764C85.4143 55.5341 85.6566 55.7735 85.8425 56.0946C86.034 56.4101 86.1298 56.8016 86.1298 57.2692C86.1298 57.7311 86.034 58.1198 85.8425 58.4352C85.6566 58.7451 85.4143 58.9789 85.1158 59.1366C84.8228 59.2887 84.513 59.3647 84.1863 59.3647ZM84.1863 58.9845C84.5524 58.9845 84.8341 58.8408 85.0313 58.5535C85.2284 58.2606 85.327 57.8325 85.327 57.2692C85.327 56.7002 85.2284 56.2664 85.0313 55.9679C84.8341 55.6693 84.5524 55.52 84.1863 55.52C83.8201 55.52 83.5385 55.6693 83.3413 55.9679C83.1498 56.2664 83.054 56.7002 83.054 57.2692C83.054 57.8325 83.1498 58.2606 83.3413 58.5535C83.5385 58.8408 83.8201 58.9845 84.1863 58.9845ZM86.8803 55.5454V55.2412H89.0773C89.5111 55.2412 89.8406 55.3341 90.066 55.52C90.2969 55.7059 90.4124 55.9397 90.4124 56.2214C90.4124 56.4298 90.342 56.6241 90.2012 56.8044C90.066 56.979 89.8322 57.1002 89.4998 57.1678C89.8941 57.2241 90.1758 57.3452 90.3448 57.5311C90.5194 57.7114 90.6068 57.9254 90.6068 58.1733C90.6068 58.3479 90.5532 58.5197 90.4462 58.6887C90.3392 58.8521 90.1674 58.9873 89.9308 59.0943C89.6942 59.2014 89.3787 59.2549 88.9844 59.2549H86.8803V58.9507L87.4718 58.8408C87.4775 58.6268 87.4803 58.3958 87.4803 58.1479C87.4859 57.8944 87.4887 57.6719 87.4887 57.4804V57.0157C87.4887 56.8241 87.4859 56.6016 87.4803 56.3481C87.4803 56.0946 87.4775 55.8637 87.4718 55.6552L86.8803 55.5454ZM88.1985 57.4804C88.1985 57.6832 88.1985 57.917 88.1985 58.1817C88.2042 58.4409 88.2098 58.6775 88.2154 58.8915H88.8407C89.5224 58.8915 89.8632 58.6493 89.8632 58.1648C89.8632 57.9001 89.7787 57.6973 89.6097 57.5565C89.4407 57.4156 89.1675 57.3452 88.79 57.3452H88.1985V57.4804ZM88.8914 55.6045H88.2154C88.2098 55.8017 88.2042 56.0298 88.1985 56.289C88.1985 56.5425 88.1985 56.7847 88.1985 57.0157H88.7731C89.0999 57.0157 89.3365 56.9565 89.4829 56.8382C89.6294 56.7143 89.7026 56.5284 89.7026 56.2805C89.7026 56.0439 89.6322 55.8721 89.4914 55.7651C89.3562 55.658 89.1562 55.6045 88.8914 55.6045ZM93.1891 59.3647C92.8623 59.3647 92.5497 59.2887 92.2511 59.1366C91.9582 58.9789 91.7188 58.7451 91.5329 58.4352C91.347 58.1198 91.254 57.7311 91.254 57.2692C91.254 56.8016 91.347 56.4101 91.5329 56.0946C91.7188 55.7735 91.9582 55.5341 92.2511 55.3764C92.5497 55.213 92.8623 55.1313 93.1891 55.1313C93.5158 55.1313 93.8256 55.213 94.1185 55.3764C94.4171 55.5341 94.6593 55.7735 94.8452 56.0946C95.0368 56.4101 95.1325 56.8016 95.1325 57.2692C95.1325 57.7311 95.0368 58.1198 94.8452 58.4352C94.6593 58.7451 94.4171 58.9789 94.1185 59.1366C93.8256 59.2887 93.5158 59.3647 93.1891 59.3647ZM93.1891 58.9845C93.5552 58.9845 93.8369 58.8408 94.034 58.5535C94.2312 58.2606 94.3298 57.8325 94.3298 57.2692C94.3298 56.7002 94.2312 56.2664 94.034 55.9679C93.8369 55.6693 93.5552 55.52 93.1891 55.52C92.8229 55.52 92.5412 55.6693 92.3441 55.9679C92.1525 56.2664 92.0568 56.7002 92.0568 57.2692C92.0568 57.8325 92.1525 58.2606 92.3441 58.5535C92.5412 58.8408 92.8229 58.9845 93.1891 58.9845ZM97.7844 55.52C97.6266 55.52 97.4661 55.5651 97.3027 55.6552C97.145 55.7454 97.007 55.889 96.8887 56.0862C96.776 56.2833 96.7028 56.5453 96.669 56.872H98.2068C98.4096 56.872 98.542 56.8298 98.604 56.7453C98.6716 56.6608 98.7054 56.5565 98.7054 56.4326C98.7054 56.2692 98.6631 56.12 98.5786 55.9848C98.4998 55.8439 98.3899 55.7313 98.2491 55.6468C98.1139 55.5623 97.959 55.52 97.7844 55.52ZM97.7759 59.3647C97.2069 59.3647 96.7506 59.1817 96.407 58.8155C96.0634 58.4437 95.8916 57.9339 95.8916 57.2861C95.8916 56.8523 95.9789 56.4749 96.1535 56.1538C96.3338 55.8327 96.5704 55.582 96.8633 55.4017C97.1619 55.2215 97.4858 55.1313 97.8351 55.1313C98.128 55.1313 98.3927 55.1961 98.6293 55.3257C98.8659 55.4552 99.0547 55.6411 99.1955 55.8834C99.3363 56.12 99.4067 56.4101 99.4067 56.7537C99.4067 56.8495 99.4011 56.9396 99.3898 57.0241C99.3786 57.103 99.3645 57.1706 99.3476 57.2269H96.6521C96.6633 57.7452 96.7929 58.1395 97.0408 58.4099C97.2886 58.6803 97.6154 58.8155 98.021 58.8155C98.2913 58.8155 98.5167 58.762 98.6969 58.6549C98.8772 58.5423 99.0434 58.3986 99.1955 58.224L99.3983 58.3845C99.2406 58.6831 99.0265 58.9225 98.7561 59.1028C98.4857 59.2774 98.159 59.3647 97.7759 59.3647ZM105.306 59.3394C105.103 59.3394 104.934 59.2802 104.799 59.1619C104.664 59.0436 104.579 58.8859 104.546 58.6887C104.315 58.9141 104.112 59.0831 103.937 59.1957C103.763 59.3084 103.551 59.3647 103.304 59.3647C102.994 59.3647 102.726 59.2774 102.501 59.1028C102.281 58.9225 102.171 58.6578 102.171 58.3085C102.171 58.1451 102.208 57.993 102.281 57.8522C102.36 57.7114 102.501 57.5734 102.704 57.4382C102.906 57.303 103.196 57.1678 103.574 57.0326C103.703 56.9875 103.853 56.9396 104.022 56.8889C104.191 56.8382 104.36 56.7931 104.529 56.7537V56.5425C104.529 56.1312 104.467 55.858 104.343 55.7228C104.219 55.5876 104.016 55.52 103.734 55.52C103.673 55.52 103.602 55.5228 103.523 55.5285C103.45 55.5341 103.368 55.5482 103.278 55.5707L103.118 56.12C103.039 56.3904 102.892 56.5256 102.678 56.5256C102.442 56.5256 102.309 56.4101 102.281 56.1791C102.36 55.858 102.546 55.6045 102.839 55.4186C103.137 55.2271 103.501 55.1313 103.929 55.1313C104.374 55.1313 104.703 55.244 104.917 55.4693C105.132 55.689 105.239 56.0665 105.239 56.6016V58.4014C105.239 58.5817 105.267 58.7113 105.323 58.7901C105.379 58.8634 105.453 58.9 105.543 58.9C105.616 58.9 105.678 58.8831 105.729 58.8493C105.779 58.8155 105.827 58.7704 105.872 58.7141L106.041 58.9C105.94 59.0634 105.827 59.1788 105.703 59.2464C105.585 59.3084 105.453 59.3394 105.306 59.3394ZM102.923 58.1817C102.923 58.4071 102.988 58.5676 103.118 58.6634C103.247 58.7592 103.408 58.807 103.599 58.807C103.684 58.807 103.763 58.7958 103.836 58.7732C103.915 58.7507 104.008 58.7085 104.115 58.6465C104.222 58.5789 104.36 58.4831 104.529 58.3592V57.0664C104.382 57.1058 104.239 57.1509 104.098 57.2016C103.957 57.2466 103.842 57.2861 103.751 57.3199C103.509 57.4156 103.329 57.5142 103.211 57.6156C103.092 57.717 103.013 57.8156 102.974 57.9113C102.94 58.0071 102.923 58.0972 102.923 58.1817ZM106.421 55.5454V55.2412H109.589L109.657 56.6946H109.26L108.99 55.6045H107.764C107.759 55.8186 107.753 56.058 107.747 56.3228C107.747 56.5875 107.747 56.8185 107.747 57.0157V57.4804C107.747 57.6719 107.747 57.8944 107.747 58.1479C107.753 58.3958 107.759 58.624 107.764 58.8324L108.44 58.9507V59.2549H106.421V58.9507L107.012 58.8324C107.018 58.6183 107.021 58.3874 107.021 58.1395C107.026 57.8916 107.029 57.6719 107.029 57.4804V57.0157C107.029 56.8241 107.026 56.6016 107.021 56.3481C107.021 56.0946 107.018 55.8637 107.012 55.6552L106.421 55.5454ZM112.101 55.52C111.944 55.52 111.783 55.5651 111.62 55.6552C111.462 55.7454 111.324 55.889 111.206 56.0862C111.093 56.2833 111.02 56.5453 110.986 56.872H112.524C112.727 56.872 112.859 56.8298 112.921 56.7453C112.989 56.6608 113.022 56.5565 113.022 56.4326C113.022 56.2692 112.98 56.12 112.896 55.9848C112.817 55.8439 112.707 55.7313 112.566 55.6468C112.431 55.5623 112.276 55.52 112.101 55.52ZM112.093 59.3647C111.524 59.3647 111.068 59.1817 110.724 58.8155C110.38 58.4437 110.209 57.9339 110.209 57.2861C110.209 56.8523 110.296 56.4749 110.471 56.1538C110.651 55.8327 110.887 55.582 111.18 55.4017C111.479 55.2215 111.803 55.1313 112.152 55.1313C112.445 55.1313 112.71 55.1961 112.946 55.3257C113.183 55.4552 113.372 55.6411 113.512 55.8834C113.653 56.12 113.724 56.4101 113.724 56.7537C113.724 56.8495 113.718 56.9396 113.707 57.0241C113.696 57.103 113.681 57.1706 113.665 57.2269H110.969C110.98 57.7452 111.11 58.1395 111.358 58.4099C111.606 58.6803 111.932 58.8155 112.338 58.8155C112.608 58.8155 112.834 58.762 113.014 58.6549C113.194 58.5423 113.36 58.3986 113.512 58.224L113.715 58.3845C113.558 58.6831 113.343 58.9225 113.073 59.1028C112.803 59.2774 112.476 59.3647 112.093 59.3647ZM117.178 55.5454V55.2412H119.113V55.5454L118.521 55.6637C118.516 55.8721 118.51 56.1031 118.504 56.3566C118.504 56.6044 118.504 56.8241 118.504 57.0157V57.4804C118.504 57.6719 118.504 57.8916 118.504 58.1395C118.51 58.3874 118.516 58.6183 118.521 58.8324L119.113 58.9507V59.2549H117.178V58.9507L117.769 58.8408C117.775 58.6324 117.778 58.3958 117.778 58.131C117.783 57.8606 117.786 57.5959 117.786 57.3368H115.834C115.834 57.5959 115.834 57.8578 115.834 58.1226C115.84 58.3874 115.845 58.624 115.851 58.8324L116.434 58.9507V59.2549H114.508V58.9507L115.099 58.8408C115.105 58.6268 115.108 58.3958 115.108 58.1479C115.113 57.8944 115.116 57.6719 115.116 57.4804V57.0157C115.116 56.8241 115.113 56.6016 115.108 56.3481C115.108 56.0946 115.105 55.8637 115.099 55.6552L114.508 55.5454V55.2412H116.434V55.5454L115.851 55.6637C115.845 55.8665 115.84 56.089 115.834 56.3312C115.834 56.5678 115.834 56.7819 115.834 56.9734H117.786C117.786 56.7762 117.783 56.5594 117.778 56.3228C117.778 56.0805 117.775 55.858 117.769 55.6552L117.178 55.5454ZM121.657 59.3647C121.076 59.3647 120.614 59.176 120.271 58.7986C119.927 58.4212 119.755 57.9085 119.755 57.2607C119.755 56.8157 119.845 56.4354 120.026 56.12C120.212 55.7989 120.454 55.5538 120.752 55.3848C121.051 55.2158 121.369 55.1313 121.707 55.1313C121.961 55.1313 122.195 55.1792 122.409 55.275C122.623 55.3707 122.8 55.5031 122.941 55.6721C123.082 55.8355 123.169 56.0214 123.203 56.2298C123.163 56.4439 123.034 56.5509 122.814 56.5509C122.673 56.5509 122.566 56.5143 122.493 56.4411C122.426 56.3622 122.378 56.2636 122.349 56.1453L122.197 55.5876C122.119 55.5595 122.04 55.5426 121.961 55.5369C121.888 55.5257 121.814 55.52 121.741 55.52C121.381 55.52 121.082 55.6609 120.845 55.9425C120.614 56.2242 120.499 56.6354 120.499 57.1762C120.499 57.7057 120.626 58.1113 120.879 58.393C121.133 58.6747 121.457 58.8155 121.851 58.8155C122.093 58.8155 122.316 58.762 122.518 58.6549C122.721 58.5423 122.887 58.3817 123.017 58.1733L123.228 58.2831C123.11 58.6324 122.918 58.9 122.654 59.0859C122.389 59.2718 122.057 59.3647 121.657 59.3647ZM123.738 56.6101L123.805 55.2412H127.709L127.777 56.6101H127.388L127.151 55.6045H126.129C126.123 55.8186 126.118 56.058 126.112 56.3228C126.112 56.5875 126.112 56.8185 126.112 57.0157V57.4804C126.112 57.6719 126.112 57.8916 126.112 58.1395C126.118 58.3874 126.123 58.6183 126.129 58.8324L126.805 58.9507V59.2549H124.709V58.9507L125.385 58.8324C125.391 58.6183 125.394 58.3874 125.394 58.1395C125.399 57.8916 125.402 57.6719 125.402 57.4804V57.0157C125.402 56.8185 125.399 56.5875 125.394 56.3228C125.394 56.058 125.391 55.8186 125.385 55.6045H124.363L124.126 56.6101H123.738ZM128.362 55.5454V55.2412H130.559C130.993 55.2412 131.323 55.3341 131.548 55.52C131.779 55.7059 131.895 55.9397 131.895 56.2214C131.895 56.4298 131.824 56.6241 131.683 56.8044C131.548 56.979 131.314 57.1002 130.982 57.1678C131.376 57.2241 131.658 57.3452 131.827 57.5311C132.002 57.7114 132.089 57.9254 132.089 58.1733C132.089 58.3479 132.035 58.5197 131.928 58.6887C131.821 58.8521 131.649 58.9873 131.413 59.0943C131.176 59.2014 130.861 59.2549 130.466 59.2549H128.362V58.9507L128.954 58.8408C128.96 58.6268 128.962 58.3958 128.962 58.1479C128.968 57.8944 128.971 57.6719 128.971 57.4804V57.0157C128.971 56.8241 128.968 56.6016 128.962 56.3481C128.962 56.0946 128.96 55.8637 128.954 55.6552L128.362 55.5454ZM129.681 57.4804C129.681 57.6832 129.681 57.917 129.681 58.1817C129.686 58.4409 129.692 58.6775 129.698 58.8915H130.323C131.004 58.8915 131.345 58.6493 131.345 58.1648C131.345 57.9001 131.261 57.6973 131.092 57.5565C130.923 57.4156 130.65 57.3452 130.272 57.3452H129.681V57.4804ZM130.374 55.6045H129.698C129.692 55.8017 129.686 56.0298 129.681 56.289C129.681 56.5425 129.681 56.7847 129.681 57.0157H130.255C130.582 57.0157 130.819 56.9565 130.965 56.8382C131.111 56.7143 131.185 56.5284 131.185 56.2805C131.185 56.0439 131.114 55.8721 130.973 55.7651C130.838 55.658 130.638 55.6045 130.374 55.6045ZM134.671 59.3647C134.344 59.3647 134.032 59.2887 133.733 59.1366C133.44 58.9789 133.201 58.7451 133.015 58.4352C132.829 58.1198 132.736 57.7311 132.736 57.2692C132.736 56.8016 132.829 56.4101 133.015 56.0946C133.201 55.7735 133.44 55.5341 133.733 55.3764C134.032 55.213 134.344 55.1313 134.671 55.1313C134.998 55.1313 135.308 55.213 135.601 55.3764C135.899 55.5341 136.141 55.7735 136.327 56.0946C136.519 56.4101 136.615 56.8016 136.615 57.2692C136.615 57.7311 136.519 58.1198 136.327 58.4352C136.141 58.7451 135.899 58.9789 135.601 59.1366C135.308 59.2887 134.998 59.3647 134.671 59.3647ZM134.671 58.9845C135.037 58.9845 135.319 58.8408 135.516 58.5535C135.713 58.2606 135.812 57.8325 135.812 57.2692C135.812 56.7002 135.713 56.2664 135.516 55.9679C135.319 55.6693 135.037 55.52 134.671 55.52C134.305 55.52 134.023 55.6693 133.826 55.9679C133.635 56.2664 133.539 56.7002 133.539 57.2692C133.539 57.8325 133.635 58.2606 133.826 58.5535C134.023 58.8408 134.305 58.9845 134.671 58.9845Z" fill="white"/>
<path d="M8.32666 23.2781C66.4798 9.39357 127.076 9.47362 185.16 23.4938" stroke="white" stroke-width="2.11248" stroke-miterlimit="10" stroke-linecap="round"/>
<path d="M186.497 20.4204L190.817 26.3565L183.886 26.0663L186.497 20.4204Z" stroke="white" stroke-width="2.11248" stroke-linecap="round" stroke-linejoin="round"/>
<path d="M186.016 20.3831C185.519 20.5988 186.238 21.943 185.493 23.494C184.726 25.0906 183.119 25.4219 183.269 25.94C183.366 26.2736 184.073 26.2791 186.716 26.3847C189.567 26.4982 190.176 26.5504 190.385 26.1624C190.501 25.9489 190.504 25.5842 189.162 23.7164C187.789 21.8062 186.588 20.134 186.016 20.3831Z" fill="white" stroke="white" stroke-width="0.778281" stroke-linecap="round" stroke-linejoin="round"/>
<path d="M189.683 59.5151C159.017 67.0656 129.843 70.1465 100.66 70.241C71.478 70.2121 42.2869 67.1979 11.5948 59.7108" stroke="white" stroke-width="2.11248" stroke-miterlimit="10" stroke-linecap="round"/>
<path d="M13.8586 56.9603L6.87854 56.9014L10.9378 62.3894L13.8586 56.9603Z" fill="white" stroke="white" stroke-width="2.11248" stroke-linecap="round" stroke-linejoin="round"/>
<path d="M14.1543 57.3319C14.2622 57.8645 12.8246 58.0613 12.0385 59.5767C11.2291 61.1355 11.8617 62.6398 11.3781 62.821C11.0668 62.9377 10.671 62.3629 9.12664 60.2671C7.46112 58.0068 7.08421 57.5398 7.26877 57.1418C7.36995 56.9239 7.64902 56.707 9.8371 56.7115C12.0741 56.7159 14.0309 56.7193 14.1554 57.3319H14.1543Z" fill="white" stroke="white" stroke-width="0.778281" stroke-linecap="round" stroke-linejoin="round"/>
</svg>
