<svg width="125" height="185" viewBox="0 0 125 185" fill="none" xmlns="http://www.w3.org/2000/svg">
<path d="M41.2856 118.555C32.3023 121.197 19.3921 124.86 11.6211 137.096C11.0927 137.931 1.58623 153.291 6.67881 164.906C18.3508 191.54 103.474 191.068 114.835 164.29C118.861 154.804 113.576 142.137 108.655 135.242C100.889 124.362 89.2532 121.233 79.6068 118.555C60.4125 113.219 44.6841 117.555 41.2907 118.555H41.2856Z" fill="#AD975E"/>
<path d="M44.9951 1.23378C39.2757 2.06787 20.0192 8.4038 8.53368 28.2405C-4.0035 49.8853 -2.69279 80.964 12.243 99.1326C13.9837 101.251 27.2825 117.021 41.9074 114.659C49.7561 113.39 51.2792 107.981 59.8325 107.23C71.1159 106.24 74.9134 115.105 84.5545 116.006C98.6459 117.327 112.136 100.423 117.928 88.9992C130.611 63.9922 123.959 30.52 107.422 14.0559C99.1899 5.86528 88.1137 1.48245 81.4669 0.555117C76.996 -0.0717424 73.8099 -0.517279 70.344 1.2286C67.5672 2.62738 66.3549 4.55976 63.547 4.60639C61.0033 4.64783 59.7237 3.104 57.3665 1.90727C53.5794 -0.019936 50.0618 0.492948 45.0055 1.23378H44.9951Z" fill="#9E8169"/>
<path d="M20.2727 62.3133C19.7805 63.4686 18.9361 66.0848 18.418 69.1103C16.5478 80.0467 20.2105 88.859 21.5057 91.9777C22.7024 94.853 30.8308 114.415 51.7866 119.171C70.9135 123.512 85.668 112.105 87.6315 110.519C102.821 98.236 109.67 75.1717 101.847 61.0752C87.2274 34.7471 27.2562 45.9632 20.2675 62.3133H20.2727Z" fill="#7F6552"/>
<path d="M46.6787 98.78C44.5183 102.868 48.3209 106.152 45.4819 112.996C43.8138 117.026 41.296 118.751 41.8969 121.647C42.1404 122.829 42.959 124.481 46.6735 126.59C58.159 133.107 70.8257 128.926 74.1517 127.828C79.3375 126.113 80.384 124.657 80.7207 123.502C81.5393 120.694 77.7263 119.518 76.5399 113.612C75.4676 108.281 76.5658 103.779 77.1357 103.106C77.2082 103.023 77.6331 102.567 77.7315 101.868C77.7729 101.598 77.747 101.386 77.7315 101.251C77.602 100.21 77.2134 98.9561 77.1357 98.78C73.7061 91.18 51.077 90.4599 46.6735 98.78H46.6787Z" fill="#E0B2A6"/>
<path d="M78.3639 100.391C78.9856 103.546 70.1215 110.478 61.0605 110.52C54.4189 110.551 46.4718 106.95 45.6118 102.562C45.5393 102.189 45.4616 101.764 45.6118 101.251C46.6013 97.8892 55.3359 97.8478 61.0605 97.8633C70.8986 97.8892 77.8665 97.8737 78.3639 100.397V100.391Z" fill="#876564"/>
<path d="M61.6767 106.194C81.8138 106.194 98.1382 85.7175 98.1382 60.4589C98.1382 35.2003 81.8138 14.7241 61.6767 14.7241C41.5397 14.7241 25.2153 35.2003 25.2153 60.4589C25.2153 85.7175 41.5397 106.194 61.6767 106.194Z" fill="#E0B2A6"/>
<path d="M26.1427 69.7321C31.0926 69.7321 35.1052 64.889 35.1052 58.9149C35.1052 52.9407 31.0926 48.0977 26.1427 48.0977C21.1928 48.0977 17.1802 52.9407 17.1802 58.9149C17.1802 64.889 21.1928 69.7321 26.1427 69.7321Z" fill="#E0B2A6"/>
<path d="M97.2159 69.7321C102.166 69.7321 106.178 64.889 106.178 58.9149C106.178 52.9407 102.166 48.0977 97.2159 48.0977C92.2661 48.0977 88.2534 52.9407 88.2534 58.9149C88.2534 64.889 92.2661 69.7321 97.2159 69.7321Z" fill="#E0B2A6"/>
<path d="M72.8047 70.3486C74.1695 70.3486 75.2758 68.6879 75.2758 66.6393C75.2758 64.5907 74.1695 62.9299 72.8047 62.9299C71.4399 62.9299 70.3335 64.5907 70.3335 66.6393C70.3335 68.6879 71.4399 70.3486 72.8047 70.3486Z" fill="#331F19"/>
<path d="M48.0825 70.3486C49.4473 70.3486 50.5537 68.6879 50.5537 66.6393C50.5537 64.5907 49.4473 62.9299 48.0825 62.9299C46.7177 62.9299 45.6113 64.5907 45.6113 66.6393C45.6113 68.6879 46.7177 70.3486 48.0825 70.3486Z" fill="#331F19"/>
<path d="M55.8071 88.5793C56.0662 88.8539 57.6255 90.434 60.133 90.434C62.6404 90.434 64.1998 88.8539 64.4588 88.5793" stroke="#331F19" stroke-width="0.518065" stroke-miterlimit="10" stroke-linecap="round"/>
<path d="M22.1279 54.8999C22.2315 54.501 23.7598 54.2161 24.599 54.8999C25.8476 55.9153 24.9824 58.5885 24.599 58.6092C24.3348 58.6248 24.4281 57.3762 23.3609 56.1381C22.677 55.3454 22.0553 55.1745 22.1227 54.8999H22.1279Z" fill="#876564"/>
<path d="M101.226 55.9307C101.106 55.5317 99.3865 55.2468 98.4385 55.9307C97.0345 56.9461 98.0085 59.6193 98.4385 59.64C98.7337 59.6555 98.6353 58.407 99.832 57.1688C100.599 56.3762 101.303 56.2052 101.226 55.9307Z" fill="#876564"/>
<path d="M45.4612 113.612C43.8138 112.229 38.0529 114.203 36.3899 117.938C35.0688 120.907 36.7629 124.124 37.0737 124.735C40.3634 131.185 47.7355 129.336 51.7868 135.858C54.289 139.888 53.3513 143.696 54.8745 143.893C55.8018 144.012 57.3612 140.883 60.4385 134.625C61.5368 132.392 62.5781 130.164 61.6766 129.061C61.2777 128.574 60.6457 128.481 60.3659 128.444C58.4854 128.18 52.9058 126.994 50.0927 124.735C47.6941 122.813 46.1969 118.99 45.9845 116.083C45.8912 114.819 46.0466 114.099 45.4664 113.612H45.4612Z" fill="#E5DEBE"/>
<path d="M76.2346 113.529C77.7733 112.141 83.1456 114.12 84.6998 117.86C85.881 120.704 84.5133 123.689 84.0626 124.668C80.7314 131.858 72.774 131.03 70.3339 137.713C69.1371 140.997 70.194 143.562 69.0957 143.893C68.0026 144.225 66.3033 141.22 62.9152 135.241C61.2522 132.309 60.2212 130.18 61.0605 129.061C61.4283 128.569 62.0293 128.45 62.3246 128.382C63.8684 128.051 69.3133 126.906 71.914 124.668C74.152 122.746 75.5456 118.917 75.7476 116C75.8357 114.736 75.6855 114.016 76.2294 113.524L76.2346 113.529Z" fill="#E5DEBE"/>
<path d="M61.371 150.69C62.2236 150.69 62.9148 149.999 62.9148 149.146C62.9148 148.294 62.2236 147.603 61.371 147.603C60.5183 147.603 59.8271 148.294 59.8271 149.146C59.8271 149.999 60.5183 150.69 61.371 150.69Z" fill="#1E1C15"/>
<path d="M61.371 159.964C62.2236 159.964 62.9148 159.273 62.9148 158.42C62.9148 157.567 62.2236 156.876 61.371 156.876C60.5183 156.876 59.8271 157.567 59.8271 158.42C59.8271 159.273 60.5183 159.964 61.371 159.964Z" fill="#1E1C15"/>
<path d="M85.1656 15.3458C72.1569 6.62675 52.859 4.6322 38.8143 14.1076C26.6346 22.3241 18.5838 39.0473 23.3656 46.2432C25.3498 49.2324 30.059 50.0095 39.4359 51.8072C39.4463 51.8072 39.4567 51.8072 39.467 51.8124L45 41.3009L46.5127 52.9159C54.2992 53.8691 59.9254 53.7033 61.0652 53.6619C64.4533 53.5427 68.0435 53.4132 71.6337 53.1956L70.955 46.2432L74.5556 52.9988C87.1912 52.0507 99.1792 49.7453 101.852 42.5338C105.075 33.8407 94.0815 21.3191 85.1656 15.3406V15.3458Z" fill="#9E8169"/>
<path d="M43.1401 55.3299C43.3681 55.1123 44.9586 53.6151 47.036 54.1072C48.269 54.4025 49.0564 55.247 49.3725 55.6304" stroke="#7F6552" stroke-width="1.03613" stroke-miterlimit="10" stroke-linecap="round"/>
<path d="M71.9189 55.211C72.1469 54.9934 73.7373 53.4962 75.8148 53.9884C77.0478 54.2836 77.8352 55.1281 78.1513 55.5115" stroke="#7F6552" stroke-width="1.03613" stroke-miterlimit="10" stroke-linecap="round"/>
<path d="M38.0894 80.5959L39.6332 78.4304" stroke="#A56B6B" stroke-width="0.518065" stroke-miterlimit="10" stroke-linecap="round"/>
<path d="M40.1201 80.3836L42.1043 77.814" stroke="#A56B6B" stroke-width="0.518065" stroke-miterlimit="10" stroke-linecap="round"/>
</svg>
