<svg width="112" height="179" viewBox="0 0 112 179" fill="none" xmlns="http://www.w3.org/2000/svg">
<path d="M36.102 113.229C27.1187 115.845 14.2086 119.466 6.43758 131.568C5.90915 132.392 -3.59737 147.582 1.49521 159.072C13.1672 185.411 98.2905 184.945 109.652 158.461C113.677 149.079 108.393 136.552 103.471 129.734C95.7053 118.974 84.0696 115.881 74.4233 113.229C55.2289 107.955 39.5005 112.239 36.1072 113.229H36.102Z" fill="#3B5136"/>
<path d="M54.6433 2.49244C51.7577 2.79292 49.53 2.01064 49.0793 1.87594C44.6602 0.518612 32.7085 5.83914 24.8028 13.6878C15.8247 22.6037 7.97091 38.6845 12.2812 56.4282C17.0785 76.1717 33.7498 84.7664 36.1018 85.9268C50.7475 93.1642 69.4445 92.3508 83.6913 81.601C98.0883 70.7372 104.352 52.4184 100.72 36.1459C94.6639 8.9838 63.6318 -0.880165 58.9692 1.25944C58.6791 1.39414 57.0109 2.24895 54.6433 2.49762V2.49244Z" fill="#967956"/>
<path d="M41.92 92.7241C39.8633 96.8116 43.4794 100.096 40.7854 106.94C39.195 110.97 36.8067 112.695 37.3766 115.591C37.6097 116.773 38.3868 118.425 41.9252 120.534C52.8512 127.051 64.9014 122.87 68.0667 121.772C73.0039 120.057 73.9986 118.601 74.3198 117.446C75.0969 114.638 71.4704 113.462 70.3411 107.556C69.3205 102.225 70.3618 97.7234 70.9109 97.0499C70.9783 96.967 71.3823 96.5111 71.4808 95.8118C71.517 95.5424 71.4963 95.33 71.4808 95.1953C71.3564 94.1539 70.9886 92.9002 70.9109 92.7241C67.6471 85.1241 46.1164 84.404 41.9304 92.7241H41.92Z" fill="#E9C0AD"/>
<path d="M72.0655 94.3405C72.6613 97.4955 64.222 104.427 55.6014 104.469C49.281 104.5 41.7173 100.899 40.9039 96.5111C40.8366 96.1381 40.7589 95.7133 40.9039 95.2004C41.8468 91.8382 50.1566 91.7968 55.6014 91.8123C64.9577 91.8382 71.5889 91.8227 72.0655 94.3456V94.3405Z" fill="#896A64"/>
<path d="M56.1921 100.142C75.3506 100.142 90.8817 79.6663 90.8817 54.4076C90.8817 29.149 75.3506 8.67285 56.1921 8.67285C37.0335 8.67285 21.5024 29.149 21.5024 54.4076C21.5024 79.6663 37.0335 100.142 56.1921 100.142Z" fill="#E9C0AD"/>
<path d="M22.3834 63.6813C27.0929 63.6813 30.9107 58.8383 30.9107 52.8641C30.9107 46.8899 27.0929 42.0469 22.3834 42.0469C17.6738 42.0469 13.856 46.8899 13.856 52.8641C13.856 58.8383 17.6738 63.6813 22.3834 63.6813Z" fill="#E9C0AD"/>
<path d="M90.001 63.6813C94.7105 63.6813 98.5284 58.8383 98.5284 52.8641C98.5284 46.8899 94.7105 42.0469 90.001 42.0469C85.2914 42.0469 81.4736 46.8899 81.4736 52.8641C81.4736 58.8383 85.2914 63.6813 90.001 63.6813Z" fill="#E9C0AD"/>
<path d="M68.0093 64.2976C69.3082 64.2976 70.3613 62.6369 70.3613 60.5883C70.3613 58.5396 69.3082 56.8789 68.0093 56.8789C66.7103 56.8789 65.6572 58.5396 65.6572 60.5883C65.6572 62.6369 66.7103 64.2976 68.0093 64.2976Z" fill="#331F19"/>
<path d="M41.4018 64.2976C42.7008 64.2976 43.7539 62.6369 43.7539 60.5883C43.7539 58.5396 42.7008 56.8789 41.4018 56.8789C40.1029 56.8789 39.0498 58.5396 39.0498 60.5883C39.0498 62.6369 40.1029 64.2976 41.4018 64.2976Z" fill="#331F19"/>
<path d="M50.603 82.5286C50.8517 82.8031 52.3333 84.3832 54.7164 84.3832C57.0995 84.3832 58.5864 82.8031 58.8299 82.5286" stroke="#331F19" stroke-width="0.518065" stroke-miterlimit="10" stroke-linecap="round"/>
<path d="M65.9321 49.1597C66.1497 48.9421 67.6625 47.4449 69.6415 47.9371C70.8123 48.2324 71.5635 49.0768 71.8639 49.4602" stroke="#331F19" stroke-width="1.03613" stroke-miterlimit="10" stroke-linecap="round"/>
<path d="M38.5522 49.2789C38.7698 49.0613 40.2826 47.5641 42.2616 48.0562C43.4324 48.3515 44.1836 49.196 44.4841 49.5793" stroke="#331F19" stroke-width="1.03613" stroke-miterlimit="10" stroke-linecap="round"/>
<path d="M17.9696 53.7915C18.068 53.3926 19.5237 53.1077 20.3215 53.7915C21.5079 54.8069 20.6842 57.4801 20.3215 57.5008C20.0729 57.5164 20.1558 56.2678 19.1456 55.0297C18.498 54.237 17.9022 54.0661 17.9696 53.7915Z" fill="#896A64"/>
<path d="M93.8142 52.9675C93.7002 52.5686 92.0631 52.2837 91.1617 52.9675C89.8251 53.9829 90.7524 56.6561 91.1617 56.6769C91.4466 56.6924 91.3482 55.4439 92.4879 54.2057C93.2184 53.4131 93.8919 53.2421 93.8142 52.9675Z" fill="#896A64"/>
<path d="M32.6724 71.7111L34.1385 69.5508" stroke="#A37655" stroke-width="0.518065" stroke-miterlimit="10" stroke-linecap="round"/>
<path d="M34.6045 71.4988L36.4903 68.9292" stroke="#A37655" stroke-width="0.518065" stroke-miterlimit="10" stroke-linecap="round"/>
<path d="M36.9721 110.649C39.0288 112.887 41.8005 115.519 45.3751 118.068C49.0016 120.648 52.4415 122.414 55.265 123.632C53.9077 127.75 52.5555 131.874 51.1982 135.993C42.0077 134.169 35.2677 128.16 34.2626 121.16C33.5632 116.296 35.8323 112.348 36.9721 110.654V110.649Z" fill="white"/>
<path d="M73.4495 110.649C70.8851 113.136 67.7249 115.861 63.9119 118.524C60.8709 120.648 58.8142 121.839 57.7366 122.409C56.7212 122.943 55.8612 123.352 55.2603 123.632C56.6072 127.828 57.9542 132.029 59.3011 136.226C68.4346 134.387 75.1384 128.32 76.1434 121.254C76.8376 116.342 74.5841 112.359 73.4495 110.649Z" fill="white"/>
<path d="M55.5709 139.075C56.0831 139.075 56.4983 138.66 56.4983 138.148C56.4983 137.636 56.0831 137.221 55.5709 137.221C55.0588 137.221 54.6436 137.636 54.6436 138.148C54.6436 138.66 55.0588 139.075 55.5709 139.075Z" fill="black"/>
<path d="M55.5709 145.256C56.0831 145.256 56.4983 144.84 56.4983 144.328C56.4983 143.816 56.0831 143.401 55.5709 143.401C55.0588 143.401 54.6436 143.816 54.6436 144.328C54.6436 144.84 55.0588 145.256 55.5709 145.256Z" fill="black"/>
<path d="M55.5709 151.436C56.0831 151.436 56.4983 151.021 56.4983 150.509C56.4983 149.997 56.0831 149.582 55.5709 149.582C55.0588 149.582 54.6436 149.997 54.6436 150.509C54.6436 151.021 55.0588 151.436 55.5709 151.436Z" fill="black"/>
<path d="M55.5709 157.617C56.0831 157.617 56.4983 157.201 56.4983 156.689C56.4983 156.177 56.0831 155.762 55.5709 155.762C55.0588 155.762 54.6436 156.177 54.6436 156.689C54.6436 157.201 55.0588 157.617 55.5709 157.617Z" fill="black"/>
<path d="M15.7112 37.7208C12.9603 44.8546 12.3748 48.7194 13.8565 50.6984C15.9339 53.47 20.7831 53.7083 23.7464 53.1695C26.3989 52.6877 28.2069 51.4651 29.3104 50.6984C31.7868 48.9784 31.7971 48.0096 37.9621 39.5755C39.5992 37.3375 40.0654 36.6536 40.7441 35.3118C42.1999 32.4262 42.0703 30.9238 44.7591 28.4526C48.427 25.08 49.888 27.0901 57.7367 22.2721C60.5083 20.5729 62.1972 19.1689 63.9171 19.801C65.6319 20.4278 65.6941 22.4535 67.0048 25.365C67.6213 26.7327 68.2792 27.7636 68.9631 28.6081C72.1233 32.5091 74.4235 34.312 76.8947 37.1095C81.8474 42.7202 79.2259 46.5072 83.0752 49.4706C87.2663 52.6981 95.5295 52.1593 98.5239 48.2324C103.316 41.9586 94.5451 27.1989 86.7793 19.1845C83.4948 15.7911 75.0452 7.37776 61.4408 5.59043C41.5782 2.9742 27.9427 16.2781 25.5959 18.568C20.9385 23.1114 19.3895 28.1729 15.706 37.726L15.7112 37.7208Z" fill="#AD906A"/>
<path d="M53.4623 1.9589C50.4057 2.12986 48.2195 0.813975 47.2455 0.404704C40.3656 -2.46538 22.3059 10.2324 13.5713 28.8983C8.48388 39.7725 8.81026 47.8698 10.981 51.6931C11.4006 52.4288 12.7579 54.5321 13.5713 54.2835C14.6074 53.9623 13.535 50.2167 15.1255 49.1028C16.804 47.9268 19.3995 51.1233 21.8603 51.1751C29.7349 51.3409 29.4033 19.1587 46.2094 10.2479C55.1926 5.48174 65.6006 9.21181 68.4862 10.2479C78.92 13.9884 84.023 22.2308 92.3172 35.6331C95.8556 41.3474 97.8087 44.5024 97.4978 48.0667C97.4357 48.7713 97.1766 50.7347 98.0159 51.1751C99.0209 51.7087 101.01 49.7297 101.124 49.6209C104.932 45.8442 102.3 34.4934 98.0159 26.308C92.742 16.2368 84.9503 10.9214 80.9197 8.17568C80.9197 8.17568 75.2314 4.30055 66.4139 1.44083C63.2382 0.409885 61.5027 0.181936 59.6791 0.404704C56.98 0.736266 56.0423 1.81384 53.4623 1.9589Z" fill="#AD906A"/>
</svg>
