<svg width="137" height="186" viewBox="0 0 137 186" fill="none" xmlns="http://www.w3.org/2000/svg">
<path d="M79.669 4.44098C78.9799 4.34255 77.4931 4.19231 75.8301 3.524C74.7007 3.06811 73.592 2.49823 72.0793 1.92836C72.0793 1.92836 66.106 -0.335582 58.1693 0.0426056C45.974 0.622838 37.1876 9.53356 34.7734 11.984C31.178 15.6312 28.3909 19.869 24.9457 25.1014C22.8217 28.329 21.2416 31.0384 20.2314 32.7843C17.5789 37.3485 15.0766 41.664 13.2737 45.9276C10.5746 52.3154 9.99952 57.3302 8.84942 67.2978C7.94798 75.1102 8.45054 75.5454 7.58537 85.5285C7.33152 88.4349 6.56995 96.7602 4.98467 106.531C2.07315 124.497 -0.00947301 124.658 0.000888296 133.139C0.000888296 137.9 -0.190791 147.639 5.05721 156.446C7.08802 159.85 13.4395 169.263 32.2453 175.869C59.6975 185.51 103.049 185.437 125.202 159.037C134.941 147.427 135.952 132.491 135.952 132.491C136.319 129.466 137.563 119.244 134.055 108.784C132.367 103.754 130.693 98.7236 128.999 93.6984C128.326 91.7039 127.694 89.8336 127.103 87.1708C126.657 85.1659 126.01 81.7052 125.839 76.7266C125.637 70.9087 126.295 69.0489 126.471 64.1532C126.709 57.6618 125.849 52.7557 125.207 49.0671C124.44 44.6636 122.269 34.6183 115.721 23.2934C110.696 14.6054 106.836 7.92238 99.2777 5.06266C95.3197 3.56545 91.9057 2.27029 87.8958 3.1769C85.6008 3.69496 83.1607 4.9176 79.6741 4.4358L79.669 4.44098Z" fill="#B2653F"/>
<path d="M24.0955 58.0966C23.9452 58.5318 23.8416 58.8996 23.795 59.2882C23.1681 64.1787 24.8778 68.2196 25.3337 69.2195C28.2089 75.5347 31.8405 100.873 22.246 119.28C19.2826 124.968 17.8735 124.58 15.4489 130.403C11.2992 140.365 11.3718 151.188 12.9778 156.358C20.7954 181.577 101.987 192.286 119.28 163.155C123.481 156.073 124.528 145.572 122.989 137.2C120.725 124.891 113.462 120.601 108.773 101.972C107.665 97.5732 106.732 93.8483 106.468 88.6418C105.566 70.8825 113.954 64.8626 111.866 58.0915C106.25 39.8711 31.3173 37.3792 24.1059 58.0915L24.0955 58.0966Z" fill="#703C25"/>
<path d="M49.9004 118.25C36.6172 120.534 28.5406 133.621 25.9503 137.822C21.899 144.381 14.6876 156.073 18.6456 165.798C25.0126 181.433 55.6924 180.764 69.2087 180.469C85.3309 180.117 110.286 179.573 116.316 165.166C121.673 152.369 108.97 136.138 106.908 133.501C104.251 130.103 96.5211 120.229 84.502 118.255C79.4612 117.426 78.3526 118.762 64.8829 118.669C53.3508 118.591 53.646 117.612 49.9004 118.255V118.25Z" fill="#DDBBA4"/>
<path d="M54.4489 97.6511C52.4958 101.739 55.9306 105.023 53.3713 111.867C51.8638 115.897 49.5946 117.622 50.1386 120.518C50.3614 121.7 51.097 123.352 54.4541 125.461C64.8206 131.978 76.2543 127.797 79.2539 126.699C83.9372 124.984 84.88 123.528 85.1857 122.373C85.9213 119.565 82.4814 118.389 81.4142 112.483C80.4454 107.152 81.4349 102.65 81.9529 101.977C82.0151 101.894 82.3985 101.438 82.4918 100.739C82.528 100.469 82.5073 100.257 82.4918 100.122C82.3778 99.0809 82.0255 97.8272 81.9529 97.6511C78.8549 90.0511 58.4328 89.331 54.4593 97.6511H54.4489Z" fill="#DDBBA4"/>
<path d="M83.0514 99.2621C83.6161 102.417 75.6121 109.349 67.4318 109.39C61.4378 109.421 54.2626 105.821 53.4855 101.433C53.4181 101.06 53.3508 100.635 53.4855 100.122C54.3766 96.7598 62.2667 96.7184 67.4318 96.7339C76.3115 96.7598 82.6007 96.7443 83.0514 99.2673V99.2621Z" fill="#896A64"/>
<path d="M67.9756 105.065C88.1127 105.065 104.437 84.5884 104.437 59.3298C104.437 34.0711 88.1127 13.595 67.9756 13.595C47.8385 13.595 31.5142 34.0711 31.5142 59.3298C31.5142 84.5884 47.8385 105.065 67.9756 105.065Z" fill="#DDBBA4"/>
<path d="M32.4416 68.6032C37.3914 68.6032 41.4041 63.7601 41.4041 57.786C41.4041 51.8118 37.3914 46.9688 32.4416 46.9688C27.4917 46.9688 23.479 51.8118 23.479 57.786C23.479 63.7601 27.4917 68.6032 32.4416 68.6032Z" fill="#DDBBA4"/>
<path d="M103.515 68.6032C108.465 68.6032 112.477 63.7601 112.477 57.786C112.477 51.8118 108.465 46.9688 103.515 46.9688C98.5649 46.9688 94.5522 51.8118 94.5522 57.786C94.5522 63.7601 98.5649 68.6032 103.515 68.6032Z" fill="#DDBBA4"/>
<path d="M79.0986 66.1321C80.4633 66.1321 81.5697 64.4713 81.5697 62.4227C81.5697 60.3741 80.4633 58.7134 79.0986 58.7134C77.7338 58.7134 76.6274 60.3741 76.6274 62.4227C76.6274 64.4713 77.7338 66.1321 79.0986 66.1321Z" fill="#331F19"/>
<path d="M54.3813 66.1321C55.7461 66.1321 56.8525 64.4713 56.8525 62.4227C56.8525 60.3741 55.7461 58.7134 54.3813 58.7134C53.0165 58.7134 51.9102 60.3741 51.9102 62.4227C51.9102 64.4713 53.0165 66.1321 54.3813 66.1321Z" fill="#331F19"/>
<path d="M62.106 87.4504C62.365 87.725 63.9244 89.3051 66.4318 89.3051C68.9392 89.3051 70.4986 87.725 70.7576 87.4504" stroke="#331F19" stroke-width="0.518065" stroke-miterlimit="10" stroke-linecap="round"/>
<path d="M78.2129 50.9942C78.4408 50.7766 80.0313 49.2794 82.1088 49.7716C83.3417 50.0669 84.1292 50.9113 84.4452 51.2947" stroke="#703C25" stroke-width="1.03613" stroke-miterlimit="10" stroke-linecap="round"/>
<path d="M49.4341 51.1133C49.662 50.8957 51.2524 49.3985 53.3299 49.8907C54.5629 50.186 55.3503 51.0304 55.6664 51.4138" stroke="#703C25" stroke-width="1.03613" stroke-miterlimit="10" stroke-linecap="round"/>
<path d="M43.2539 76.6382L44.8029 74.4727" stroke="#A36855" stroke-width="0.518065" stroke-miterlimit="10" stroke-linecap="round"/>
<path d="M45.2896 76.4206L47.2737 73.8562" stroke="#A36855" stroke-width="0.518065" stroke-miterlimit="10" stroke-linecap="round"/>
<path d="M49.2787 117.425C51.7602 118.151 49.5378 127.802 52.4078 133.314C57.2932 142.702 78.1764 142.427 82.6421 133.314C85.3464 127.792 82.3727 118.322 84.7248 117.425C85.4915 117.135 87.0508 117.669 87.8538 118.037C88.9469 118.534 89.2889 119.047 89.4184 119.259C89.8225 119.933 89.9002 120.731 89.9416 121.093C90.009 121.756 89.9468 122.259 89.9416 122.316C89.3148 128.326 98.2825 137.594 98.2825 137.594C100.925 141.443 104.442 147.193 107.535 154.69C111.395 164.041 113.322 168.714 112.477 172.035C107.83 190.328 25.3856 189.214 21.6296 172.677C20.6608 168.419 24.4116 160.901 27.1936 155.332C30.1828 149.343 33.7368 144.738 33.9906 144.411C37.9175 139.376 38.9899 139.656 40.7876 136.06C42.7252 132.18 44.7404 128.155 43.8753 123.855C43.6421 122.705 43.0101 120.57 44.0669 119.259C44.5539 118.658 45.2896 118.389 46.1496 118.037C46.248 117.995 48.3462 117.156 49.2787 117.425Z" fill="#E8C8D9"/>
<path d="M29.0432 43.8808C30.4834 49.4293 36.3427 54.4027 40.7877 53.7707C46.2688 52.9884 45.098 44.3315 55.0034 36.4673C60.2152 32.328 62.2201 33.39 68.5975 27.8156C71.6592 25.1372 73.0632 23.3551 75.3945 23.4898C80.0312 23.7592 83.1292 31.3851 83.4297 32.1415C85.1393 36.4828 83.7871 37.5967 85.2843 40.7931C87.2892 45.0724 92.5114 49.0666 98.2619 48.8283C104.629 48.5641 110.473 43.1503 111.239 37.7055C112.98 25.3807 88.5377 14.1801 85.9008 12.9834C80.0518 10.3361 74.6018 7.89601 67.3593 8.04107C46.2792 8.4607 25.5877 30.5562 29.0432 43.886V43.8808Z" fill="#B2653F"/>
<path d="M28.8515 56.6204C28.9551 56.2214 30.4834 55.9365 31.3227 56.6204C32.5712 57.6358 31.7061 60.309 31.3227 60.3297C31.0585 60.3452 31.1517 59.0967 30.0845 57.8585C29.4007 57.0659 28.779 56.8949 28.8463 56.6204H28.8515Z" fill="#896A64"/>
<path d="M108.571 55.7964C108.452 55.3975 106.732 55.1125 105.784 55.7964C104.38 56.8118 105.354 59.485 105.784 59.5057C106.079 59.5213 105.981 58.2727 107.178 57.0346C107.945 56.2419 108.649 56.071 108.571 55.7964Z" fill="#896A64"/>
</svg>
