<svg width="112" height="187" viewBox="0 0 112 187" fill="none" xmlns="http://www.w3.org/2000/svg">
<path d="M36.102 120.31C27.1187 122.953 14.2085 126.615 6.43756 138.852C5.90913 139.686 -3.59736 155.047 1.49522 166.662C13.1672 193.295 98.2905 192.824 109.652 166.045C113.677 156.56 108.393 143.893 103.471 136.997C95.7054 126.118 84.0696 122.989 74.4232 120.31C55.2289 114.974 39.5005 119.311 36.1071 120.31H36.102Z" fill="#11100D"/>
<path d="M18.7985 64.0694C15.2808 71.457 18.3892 81.8131 23.1243 88.1698C29.6727 96.9665 39.7853 98.7228 46.6082 99.9143C53.3327 101.085 71.0557 104.168 84.3078 91.8791C90.7577 85.9006 99.399 73.265 95.4307 64.0694C87.3592 45.3465 28.3775 43.9633 18.7933 64.0694H18.7985Z" fill="black"/>
<path d="M41.4946 100.531C39.3342 104.618 43.1368 107.903 40.2979 114.746C38.6297 118.777 36.1119 120.502 36.7128 123.398C36.9563 124.579 37.7749 126.232 41.4894 128.34C52.9749 134.858 65.6416 130.677 68.9676 129.579C74.1534 127.864 75.1999 126.408 75.5366 125.253C76.3552 122.445 72.5422 121.269 71.3559 115.363C70.8015 112.591 70.6979 107.219 71.9516 104.857C72.0967 104.582 72.6458 103.624 72.5578 102.385C72.5578 102.385 72.4904 101.448 71.9516 100.531C70.3767 97.873 46.2401 91.5527 41.4894 100.531H41.4946Z" fill="#C9A491"/>
<path d="M72.5634 101.769C73.4959 104.83 64.6525 112.513 55.3066 112.203C48.9552 111.99 41.5468 108.058 40.692 103.354C40.5988 102.846 40.49 102.194 40.7956 101.504C41.8214 99.168 46.3856 99.023 56.006 99.5669C66.7818 100.173 72.18 100.505 72.5634 101.774V101.769Z" fill="#775D51"/>
<path d="M56.8035 107.949C75.7475 107.949 91.1046 87.4731 91.1046 62.2145C91.1046 36.9559 75.7475 16.4797 56.8035 16.4797C37.8596 16.4797 22.5024 36.9559 22.5024 62.2145C22.5024 87.4731 37.8596 107.949 56.8035 107.949Z" fill="#C9A491"/>
<path d="M20.9586 71.4879C25.9085 71.4879 29.9211 66.6449 29.9211 60.6707C29.9211 54.6965 25.9085 49.8535 20.9586 49.8535C16.0088 49.8535 11.9961 54.6965 11.9961 60.6707C11.9961 66.6449 16.0088 71.4879 20.9586 71.4879Z" fill="#C9A491"/>
<path d="M92.0323 71.4879C96.9822 71.4879 100.995 66.6449 100.995 60.6707C100.995 54.6965 96.9822 49.8535 92.0323 49.8535C87.0825 49.8535 83.0698 54.6965 83.0698 60.6707C83.0698 66.6449 87.0825 71.4879 92.0323 71.4879Z" fill="#C9A491"/>
<path d="M70.0923 69.6333C71.4571 69.6333 72.5634 67.9726 72.5634 65.9239C72.5634 63.8753 71.4571 62.2146 70.0923 62.2146C68.7275 62.2146 67.6211 63.8753 67.6211 65.9239C67.6211 67.9726 68.7275 69.6333 70.0923 69.6333Z" fill="#331F19"/>
<path d="M41.0439 69.6333C42.4087 69.6333 43.5151 67.9726 43.5151 65.9239C43.5151 63.8753 42.4087 62.2146 41.0439 62.2146C39.6791 62.2146 38.5728 63.8753 38.5728 65.9239C38.5728 67.9726 39.6791 69.6333 41.0439 69.6333Z" fill="#331F19"/>
<path d="M50.623 90.3352C50.8821 90.6098 52.4415 92.1899 54.9489 92.1899C57.4563 92.1899 59.0157 90.6098 59.2747 90.3352" stroke="#331F19" stroke-width="0.518065" stroke-miterlimit="10" stroke-linecap="round"/>
<path d="M16.9438 56.6504C17.0474 56.2515 18.5757 55.9665 19.415 56.6504C20.6635 57.6658 19.7983 60.339 19.415 60.3597C19.1507 60.3753 19.244 59.1267 18.1768 57.8886C17.4929 57.0959 16.8713 56.925 16.9386 56.6504H16.9438Z" fill="#775D51"/>
<path d="M96.0421 57.6868C95.9229 57.2879 94.2029 57.0029 93.2549 57.6868C91.8509 58.7022 92.8249 61.3754 93.2549 61.3961C93.5502 61.4116 93.4517 60.1631 94.6485 58.9249C95.4152 58.1323 96.1198 57.9613 96.0421 57.6868Z" fill="#775D51"/>
<path d="M37.9565 54.6146C38.1845 54.397 39.775 52.8998 41.8524 53.3919C43.0854 53.6872 43.8729 54.5317 44.1889 54.915" stroke="black" stroke-width="1.03613" stroke-miterlimit="10" stroke-linecap="round"/>
<path d="M66.7349 54.4952C66.9628 54.2776 68.5533 52.7804 70.6307 53.2725C71.8637 53.5678 72.6512 54.4123 72.9672 54.7956" stroke="black" stroke-width="1.03613" stroke-miterlimit="10" stroke-linecap="round"/>
<path d="M37.9979 4.11875C32.7655 2.48685 25.3416 5.50716 21.8861 10.2993C21.3525 11.0401 19.244 13.962 19.4149 17.718C19.4978 19.583 20.0573 19.6141 20.0314 20.8056C19.9434 25.5511 11.1881 26.323 7.6704 33.1667C6.00223 36.4149 6.25608 39.5907 6.43222 41.8183C6.57728 43.6057 7.27667 51.7548 13.8509 55.4124C19.0471 58.3084 24.5904 56.5469 26.2119 56.0289C27.3206 55.6766 32.8276 53.8064 36.1018 48.6102C38.5471 44.7351 38.0756 41.6629 41.2151 39.772C41.6244 39.5285 43.5671 38.4095 45.9917 38.7255C49.644 39.2021 49.872 42.3468 54.6434 44.906C55.7883 45.5173 58.876 47.1285 62.6785 46.7607C64.3208 46.6001 65.6263 46.0354 68.2426 44.906C71.6411 43.4347 73.273 42.1862 76.8943 41.1967C78.8007 40.6734 79.9146 40.5905 80.6036 41.1967C81.4014 41.8961 81.1528 43.0928 81.2201 44.2843C81.4532 48.2268 85.1522 51.0036 86.8515 52.3195C87.9394 53.1588 90.1774 54.8529 93.5811 55.4072C94.9281 55.63 97.5599 56.06 100.378 54.7907C104.688 52.848 106.149 48.4185 106.559 46.7555C107.217 44.0875 106.818 41.9064 106.559 40.575C105.564 35.4772 102.404 32.0373 100.995 30.6851C96.9278 26.7737 94.3479 27.6337 92.9595 24.5046C91.6436 21.5309 93.7262 20.1943 92.343 16.4694C91.0271 12.9259 87.9653 10.952 86.7789 10.2889C84.1575 8.82278 83.4478 9.68277 80.5984 8.43423C76.1897 6.50185 76.4073 3.77683 72.5632 1.63722C67.8437 -0.989372 62.4506 0.310972 62.0569 0.399043C57.1301 1.53361 56.4825 4.02032 50.1776 5.38801C47.7738 5.91125 46.1626 5.86981 45.2508 5.88535C41.6088 5.95788 39.2879 4.5073 37.9979 4.10839V4.11875Z" fill="#1C1818"/>
<path d="M71.3302 112.275C70.32 111.617 68.6725 113.337 65.7662 114.834C64.9321 115.264 60.254 117.684 55.2598 117.217C52.54 116.964 50.2191 115.902 46.6082 114.249C43.4428 112.804 41.412 111.467 40.4276 112.27C39.6402 112.912 40.3551 114.239 39.1895 116.596C38.7336 117.523 38.2103 118.16 37.9513 118.45C36.7753 119.782 35.4387 120.398 34.8636 120.657C30.4393 122.636 28.2013 123.517 25.5954 124.154C18.1716 125.968 2.93526 138.935 5.19921 144.551C7.41653 150.047 24.7924 144.514 72.5632 142.805C88.9134 142.219 101.414 142.349 102.228 138.728C103.145 134.656 87.24 125.579 81.8314 123.574C81.1113 123.305 79.0857 122.103 75.0344 119.689C74.5526 119.404 73.33 118.653 72.5632 117.217C71.4494 114.544 72.2213 112.855 71.325 112.275H71.3302Z" fill="#11100D"/>
<path d="M45.0955 61.0229H33.7343C31.6285 61.0229 29.9214 62.7301 29.9214 64.8359V67.6697C29.9214 69.7756 31.6285 71.4827 33.7343 71.4827H45.0955C47.2014 71.4827 48.9085 69.7756 48.9085 67.6697V64.8359C48.9085 62.7301 47.2014 61.0229 45.0955 61.0229Z" stroke="black" stroke-width="0.777098" stroke-miterlimit="10"/>
<path d="M76.4539 60.8005H65.0927C62.9869 60.8005 61.2798 62.5077 61.2798 64.6135V67.4473C61.2798 69.5532 62.9869 71.2603 65.0927 71.2603H76.4539C78.5598 71.2603 80.2669 69.5532 80.2669 67.4473V64.6135C80.2669 62.5077 78.5598 60.8005 76.4539 60.8005Z" stroke="black" stroke-width="0.777098" stroke-miterlimit="10"/>
<path d="M48.9082 64.9861H61.2796" stroke="black" stroke-width="0.777098" stroke-miterlimit="10"/>
<path d="M33.8896 80.5386L35.4335 78.373" stroke="#B75E5E" stroke-width="0.518065" stroke-miterlimit="10" stroke-linecap="round"/>
<path d="M35.9258 80.326L37.9048 77.7563" stroke="#B75E5E" stroke-width="0.518065" stroke-miterlimit="10" stroke-linecap="round"/>
</svg>
