<svg width="134" height="180" viewBox="0 0 134 180" fill="none" xmlns="http://www.w3.org/2000/svg">
<path d="M82.8668 6.95876C75.749 8.38537 72.4707 2.90917 64.8905 0.806795C53.3253 -2.39683 39.3858 4.44091 32.0394 12.495C24.3708 20.8995 29.2753 25.5948 20.2612 36.4822C13.2316 44.9768 7.81277 45.0669 4.14475 53.7066C0.991087 61.1401 2.01979 68.1079 2.28476 69.6997C3.62 77.6387 7.11657 76.9179 9.72471 85.6928C13.0498 96.9105 10.2962 108.068 9.23113 112.388C8.63884 114.791 8.02058 116.688 7.86991 117.063C5.05395 124.051 1.75481 124.772 0.429961 131.825C-1.59109 142.617 4.09797 151.873 5.38645 153.97C7.37632 157.204 13.6006 166.149 32.0394 172.421C58.9468 181.581 101.441 181.511 123.148 156.428C127.101 151.858 135.757 141.861 133.684 131.209C131.658 120.798 121.126 118.74 120.669 107.838C120.373 100.75 124.706 98.8627 125.008 88.1556C125.059 86.2535 124.966 84.8669 124.789 83.7006C124.363 80.8474 123.792 79.0153 123.558 78.1193C122.321 73.3339 126.364 69.8449 128.104 64.1685C129.793 58.6723 128.468 53.9169 126.862 48.1754C125.132 41.9734 123.688 42.3538 116.944 28.4931C115.006 24.5036 113.889 21.9307 111.364 17.4206C107.099 9.78695 105.036 7.75466 102.688 6.34806C98.9521 4.11053 95.2425 3.91031 94.0112 3.88528C88.8209 3.79017 86.8934 6.15284 82.8565 6.95876H82.8668Z" fill="#7D4B48"/>
<path d="M22.4882 59.2814C21.7581 61.326 22.2241 61.832 23.7258 70.1468C26.1698 83.7197 29.7842 103.77 21.872 119.651C18.6927 126.038 16.5904 125.835 13.8408 132.93C10.9929 140.278 10.5424 151.579 11.3708 155.268C15.824 175.111 99.7507 191.331 117.62 161.908C121.82 154.99 122.866 144.732 121.328 136.554C119.065 124.529 111.805 120.339 107.119 102.141C106.011 97.8442 105.079 94.2055 104.815 89.1195C103.914 71.7713 112.297 65.8907 110.21 59.2764C104.597 41.4778 29.7013 39.0435 22.4934 59.2764L22.4882 59.2814Z" fill="#512E2D"/>
<path d="M46.0771 118.432C37.1001 120.894 24.1988 124.307 16.4332 135.709C15.9051 136.486 6.40511 150.799 11.4942 161.622C23.1582 186.439 108.223 186 119.576 161.047C123.599 152.208 118.318 140.406 113.4 133.981C105.64 123.843 94.0118 120.928 84.3721 118.432C65.191 113.46 49.4733 117.5 46.0823 118.432H46.0771Z" fill="#5D5DAF"/>
<path d="M51.562 98.8842C49.4016 102.972 53.2042 106.256 50.3652 113.1C48.6971 117.13 46.1793 118.856 46.7802 121.752C47.0237 122.933 47.8422 124.585 51.5568 126.694C63.0423 133.211 75.709 129.03 79.0349 127.932C84.2208 126.217 85.2673 124.762 85.604 123.606C86.4226 120.798 82.6096 119.622 81.4232 113.716C80.3508 108.386 81.4491 103.884 82.019 103.21C82.0915 103.127 82.5163 102.671 82.6148 101.972C82.6562 101.703 82.6303 101.49 82.6148 101.355C82.4853 100.314 82.0967 99.0604 82.019 98.8842C78.5894 91.2842 55.9603 90.5641 51.5568 98.8842H51.562Z" fill="#E9C0AD"/>
<path d="M83.2521 100.495C83.8737 103.65 75.0097 110.582 65.9487 110.623C59.3071 110.655 51.36 107.054 50.5 102.666C50.4275 102.293 50.3498 101.868 50.5 101.355C51.4895 97.993 60.2241 97.9515 65.9487 97.9671C75.7868 97.993 82.7547 97.9774 83.2521 100.5V100.495Z" fill="#896A64"/>
<path d="M66.5649 106.298C86.702 106.298 103.026 85.8215 103.026 60.5629C103.026 35.3043 86.702 14.8281 66.5649 14.8281C46.4279 14.8281 30.1035 35.3043 30.1035 60.5629C30.1035 85.8215 46.4279 106.298 66.5649 106.298Z" fill="#E9C0AD"/>
<path d="M31.0255 69.8361C35.9754 69.8361 39.988 64.993 39.988 59.0189C39.988 53.0447 35.9754 48.2017 31.0255 48.2017C26.0756 48.2017 22.063 53.0447 22.063 59.0189C22.063 64.993 26.0756 69.8361 31.0255 69.8361Z" fill="#E9C0AD"/>
<path d="M102.099 69.8361C107.049 69.8361 111.062 64.993 111.062 59.0189C111.062 53.0447 107.049 48.2017 102.099 48.2017C97.1494 48.2017 93.1367 53.0447 93.1367 59.0189C93.1367 64.993 97.1494 69.8361 102.099 69.8361Z" fill="#E9C0AD"/>
<path d="M20.2138 55.6205C23.9076 61.169 37.4498 58.3611 38.7553 58.0917C38.7553 58.0917 45.8736 56.5996 51.7329 51.9112C60.3224 45.0364 55.836 35.5558 63.4774 31.5149C67.8602 29.1992 72.2482 30.7741 75.8384 26.5726C77.3201 24.8371 78.0454 22.8425 79.5478 22.8632C81.2263 22.8891 82.4749 25.5365 83.2571 27.1891C84.8787 30.6031 85.0911 33.6286 85.1118 33.9861C85.749 44.5287 81.2263 49.6628 83.8736 53.7607C86.3241 57.5529 92.9916 57.4907 94.9965 57.47C102.529 57.3975 107.518 52.7763 109.829 54.9988C110.632 55.7707 110.834 57.1333 111.067 58.7082C111.487 61.5575 110.704 63.5158 111.067 63.6505C111.507 63.8215 113.15 61.0913 114.155 58.7082C118.719 47.8651 115.496 31.1005 105.503 22.8632C101.897 19.8895 101.959 20.5164 84.4901 15.4445C66.9122 10.3468 64.3063 6.24371 56.6804 8.02586C55.1521 8.38332 50.8988 9.47644 41.8482 18.5322C39.8485 20.5319 14.0488 46.3471 20.219 55.6153L20.2138 55.6205Z" fill="#7D4B48"/>
<path d="M77.6875 67.365C79.0523 67.365 80.1587 65.7043 80.1587 63.6556C80.1587 61.607 79.0523 59.9463 77.6875 59.9463C76.3227 59.9463 75.2163 61.607 75.2163 63.6556C75.2163 65.7043 76.3227 67.365 77.6875 67.365Z" fill="#331F19"/>
<path d="M52.9658 67.365C54.3306 67.365 55.437 65.7043 55.437 63.6556C55.437 61.607 54.3306 59.9463 52.9658 59.9463C51.601 59.9463 50.4946 61.607 50.4946 63.6556C50.4946 65.7043 51.601 67.365 52.9658 67.365Z" fill="#331F19"/>
<path d="M60.6953 88.6836C60.9543 88.9582 62.5137 90.5383 65.0211 90.5383C67.5286 90.5383 69.088 88.9582 69.347 88.6836" stroke="#331F19" stroke-width="0.518065" stroke-miterlimit="10" stroke-linecap="round"/>
<path d="M76.8018 52.2273C77.0297 52.0098 78.6202 50.5125 80.6976 51.0047C81.9306 51.3 82.7181 52.1445 83.0341 52.5278" stroke="#331F19" stroke-width="1.03613" stroke-miterlimit="10" stroke-linecap="round"/>
<path d="M48.0234 52.3462C48.2514 52.1287 49.8419 50.6314 51.9193 51.1236C53.1523 51.4189 53.9398 52.2634 54.2558 52.6467" stroke="#331F19" stroke-width="1.03613" stroke-miterlimit="10" stroke-linecap="round"/>
<path d="M26.3945 59.9463C26.4981 59.5474 28.0264 59.2624 28.8657 59.9463C30.1142 60.9617 29.249 63.6349 28.8657 63.6556C28.6014 63.6712 28.6947 62.4226 27.6275 61.1845C26.9436 60.3918 26.3219 60.2209 26.3893 59.9463H26.3945Z" fill="#896A64"/>
<path d="M106.108 59.1279C105.989 58.729 104.269 58.4441 103.321 59.1279C101.917 60.1433 102.891 62.8166 103.321 62.8373C103.617 62.8528 103.518 61.6043 104.715 60.3661C105.482 59.5735 106.186 59.4025 106.108 59.1279Z" fill="#896A64"/>
<path d="M41.8428 77.8716L43.3866 75.7061" stroke="#A55555" stroke-width="0.518065" stroke-miterlimit="10" stroke-linecap="round"/>
<path d="M43.8794 77.659L45.8584 75.0894" stroke="#A55555" stroke-width="0.518065" stroke-miterlimit="10" stroke-linecap="round"/>
</svg>
