<svg width="14" height="13" viewBox="0 0 14 13" fill="none" xmlns="http://www.w3.org/2000/svg">
<path d="M11.4333 8.13341C10.9634 7.66957 10.3769 7.66957 9.91005 8.13341C9.55393 8.48652 9.19782 8.83963 8.84769 9.19873C8.75193 9.29748 8.67113 9.31843 8.55442 9.25259C8.32399 9.12691 8.0786 9.02516 7.85715 8.88751C6.82472 8.23814 5.95987 7.40324 5.19377 6.4636C4.81372 5.99678 4.47556 5.49703 4.23915 4.93445C4.19127 4.82074 4.20025 4.74592 4.29301 4.65316C4.64913 4.30902 4.99627 3.95591 5.3464 3.6028C5.83418 3.11203 5.83418 2.53748 5.3434 2.04372C5.06509 1.76242 4.78679 1.48712 4.50848 1.20582C4.22119 0.918546 3.9369 0.628275 3.64662 0.34399C3.17679 -0.113859 2.59025 -0.113859 2.12341 0.346983C1.7643 0.700095 1.42016 1.06218 1.05507 1.40931C0.716908 1.72951 0.546333 2.12152 0.510422 2.57937C0.453563 3.3245 0.636109 4.02773 0.893469 4.71301C1.42016 6.13144 2.22217 7.39127 3.19475 8.54637C4.50848 10.1084 6.07658 11.3443 7.91102 12.2361C8.73696 12.6371 9.59283 12.9453 10.5235 12.9962C11.1639 13.0321 11.7205 12.8705 12.1664 12.3708C12.4717 12.0296 12.8158 11.7184 13.139 11.3922C13.6178 10.9074 13.6208 10.3209 13.145 9.84211C12.5764 9.27055 12.0048 8.70198 11.4333 8.13341Z" fill="#11263A"/>
</svg>
