<svg width="184" height="30" viewBox="0 0 184 30" fill="none" xmlns="http://www.w3.org/2000/svg">
<path d="M15.4294 0.000244141L20.1968 9.66154L30.8588 11.2101L23.1441 18.73L24.9642 29.3488L15.4294 24.335L5.89302 29.3488L7.7147 18.73L0 11.2101L10.662 9.66154L15.4294 0.000244141Z" fill="#EBBD16"/>
<path d="M53.6057 0.000244141L58.3731 9.66154L69.0335 11.2101L61.3204 18.73L63.1404 29.3488L53.6057 24.335L44.0693 29.3488L45.891 18.73L38.1763 11.2101L48.8367 9.66154L53.6057 0.000244141Z" fill="#EBBD16"/>
<path d="M91.779 0.000244141L96.5464 9.66154L107.207 11.2101L99.4937 18.73L101.314 29.3488L91.779 24.335L82.2426 29.3488L84.0643 18.73L76.3496 11.2101L87.01 9.66154L91.779 0.000244141Z" fill="#EBBD16"/>
<path d="M129.952 0.000244141L134.719 9.66154L145.38 11.2101L137.667 18.73L139.487 29.3488L129.952 24.335L120.415 29.3488L122.237 18.73L114.522 11.2101L125.183 9.66154L129.952 0.000244141Z" fill="#EBBD16"/>
<path d="M168.409 0.000244141L173.176 9.66154L183.837 11.2101L176.124 18.73L177.944 29.3488L168.409 24.335L158.873 29.3488L160.694 18.73L152.979 11.2101L163.64 9.66154L168.409 0.000244141Z" fill="#EBBD16"/>
</svg>
