<svg width="129" height="129" viewBox="0 0 129 129" fill="none" xmlns="http://www.w3.org/2000/svg">
<path d="M41.071 87.5656C37.5868 86.4943 34.4897 85.5333 31.3864 84.588C29.8095 84.1059 28.3585 84.4651 27.0712 85.4072C22.0354 89.0906 16.99 92.7582 12.0077 96.514C9.35752 98.5117 9.16238 101.814 11.5198 104.183C15.4415 108.122 19.4073 112.019 23.4076 115.876C26.7471 119.096 30.9048 119.43 35.179 118.743C42.6416 117.54 49.0938 113.919 55.3194 109.889C66.4204 102.699 76.2498 93.9587 85.6354 84.7014C94.5332 75.9263 102.99 66.7573 109.905 56.2933C113.88 50.2783 117.33 44.0018 118.715 36.8179C119.561 32.4256 119.483 28.1467 116.688 24.3342C116.2 23.6662 115.618 23.0707 114.963 22.305C112.735 25.7457 110.607 29.0321 108.479 32.3184C107.683 33.5504 106.909 34.7982 106.078 36.0081C104.388 38.4658 101.41 39.1274 99.0529 37.5993C96.6954 36.0711 96.0345 33.0589 97.6302 30.5477C100.885 25.4181 104.212 20.3326 107.645 15.0139C106.213 13.6811 104.885 12.1908 103.308 11.0407C101.322 9.59445 98.4454 10.0135 96.9315 12.0017C92.9343 17.2573 89.0409 22.5917 85.1633 27.9356C84.1718 29.2999 84.2663 30.8816 84.7604 32.4602C86.3026 37.4071 87.7945 42.3665 89.3399 47.3102C90.6272 51.4284 90.2055 55.3575 88.2352 59.1732C85.1412 65.1693 81.3234 70.6581 76.7093 75.586C74.4211 78.0279 71.3713 78.2958 69.1869 76.2477C67.031 74.228 67.0278 71.2693 69.2562 68.8337C73.1684 64.5517 76.4795 59.8632 79.158 54.7179C80.0078 53.0889 80.1652 51.4819 79.6081 49.7238C78.0564 44.8368 76.5991 39.9215 75.0443 35.0345C73.4926 30.1538 74.119 25.5819 77.0744 21.4354C80.7254 16.3152 84.4457 11.2423 88.2698 6.24824C94.1681 -1.45246 104.444 -2.11099 111.394 4.69486C114.954 8.18286 118.428 11.7528 121.979 15.2439C127.672 20.843 129.68 27.6741 128.802 35.4661C127.795 44.4303 123.971 52.3138 119.228 59.8065C111.067 72.6998 100.74 83.7688 89.7994 94.3021C80.1526 103.591 70.0462 112.331 58.6242 119.418C51.9139 123.583 44.8888 127.058 37.0203 128.486C28.4844 130.036 21.025 128.127 14.9064 121.699C11.652 118.28 8.25278 115.006 4.9291 111.651C-2.2848 104.366 -1.49795 94.0626 6.74831 87.9374C11.5041 84.4053 16.2787 80.8952 21.0628 77.4041C25.2835 74.3257 29.9134 73.4907 34.9178 75.0724C41.0584 77.0102 47.1833 79.011 53.3271 80.9393C55.5082 81.623 57.0977 82.8393 57.3998 85.2087C57.6862 87.471 56.6004 89.0843 54.7654 90.3604C48.6941 94.5762 42.6667 98.8551 36.6079 103.087C33.8728 104.999 30.8135 104.605 29.1139 102.179C27.3891 99.7153 28.0532 96.8102 30.8135 94.8409C34.1309 92.4746 37.4609 90.1241 41.0678 87.5656H41.071Z" fill="white"/>
</svg>
