<svg width="123" height="159" viewBox="0 0 123 159" fill="none" xmlns="http://www.w3.org/2000/svg">
<path d="M116.732 153.582V150.991C116.732 114.341 116.732 77.6915 116.732 41.0386C116.732 40.8727 116.732 40.7068 116.732 40.5408C116.745 38.3243 117.713 37.0866 119.416 37.1098C121.11 37.133 122.038 38.3541 122.038 40.6072C122.038 71.8481 122.038 103.089 122.038 134.33C122.038 141.394 122.041 148.459 122.035 155.527C122.035 158.118 121.15 158.997 118.548 158.997C80.2014 159.001 41.8516 159.001 3.50505 158.997C0.893151 158.997 0.00815852 158.118 0.00815852 155.537C0.00484393 141.076 0.00815852 126.615 0.00815852 112.151C0.00815852 111.71 -0.0316222 111.252 0.0645009 110.83C0.376073 109.493 1.23454 108.69 2.62336 108.674C4.01548 108.657 4.90048 109.447 5.23526 110.771C5.36784 111.292 5.30819 111.869 5.30819 112.42C5.3115 125.5 5.30819 138.584 5.30819 151.664C5.30819 152.265 5.30819 152.865 5.30819 153.582H116.728H116.732Z" fill="white"/>
<path d="M116.732 5.36471H5.31153V7.3125C5.31153 37.9462 5.31153 68.5765 5.31153 99.2102C5.31153 99.4325 5.31153 99.6515 5.31153 99.8738C5.29496 102.117 4.36024 103.338 2.65322 103.335C0.952839 103.335 0.00818702 102.11 0.00818702 99.8672C0.00818702 67.7437 0.00487243 35.6234 0.00818702 3.49988C0.00818702 0.881813 0.87329 0.00248865 3.46199 0.00248865C41.8648 -0.000829551 80.2644 -0.000829551 118.667 0.00248865C121.14 0.00248865 122.035 0.918313 122.035 3.42024C122.042 11.7556 122.042 20.0876 122.035 28.4229C122.035 30.5433 121.087 31.7444 119.446 31.7843C117.746 31.8274 116.738 30.5798 116.735 28.3798C116.728 20.7678 116.735 13.1559 116.735 5.36139L116.732 5.36471Z" fill="white"/>
<path d="M18.5769 52.9414H21.159C21.401 48.8865 23.3069 45.8305 26.817 43.6736C25.2923 41.3907 25.1465 38.8987 25.1896 36.3371C25.2559 32.3652 25.1896 28.39 25.2128 24.4181C25.2227 22.1451 26.1607 21.1862 28.4511 21.2193C30.8177 21.2525 33.2341 21.1331 35.541 21.5545C40.0654 22.384 43.4629 26.3924 43.7215 30.9749C43.8739 33.6693 43.9038 36.3935 43.7016 39.0812C43.5889 40.6242 42.9061 42.124 42.4553 43.7334C46.6416 47.4564 47.0626 48.1565 47.9045 52.9248H50.2877V15.9003C49.7209 15.9003 49.1342 15.9003 48.5508 15.9003C41.6432 15.9003 34.7389 15.9003 27.8313 15.9003C27.3905 15.9003 26.9463 15.9235 26.5055 15.887C24.9343 15.7576 23.877 14.6692 23.8902 13.2258C23.9035 11.779 24.9708 10.6276 26.5519 10.621C35.3919 10.5878 44.2319 10.5845 53.0719 10.621C54.643 10.6276 55.5943 11.6762 55.6971 13.259C55.7468 14.0288 55.7103 14.8053 55.7103 15.5751C55.7103 28.599 55.7136 41.623 55.7103 54.6503C55.7103 57.4707 54.8817 58.297 52.0643 58.297C40.2975 58.3003 28.5274 58.3003 16.7606 58.297C14.1487 58.297 13.2703 57.4243 13.267 54.8361C13.2604 41.258 13.267 27.6832 13.267 14.1051C13.267 13.9392 13.2637 13.7733 13.267 13.6074C13.3233 11.7757 14.3276 10.6276 15.8855 10.611C17.45 10.5911 18.5272 11.7392 18.5637 13.5443C18.6002 15.3096 18.5736 17.0749 18.5736 18.8435C18.5736 29.6045 18.5736 40.3687 18.5736 51.1296C18.5736 51.6738 18.5736 52.2213 18.5736 52.9414H18.5769ZM26.6049 52.8983H42.3823C42.147 49.7957 40.1052 47.7816 37.1453 47.7119C35.3786 47.6688 33.6086 47.6688 31.8419 47.7119C28.8754 47.7849 26.8336 49.799 26.6082 52.8983H26.6049ZM30.4531 34.4822C30.5526 36.2176 30.4598 37.9696 30.7945 39.6387C31.1459 41.3874 32.8993 42.4559 34.6428 42.3862C36.3829 42.3132 38.0469 41.112 38.2955 39.3567C38.5209 37.7706 38.3419 36.128 38.3419 34.4822H30.4531ZM37.5762 29.0835C35.9786 26.701 33.4694 25.9246 30.6056 26.7641V29.0835H37.5762Z" fill="white"/>
<path d="M65.8036 94.0433C67.0201 94.3718 68.2564 94.6373 69.4431 95.0421C71.6506 95.792 73.235 95.2014 74.1597 93.0445C75.6877 89.4841 78.3461 87.4998 82.2109 87.4832C86.0757 87.4699 88.7572 89.4277 90.3018 92.9815C91.2829 95.2412 92.8375 95.8783 95.1311 94.9857C98.7341 93.5821 102.006 94.0632 104.743 96.814C107.488 99.5681 107.922 102.84 106.513 106.43C105.652 108.624 106.298 110.243 108.439 111.155C112.002 112.675 114.011 115.306 114.044 119.172C114.074 123.117 112.046 125.792 108.429 127.351C106.295 128.271 105.662 129.887 106.52 132.083C107.929 135.677 107.475 138.952 104.73 141.696C101.986 144.44 98.7142 144.911 95.1113 143.501C92.8341 142.609 91.2895 143.262 90.2952 145.535C88.7406 149.082 86.0591 151.037 82.1877 151.014C78.3925 150.99 75.7474 149.066 74.2227 145.582C73.1952 143.239 71.6738 142.615 69.274 143.538C65.7307 144.905 62.5056 144.417 59.8009 141.736C57.0432 139.005 56.5427 135.74 57.9514 132.14C58.8463 129.843 58.2132 128.277 55.9726 127.305C52.416 125.765 50.4438 123.098 50.4505 119.232C50.4571 115.369 52.4359 112.708 55.9991 111.179C58.2663 110.203 58.8099 108.653 57.8851 106.175C55.6842 100.291 59.6484 94.2756 65.8103 94.04L65.8036 94.0433ZM101.989 103.085C101.943 100.424 99.6291 99.014 97.2127 99.8734C91.8365 101.781 87.8125 100.129 85.3962 94.9658C84.7432 93.5721 83.7588 92.7558 82.2109 92.7691C80.7359 92.7824 79.6653 93.5058 79.1648 94.8961C77.4876 99.5714 72.0318 102.117 67.2057 99.8502C65.8832 99.2263 64.6038 99.4619 63.5398 100.494C62.4791 101.526 62.151 102.833 62.8006 104.131C65.0148 108.544 62.9465 114.311 57.8055 116.199C56.4068 116.713 55.7273 117.812 55.7405 119.278C55.7538 120.745 56.5195 121.711 57.8552 122.344C63.152 124.863 64.7595 128.742 62.8139 134.253C62.3266 135.63 62.436 136.865 63.4702 137.927C64.501 138.985 65.7374 139.164 67.1262 138.7C72.9134 136.765 76.5462 138.252 79.1747 143.667C79.8244 145.004 80.8088 145.738 82.2772 145.724C83.7488 145.711 84.8294 144.991 85.3266 143.601C86.9673 138.988 92.3834 136.354 97.2823 138.64C98.4689 139.194 99.6523 139.058 100.706 138.219C102.032 137.16 102.248 135.876 101.465 133.732C99.7848 129.12 101.638 124.571 106.099 122.593C107.64 121.91 108.774 121.017 108.754 119.209C108.738 117.397 107.558 116.561 106.026 115.877C101.671 113.936 99.8047 109.33 101.436 104.844C101.677 104.177 101.863 103.487 101.989 103.089V103.085Z" fill="white"/>
<path d="M62.5142 66.2473C77.4929 66.2473 92.4682 66.2473 107.447 66.2473C108 66.2473 108.564 66.1942 109.101 66.2904C110.533 66.5459 111.391 67.4352 111.388 68.8985C111.388 70.3618 110.523 71.2412 109.094 71.5066C108.614 71.5962 108.103 71.5465 107.606 71.5465C77.5393 71.5465 47.4759 71.5465 17.4093 71.5465C17.1872 71.5465 16.9684 71.5465 16.7464 71.5465C14.5057 71.5299 13.2793 70.5908 13.2793 68.8919C13.2793 67.193 14.4991 66.2473 16.7497 66.2473C32.0034 66.244 47.2572 66.2473 62.5109 66.2473H62.5142Z" fill="white"/>
<path d="M62.3489 82.1482C47.3172 82.1482 32.2822 82.1482 17.2505 82.1482C16.644 82.1482 16.0142 82.2112 15.4342 82.0785C14.0984 81.7732 13.3029 80.8905 13.2996 79.5002C13.2996 78.1066 14.0951 77.2339 15.4275 76.9187C15.9545 76.7959 16.528 76.8523 17.0782 76.8523C47.1979 76.8523 77.3209 76.8523 107.441 76.8523C110.149 76.8523 111.411 77.6984 111.408 79.5002C111.408 81.3053 110.145 82.1548 107.444 82.1548C92.4123 82.1548 77.3773 82.1548 62.3456 82.1548L62.3489 82.1482Z" fill="white"/>
<path d="M87.5867 29.1493C82.5088 29.1493 77.4341 29.1593 72.3562 29.1493C69.8802 29.1427 68.9885 28.2368 68.9786 25.7448C68.9687 22.6589 68.962 19.573 68.9786 16.4837C68.9919 14.2008 69.9199 13.2584 72.1904 13.2551C82.4524 13.2451 92.7177 13.2418 102.98 13.2551C105.131 13.2551 106.095 14.2373 106.112 16.4041C106.135 19.5995 106.132 22.7983 106.112 25.9937C106.095 28.1605 105.134 29.1327 102.98 29.1427C97.8487 29.1626 92.7177 29.1493 87.5834 29.1493H87.5867ZM74.3615 23.734H100.679V18.6372H74.3615V23.734Z" fill="white"/>
<path d="M87.5531 45.0472C94.285 45.0472 101.017 45.0472 107.749 45.0472C108.246 45.0472 108.757 45.0007 109.234 45.1069C110.57 45.4089 111.375 46.2716 111.395 47.6553C111.415 49.0456 110.619 49.915 109.303 50.2667C108.889 50.3796 108.425 50.3364 107.988 50.3364C94.3579 50.3364 80.7283 50.3397 67.0987 50.3364C64.9012 50.3364 63.6582 49.341 63.688 47.6387C63.7179 45.9929 64.9144 45.0472 67.0291 45.0406C71.3315 45.0306 75.6371 45.0406 79.9395 45.0406C82.4784 45.0406 85.0174 45.0406 87.5531 45.0406V45.0472Z" fill="white"/>
<path d="M87.6985 55.6451C94.331 55.6451 100.963 55.6451 107.596 55.6451C108.037 55.6451 108.484 55.6219 108.922 55.6683C110.393 55.8243 111.408 56.896 111.414 58.2797C111.424 59.6568 110.413 60.7949 108.952 60.9144C107.908 61.0007 106.854 60.9443 105.803 60.9443C93.0913 60.9443 80.3799 60.9443 67.6684 60.9443C67.1712 60.9443 66.6707 60.9708 66.1768 60.921C64.7052 60.7684 63.6942 59.6933 63.6876 58.3096C63.6776 56.9259 64.6819 55.8276 66.1437 55.6683C66.6342 55.6152 67.1381 55.6418 67.6352 55.6418C74.3241 55.6418 81.0096 55.6418 87.6985 55.6418V55.6451Z" fill="white"/>
<path d="M34.5132 92.7497C28.7093 92.7497 22.9055 92.7497 17.1049 92.7497C16.6077 92.7497 16.0973 92.7961 15.6167 92.7099C14.1881 92.451 13.3164 91.585 13.3064 90.1183C13.2932 88.6517 14.1516 87.7757 15.5736 87.4903C15.9481 87.414 16.3459 87.4505 16.7304 87.4505C28.5568 87.4505 40.3833 87.4505 52.2131 87.4505C52.3788 87.4505 52.5446 87.4472 52.7103 87.4505C54.5499 87.5102 55.6901 88.509 55.7034 90.0752C55.7166 91.6348 54.5665 92.7231 52.7534 92.7397C49.2167 92.7729 45.68 92.7497 42.1434 92.7497C39.6011 92.7497 37.0588 92.7497 34.5165 92.7497H34.5132Z" fill="white"/>
<path d="M33.0774 103.348C27.605 103.348 22.1359 103.354 16.6635 103.348C14.5289 103.348 13.3357 102.422 13.2826 100.779C13.2296 99.0772 14.4792 98.0551 16.6701 98.0551C27.6679 98.0485 38.6658 98.0485 49.6636 98.0551C51.7949 98.0551 52.9947 98.9842 53.0478 100.62C53.1008 102.319 51.8413 103.344 49.657 103.348C44.1315 103.354 38.6028 103.348 33.0774 103.348Z" fill="white"/>
<path d="M92.6798 39.7476C87.6615 39.7476 82.6399 39.7542 77.6216 39.7476C75.5235 39.7442 74.3203 38.782 74.2971 37.1328C74.2739 35.4737 75.4837 34.4583 77.5553 34.455C87.7609 34.4484 97.9633 34.4451 108.169 34.455C110.221 34.455 111.444 35.4969 111.414 37.1494C111.384 38.7919 110.178 39.7442 108.073 39.7476C102.942 39.7575 97.8141 39.7476 92.6831 39.7476H92.6798Z" fill="white"/>
<path d="M31.7894 135.146C26.5954 135.146 21.3981 135.173 16.2041 135.133C13.8872 135.113 12.4653 132.95 13.6983 131.224C14.1922 130.537 15.3059 129.913 16.1412 129.907C26.5854 129.817 37.033 129.837 47.4773 129.857C49.2738 129.86 50.4339 130.992 50.4008 132.545C50.3676 134.098 49.2142 135.13 47.3779 135.14C42.1839 135.163 36.9866 135.146 31.7927 135.146H31.7894Z" fill="white"/>
<path d="M30.5328 113.95C25.899 113.95 21.2686 113.956 16.6348 113.95C14.5267 113.946 13.3235 113.004 13.2804 111.362C13.2373 109.653 14.467 108.654 16.6745 108.654C25.9388 108.647 35.2031 108.644 44.4674 108.654C46.9334 108.654 48.3455 110.343 47.5301 112.274C46.9832 113.571 45.9225 113.96 44.5933 113.956C39.9065 113.936 35.2197 113.95 30.5295 113.95H30.5328Z" fill="white"/>
<path d="M29.0741 124.548C24.9276 124.548 20.7843 124.555 16.6378 124.548C14.5197 124.542 13.3165 123.599 13.2801 121.957C13.2436 120.251 14.48 119.256 16.6908 119.256C25.0369 119.249 33.3798 119.249 41.7259 119.256C43.8439 119.256 45.0504 120.202 45.0836 121.847C45.1201 123.546 43.8738 124.548 41.6696 124.552C37.47 124.558 33.2704 124.552 29.0675 124.552L29.0741 124.548Z" fill="white"/>
<path d="M81.9983 137.791C82.0381 137.94 82.0778 138.086 82.1209 138.235C84.756 137.512 87.4309 136.908 90.0097 136.025C91.5974 135.481 92.1111 133.885 91.4946 132.502C90.9146 131.201 89.5191 130.667 88.011 131.178C87.5933 131.32 87.1956 131.513 86.7813 131.665C79.6516 134.287 71.8159 130.384 69.5818 123.101C67.3776 115.927 71.6303 108.325 78.9091 106.42C86.2277 104.506 93.7419 109.214 95.2301 116.611C95.8069 119.481 95.3528 122.175 94.2623 124.85C93.3906 126.993 94.9352 129.193 96.9537 128.599C97.8918 128.324 98.9027 127.312 99.3104 126.386C104.329 114.905 96.1947 101.646 83.6556 100.743C73.334 99.9997 64.2023 107.98 63.7117 118.173C63.2013 128.785 71.4413 137.621 82.0049 137.791H81.9983ZM79.4892 120.904C78.2992 119.64 77.2949 118.469 76.1779 117.42C74.9979 116.315 73.5129 116.342 72.4622 117.344C71.3651 118.392 71.3187 119.949 72.4854 121.176C74.156 122.932 75.8862 124.634 77.6264 126.32C78.6539 127.315 80.0062 127.677 81.0569 126.671C84.8787 123.018 88.6242 119.282 92.2901 115.472C93.2911 114.434 93.0558 113.063 92.0017 112.058C90.9444 111.049 89.7312 111.033 88.5479 111.905C88.1966 112.164 87.895 112.496 87.5834 112.808C84.9715 115.413 82.3662 118.024 79.4858 120.901L79.4892 120.904Z" fill="white"/>
<path d="M81.9981 137.791C71.4345 137.621 63.1944 128.785 63.7049 118.173C64.1954 107.98 73.3271 99.9997 83.6488 100.743C96.1879 101.646 104.322 114.905 99.3036 126.386C98.8992 127.315 97.8849 128.324 96.9469 128.599C94.9283 129.193 93.3837 126.993 94.2555 124.85C95.346 122.172 95.8001 119.481 95.2233 116.611C93.7351 109.214 86.2242 104.502 78.9023 106.42C71.6234 108.325 67.3708 115.924 69.575 123.101C71.8124 130.384 79.6447 134.287 86.7744 131.665C87.1887 131.513 87.5865 131.32 88.0041 131.178C89.5123 130.667 90.9077 131.201 91.4878 132.502C92.1043 133.885 91.5905 135.481 90.0028 136.025C87.4241 136.908 84.7492 137.512 82.1141 138.235C82.0743 138.086 82.0346 137.94 81.9915 137.791H81.9981Z" fill="white"/>
<path d="M79.4927 120.905C82.3731 118.024 84.9784 115.416 87.5903 112.812C87.9018 112.5 88.2034 112.168 88.5548 111.909C89.7381 111.04 90.9513 111.053 92.0086 112.062C93.0626 113.07 93.298 114.437 92.297 115.476C88.631 119.285 84.8855 123.025 81.0638 126.675C80.0131 127.68 78.6607 127.319 77.6332 126.323C75.8931 124.634 74.1628 122.935 72.4923 121.18C71.3256 119.952 71.372 118.396 72.4691 117.348C73.5198 116.342 75.0048 116.316 76.1847 117.424C77.3018 118.472 78.3061 119.644 79.496 120.908L79.4927 120.905Z" fill="white"/>
</svg>
