<svg width="149" height="149" viewBox="0 0 149 149" fill="none" xmlns="http://www.w3.org/2000/svg">
<path d="M111.376 133.64H112.692C112.308 132.964 111.667 132.304 111.615 131.6C111.559 130.881 111.909 129.97 112.392 129.406C113.237 128.421 114.791 128.548 115.72 129.474C116.831 130.587 116.67 131.935 115.144 133.593H131.322C131.322 131.337 131.316 129.134 131.322 126.93C131.332 124.959 132.214 123.831 133.75 123.803C135.338 123.772 136.266 124.94 136.273 126.995C136.279 129.155 136.273 131.315 136.273 133.581H143.873C143.69 128.278 143.839 122.96 143.223 117.732C142.715 113.399 140.111 109.95 136.554 107.334C136.18 107.058 135.787 106.81 135.406 106.547C134.003 105.574 133.601 104.201 134.359 102.986C135.174 101.681 136.567 101.455 138.136 102.434C142.294 105.034 145.408 108.586 147.027 113.194C147.904 115.683 148.513 118.386 148.578 121.011C148.777 129.152 148.653 137.3 148.656 145.444C148.656 145.652 148.662 145.857 148.647 146.064C148.523 147.53 147.517 148.525 146.17 148.522C144.823 148.519 143.758 147.521 143.724 146.049C143.665 143.638 143.709 141.226 143.709 138.725H74.4466C74.4187 139.116 74.363 139.556 74.3599 139.996C74.3475 142.007 74.394 144.019 74.3352 146.027C74.2918 147.502 73.2486 148.503 71.9081 148.522C70.5614 148.54 69.5336 147.546 69.4159 146.086C69.3788 145.624 69.4036 145.159 69.4005 144.694C69.3943 138.354 69.4934 132.013 69.3572 125.675C69.1683 116.944 62.1749 109.692 53.4819 108.998C53.0733 108.967 52.6615 108.995 52.2653 108.995C51.0269 111.744 47.7021 113.511 41.526 114.626C42.173 114.97 42.6404 115.2 43.0893 115.46C47.1665 117.8 49.4667 121.311 49.5533 126.013C49.6741 132.558 49.5781 139.107 49.5936 145.652C49.5936 146.907 49.2097 148.057 47.9497 148.293C47.1263 148.444 45.9932 148.153 45.3431 147.632C44.8354 147.226 44.6713 146.163 44.6651 145.392C44.6125 139.258 44.6434 133.122 44.6341 126.989C44.6279 121.857 41.6003 118.854 36.4334 118.85C28.6413 118.844 20.8523 118.844 13.0602 118.85C8.10072 118.857 5.02039 121.906 5.0142 126.825C5.00491 133.063 5.00182 139.299 5.0204 145.537C5.02349 146.771 4.69534 147.778 3.48798 148.311C1.90293 149.015 0.107384 147.949 0.0919046 146.12C0.0423719 139.11 -0.127906 132.09 0.178577 125.092C0.379803 120.49 3.07314 117.174 7.2246 115.094C7.83757 114.787 8.4753 114.354 8.86536 113.808C13.2211 107.703 19.1093 104.415 26.6042 104.002C26.8024 103.993 26.9974 103.943 27.1615 103.916C27.5578 102.729 27.112 101.979 26.2606 101.198C22.8336 98.0582 20.8244 94.1439 20.1155 89.5417C20.004 88.8196 19.6542 88.0727 19.227 87.4683C17.1992 84.6047 15.7999 81.4838 15.2396 78.0159C14.8867 75.834 15.6173 74.5448 17.2271 74.3248C18.7472 74.1202 19.7378 75.1584 20.1526 77.2163C21.6138 84.4745 25.8799 89.4177 33.0961 90.9859C39.2196 92.3185 45.5536 92.5417 51.2406 88.9931C56.4663 85.7328 59.2494 80.9012 59.4382 74.7524C59.528 71.8857 59.5621 68.9198 58.9429 66.1522C57.6798 60.5118 54.1537 56.6037 48.4729 55.0603C42.8076 53.5231 37.876 55.0758 33.7958 59.2566C32.7803 60.2948 31.7216 60.7628 30.3471 60.1399C25.1709 57.7907 20.1867 61.8258 19.8771 67.0572C19.8647 67.2617 19.8771 67.4725 19.8461 67.6739C19.6573 69.0562 18.6543 69.9735 17.3602 69.958C16.0105 69.9425 15.0105 68.9198 14.9177 67.4663C14.5678 61.8196 19.0815 55.9281 24.7375 54.8341C26.1771 54.5552 27.7373 54.487 29.1707 54.738C30.6071 54.986 31.669 54.8434 32.6627 53.3279C31.1272 51.8434 29.3007 50.4519 27.9509 48.6915C25.3629 45.3104 22.1897 44.0366 17.9577 44.5356C15.3789 44.8393 12.6732 44.7091 10.1006 44.3C4.38268 43.3858 0.147633 38.3775 0.0764294 32.6131C-0.00715694 25.7577 -0.0195401 18.8993 0.0764294 12.047C0.169303 5.59454 5.50024 0.30116 11.9426 0.0904171C13.6948 0.0346321 15.4501 0.0408304 17.2054 0.0811196C18.7905 0.11831 19.8338 1.12554 19.843 2.52326C19.8523 3.92409 18.8152 4.95301 17.2395 5.0026C15.6916 5.04908 14.1437 5.0026 12.5958 5.02119C8.24932 5.07388 5.03279 8.21643 5.00802 12.5243C4.97087 19.0697 4.97087 25.6182 5.00802 32.1637C5.03279 36.4064 8.21835 39.5955 12.4534 39.6451C16.3231 39.6916 20.196 39.5738 24.0595 39.7164C25.078 39.7535 26.2885 40.2432 27.0315 40.9343C29.5638 43.2773 31.9259 45.8031 34.7121 48.6265C34.7121 46.4725 34.7121 44.7649 34.7121 43.0542C34.7152 40.4354 35.4954 39.6606 38.1268 39.6606C43.4423 39.6606 48.7547 39.673 54.0701 39.6606C58.8067 39.6482 61.9365 36.5366 61.952 31.8197C61.9706 25.4788 61.9737 19.1379 61.952 12.797C61.9365 8.16684 58.7943 5.03049 54.1661 5.02429C45.6527 5.00879 37.1392 5.02119 28.6258 5.02119C28.1088 5.02119 27.5887 5.05218 27.0779 4.9933C25.7281 4.83524 24.753 3.77223 24.8242 2.49537C24.9016 1.12864 25.6879 0.335251 27.0222 0.0997146C27.372 0.0377313 27.7435 0.0718221 28.1026 0.0718221C36.6687 0.0718221 45.2316 0.0625246 53.7977 0.0718221C61.6517 0.0811196 66.8898 5.31561 66.9022 13.1596C66.9115 19.2929 66.9115 25.4292 66.9022 31.5625C66.8898 39.3135 61.63 44.5913 53.906 44.6068C49.2221 44.6161 44.5351 44.6068 39.7552 44.6068V49.6802C42.8479 49.801 45.9808 49.5097 48.928 50.1203C57.556 51.9054 63.9271 59.6254 64.3605 68.5324C64.602 73.4725 64.9363 78.5396 62.5247 83.0799C60.6177 86.6656 59.0048 90.2948 57.881 94.2059C57.0761 97.0076 55.1536 99.2421 53.0671 101.3C52.4603 101.901 52.1693 102.818 51.7792 103.51C54.8379 104.253 57.5993 104.687 60.175 105.629C62.1687 106.358 63.924 107.737 65.8 108.797C66.2149 109.029 66.7071 109.286 67.1529 109.274C69.3602 109.212 71.5644 109.008 73.7717 108.958C76.5053 108.899 79.242 108.986 81.9725 108.911C82.5359 108.896 83.2851 108.586 83.6163 108.158C87.0991 103.655 91.5725 100.801 97.1357 99.5148C98.699 99.1522 100.132 98.2224 101.628 97.553C101.64 97.3949 101.649 97.2369 101.662 97.0819C101.058 96.9146 100.461 96.6233 99.8507 96.5954C97.0738 96.4683 94.2349 96.7441 91.523 96.2731C83.347 94.8567 79.1336 85.6739 83.4275 78.5923C85.7308 74.7896 86.7988 70.8444 86.7586 66.4343C86.7121 61.3764 88.2012 56.6905 90.9193 52.4105C91.9254 50.8238 93.2381 50.3651 94.5321 51.1244C95.8819 51.9178 96.1233 53.362 95.1017 55.02C93.2845 57.9642 92.1514 61.1347 91.8047 64.5717C91.718 65.4239 91.7923 66.2886 91.7923 67.2091C92.5446 67.0758 93.2473 66.9487 93.947 66.8248C95.1574 62.9074 96.0552 62.2442 100.29 61.8847C104.309 61.5438 107.671 59.8268 110.5 56.9539C113.816 53.5882 114.113 53.5851 117.382 56.9105C120.537 60.1182 124.298 61.8258 128.809 61.9436C131.548 62.0149 133.053 63.4901 133.938 66.8093C134.626 66.9363 135.325 67.0634 136.421 67.2649C136.031 65.1016 135.827 63.0686 135.285 61.1285C131.223 46.5996 115.261 40.2432 102.29 47.9446C102.024 48.1027 101.761 48.267 101.482 48.3971C100.222 48.9798 98.9095 48.6265 98.2285 47.5325C97.535 46.4199 97.7424 45.0407 98.9219 44.2628C100.377 43.3021 101.94 42.5056 103.621 41.5418C101.807 39.3662 99.9962 37.1471 98.1108 34.9932C97.8786 34.7267 97.2626 34.7453 96.8199 34.7267C94.2999 34.6182 91.7366 34.8011 89.2662 34.3982C83.6442 33.4746 79.4494 28.4819 79.3194 22.7949C79.2358 19.1875 79.2296 15.577 79.3194 11.9695C79.4804 5.60074 84.7494 0.195789 91.1174 0.121409C101.95 -0.00255792 112.785 0.0687229 123.62 0.0842187C125.292 0.0842187 126.372 1.15343 126.332 2.61004C126.295 4.05425 125.214 5.01499 123.493 5.01499C113.228 5.02739 102.959 5.02119 92.6932 5.02429C87.1393 5.02429 84.2448 7.9437 84.2448 13.5346C84.2448 16.4199 84.22 19.3083 84.251 22.1937C84.3005 26.5387 87.4427 29.6937 91.7768 29.7587C93.9934 29.7928 96.2162 29.8114 98.4328 29.7494C99.7454 29.7122 100.677 30.2112 101.488 31.206C103.863 34.1162 106.29 36.986 109.008 40.2432C109.008 38.4674 109.033 37.1162 109.005 35.7618C108.884 29.7308 109.027 29.6937 115.082 29.7494C121.893 29.8114 128.703 29.768 135.514 29.7649C140.653 29.7649 143.675 26.7339 143.681 21.5893C143.684 18.5986 143.706 15.6079 143.675 12.6203C143.631 8.20093 140.464 5.07698 136.022 5.02119C135.195 5.01189 134.366 5.07078 133.548 4.9871C132.211 4.85074 131.236 3.74123 131.322 2.46748C131.415 1.10384 132.196 0.239177 133.545 0.102814C144.071 -0.975696 148.965 6.63896 148.662 13.1875C148.52 16.2743 148.674 19.3734 148.625 22.4664C148.513 29.2505 143.173 34.6244 136.39 34.6957C129.53 34.767 122.667 34.7143 115.803 34.7174C115.246 34.7174 114.692 34.7174 114.051 34.7174V39.6327C118.726 39.7226 123.119 40.7577 127.078 43.1316C136.04 48.5056 140.743 56.5262 141.142 66.9115C141.303 71.1016 142.238 74.864 144.418 78.4683C149.232 86.4332 143.563 96.4187 134.251 96.5737C132.189 96.6078 130.121 96.5489 128.06 96.6016C127.453 96.6171 126.855 96.8712 126.252 97.0168C126.245 97.1563 126.239 97.2958 126.233 97.4352C127.363 98.0086 128.499 98.5664 129.617 99.1615C131.226 100.02 131.651 101.052 130.991 102.738C129.453 106.668 127.892 110.588 126.295 114.493C125.54 116.34 124.242 116.814 122.431 115.937C119.927 114.725 117.472 113.411 114.946 112.252C114.401 112.001 113.543 111.998 112.998 112.249C110.655 113.315 108.376 114.521 106.07 115.668C103.953 116.721 103.355 116.635 101.634 115.008V123.927C107.293 125.783 109.633 128.433 111.358 133.646L111.376 133.64ZM106.426 65.8795C108.017 65.8237 109.55 66.3506 110.754 67.6089C111.689 68.5882 111.816 69.7442 110.968 70.832C110.132 71.9043 108.965 72.1987 107.816 71.4425C106.909 70.8475 106.253 70.7855 105.327 71.4239C104.197 72.2018 103.018 71.9229 102.166 70.8599C101.306 69.7876 101.417 68.6502 102.324 67.6368C102.615 67.3113 103.036 67.1037 103.398 66.8403C103.324 66.7442 103.25 66.645 103.176 66.5489C101.866 66.6884 100.557 66.8248 99.1665 66.9735C99.1665 72.332 98.9498 77.6378 99.2191 82.9187C99.5937 90.2638 105.878 96.2142 113.184 96.5458C120.722 96.8898 127.57 91.6925 128.481 84.3289C129.066 79.6057 128.756 74.771 128.84 69.9859C128.858 68.9725 128.84 67.9591 128.84 66.9549C127.354 66.8124 126.069 66.6884 124.484 66.5365C124.871 66.9053 125.013 67.0386 125.156 67.1719C126.481 68.4146 126.719 69.6729 125.846 70.8289C125.004 71.9446 123.849 71.9973 122.258 71.2659C121.744 71.0303 120.908 71.1419 120.36 71.396C118.976 72.0407 117.704 71.8795 116.924 70.7576C116.144 69.6388 116.271 68.176 117.534 67.3609C118.769 66.5613 120.221 66.1058 121.209 65.6626C119.023 64.2277 116.432 62.5231 113.992 60.9209C111.488 62.5634 108.924 64.2401 106.426 65.8764V65.8795ZM70.4468 113.895C75.0193 120.087 74.3537 126.949 74.3568 133.609H96.6218C96.6218 127.72 96.662 121.912 96.5908 116.105C96.5722 114.682 95.4268 113.907 93.7489 113.898C89.5726 113.883 85.3964 113.892 81.2202 113.892C77.7777 113.892 74.3382 113.892 70.4468 113.892V113.895ZM27.1336 94.3361C29.2636 98.7741 34.9877 101.811 40.6437 101.498C45.4917 101.229 50.9124 97.835 52.1105 94.4012C43.8416 97.5065 35.5418 97.5158 27.1336 94.3361ZM96.4051 91.5623C95.7178 89.1481 95.0677 86.7989 94.368 84.4621C94.2813 84.1708 93.9748 83.8919 93.7024 83.7214C91.879 82.5809 90.037 81.4714 88.1795 80.3371C86.4738 82.8413 86.2075 85.4694 87.644 87.989C89.6377 91.4879 92.9099 91.9063 96.4051 91.5623ZM139.814 80.3092C137.944 81.459 136.133 82.5592 134.338 83.6842C134.056 83.8609 133.703 84.1026 133.616 84.3846C132.901 86.7648 132.239 89.1605 131.561 91.5592C134.985 91.9063 138.282 91.5406 140.276 88.0572C141.885 85.2431 141.396 82.5406 139.814 80.3123V80.3092ZM15.3696 113.799H33.5791C31.1055 112.41 28.2017 111.924 27.0965 108.939C22.6881 109.097 18.8369 110.56 15.3665 113.799H15.3696ZM46.9312 105.112C42.0956 106.953 37.2228 106.894 32.3593 105.109C32.1457 107.805 32.1426 107.817 34.4088 108.713C38.0277 110.145 41.6467 110.086 45.2347 108.608C47.2841 107.765 47.3461 107.604 46.9312 105.112ZM89.7677 108.8C92.0276 108.946 94.1297 108.713 95.9716 109.302C97.7889 109.881 99.343 111.289 100.696 112.135C99.9095 110.173 98.9498 107.697 97.8972 105.258C97.7703 104.963 97.0737 104.653 96.7611 104.746C94.1792 105.509 91.8542 106.748 89.7708 108.8H89.7677ZM102.333 102.874C103.358 105.419 104.364 107.914 105.395 110.473C106.915 109.705 108.277 109.017 109.791 108.251C107.897 106.361 106.089 104.622 104.364 102.809C103.671 102.081 103.123 102.056 102.337 102.877L102.333 102.874ZM118.119 108.223C119.719 109.029 121.085 109.717 122.58 110.47C123.623 107.864 124.642 105.323 125.657 102.784C125.561 102.617 125.462 102.447 125.366 102.279C124.812 102.431 124.106 102.419 123.732 102.763C121.883 104.461 120.122 106.255 118.119 108.223ZM117.726 101.362H110.206C111.441 102.639 112.708 103.95 113.937 105.223C115.246 103.891 116.522 102.589 117.726 101.362ZM106.11 133.64C105.151 131.442 103.816 130.051 101.724 129.251V133.64H106.11ZM133.935 71.8671V78.4838C135.629 77.2318 136.458 75.7535 136.195 73.863C136.031 72.6915 135.208 72.0128 133.935 71.8671ZM94.1049 71.833C92.6932 72.05 91.9255 72.7659 91.7242 74.021C91.4642 75.645 92.4703 77.4456 94.1049 78.301V71.833Z" fill="white"/>
<path d="M15.5037 23.4362C12.2624 19.7296 12.6401 16.1097 16.3829 13.2771C16.7699 12.9858 16.9928 12.2823 17.0238 11.7554C17.1445 9.80602 18.0206 8.70272 19.5654 8.74301C21.0514 8.7833 21.9956 9.86801 21.9832 11.7213C21.9771 12.586 22.3362 13.0199 22.9553 13.5901C23.9057 14.4672 24.8314 15.5364 25.3267 16.711C26.2616 18.9238 25.6796 20.1046 23.5033 21.2512C25.2679 23.055 26.2028 25.1407 25.4381 27.6665C25.2059 28.4351 24.8623 29.2595 24.3236 29.8297C23.0946 31.1283 21.6706 32.1386 21.717 34.308C21.7418 35.4299 20.4818 36.0436 19.2713 35.9103C18.0082 35.7708 17.0857 35.0053 17.1105 33.7068C17.1352 32.3432 16.7018 31.5188 15.5688 30.7037C14.7174 30.0932 14.089 28.9868 13.6896 27.9733C12.7887 25.7047 13.3057 24.5828 15.5006 23.4362H15.5037ZM21.0483 19.9806C20.6149 18.8897 21.0266 17.4393 19.4261 17.4672C19.0484 17.4734 18.3457 18.2451 18.3704 18.6324C18.4602 20.244 19.8286 19.7574 21.0483 19.9806ZM18.0237 24.7626C18.3952 25.8039 17.9742 27.276 19.6707 27.1954C20.0422 27.1769 20.7264 26.3401 20.6706 25.9682C20.4446 24.462 19.1692 24.8494 18.0237 24.7626Z" fill="white"/>
<path d="M43.3999 24.8157C39.8923 24.8157 36.3848 24.825 32.8773 24.8157C30.9269 24.8095 29.7908 23.8828 29.7908 22.3425C29.7908 20.8022 30.9269 19.8694 32.8742 19.8694C39.8892 19.8632 46.9074 19.8632 53.9224 19.8694C55.879 19.8694 57.009 20.7929 57.009 22.3363C57.009 23.8766 55.8728 24.8033 53.9255 24.8095C50.418 24.8219 46.9105 24.8126 43.403 24.8126L43.3999 24.8157Z" fill="white"/>
<path d="M102.8 24.8159C100.116 24.8159 97.435 24.8283 94.7509 24.8159C92.8191 24.8066 91.6768 23.849 91.7016 22.3056C91.7263 20.7715 92.8594 19.8727 94.8221 19.8696C100.187 19.8634 105.552 19.8603 110.917 19.8696C112.849 19.8727 113.991 20.8335 113.967 22.3738C113.942 23.9078 112.812 24.8035 110.846 24.8097C108.165 24.819 105.481 24.8097 102.797 24.8128L102.8 24.8159Z" fill="white"/>
<path d="M61.9731 138.648C61.9731 140.966 61.9886 143.288 61.9669 145.606C61.9514 147.419 60.9825 148.531 59.4872 148.525C57.9919 148.519 57.0322 147.409 57.026 145.587C57.0105 140.948 57.0105 136.308 57.026 131.672C57.0322 129.862 58.0074 128.746 59.5057 128.752C61.001 128.759 61.9576 129.868 61.9731 131.687C61.9917 134.006 61.9793 136.327 61.9762 138.645L61.9731 138.648Z" fill="white"/>
<path d="M37.1889 29.7649C38.7895 29.7649 40.3869 29.7308 41.9874 29.7742C43.5724 29.8176 44.6157 30.8217 44.6281 32.2195C44.6405 33.6172 43.5941 34.6771 42.0246 34.6988C38.8266 34.7422 35.6287 34.7391 32.4307 34.6988C30.8395 34.6802 29.8055 33.6637 29.7931 32.2567C29.7807 30.8527 30.8178 29.8238 32.3936 29.7804C33.991 29.7339 35.5915 29.7711 37.1889 29.768V29.7649Z" fill="white"/>
<path d="M35.9142 14.911C34.7285 14.911 33.5397 14.9482 32.3571 14.9017C30.7968 14.8397 29.7597 13.7891 29.7938 12.3852C29.8247 11.0432 30.8309 10.0174 32.3138 9.98331C34.7378 9.93062 37.1618 9.93372 39.5858 9.98331C41.1491 10.0143 42.1832 11.0897 42.1522 12.4936C42.1212 13.8325 41.112 14.8366 39.6322 14.8986C38.397 14.9513 37.1556 14.9079 35.9204 14.911H35.9142Z" fill="white"/>
<path d="M50.8217 14.9134C49.636 14.9134 48.4472 14.9475 47.2615 14.9041C45.6827 14.8484 44.6425 13.8349 44.6487 12.4341C44.6549 11.0302 45.6889 10.0106 47.2739 9.97956C49.6453 9.93617 52.0198 9.93617 54.3912 9.97956C55.9669 10.0075 57.0071 11.0426 57.004 12.4465C57.004 13.8473 55.9607 14.8515 54.3788 14.9041C53.1931 14.9444 52.0074 14.9134 50.8186 14.9103L50.8217 14.9134Z" fill="white"/>
<path d="M97.8287 14.91C96.643 14.91 95.4543 14.9471 94.2717 14.9007C92.7114 14.8387 91.6743 13.7881 91.7083 12.3841C91.7393 11.0422 92.7454 10.0164 94.2283 9.98538C96.6523 9.9327 99.0763 9.9358 101.5 9.98538C103.064 10.0164 104.098 11.0918 104.067 12.4957C104.036 13.8345 103.027 14.8387 101.547 14.9007C100.312 14.9533 99.0701 14.91 97.8349 14.9131L97.8287 14.91Z" fill="white"/>
<path d="M115.121 14.9107C113.936 14.9107 112.747 14.951 111.561 14.9014C110.082 14.8364 109.075 13.8384 109.041 12.4965C109.007 11.0926 110.044 10.0141 111.605 9.98306C114.029 9.93657 116.453 9.93347 118.877 9.98306C120.36 10.0141 121.369 11.043 121.4 12.3818C121.434 13.7826 120.394 14.8364 118.836 14.8983C117.601 14.9479 116.36 14.9076 115.121 14.9076V14.9107Z" fill="white"/>
<path d="M132.499 14.911C131.313 14.911 130.125 14.9513 128.939 14.9017C127.379 14.8366 126.342 13.7798 126.379 12.379C126.413 11.0401 127.422 10.0143 128.905 9.98331C131.329 9.93062 133.753 9.93372 136.177 9.98331C137.734 10.0143 138.774 11.099 138.74 12.4998C138.706 13.8356 137.694 14.8397 136.214 14.9017C134.979 14.9544 133.737 14.911 132.502 14.911H132.499Z" fill="white"/>
<path d="M125.176 24.8096C123.938 24.8096 122.7 24.853 121.464 24.7972C119.984 24.7321 118.978 23.728 118.95 22.386C118.923 20.9852 119.96 19.9098 121.52 19.8788C123.944 19.8323 126.368 19.8292 128.792 19.8788C130.275 19.9098 131.278 20.9387 131.306 22.2838C131.337 23.6846 130.293 24.7042 128.733 24.8034C128.631 24.8096 128.526 24.8065 128.424 24.8065C127.34 24.8065 126.257 24.8065 125.173 24.8065V24.8003L125.176 24.8096Z" fill="white"/>
<path d="M123.811 128.734C122.985 128.734 122.158 128.784 121.335 128.722C119.889 128.613 118.905 127.535 118.945 126.19C118.985 124.906 119.945 123.874 121.332 123.819C123.031 123.75 124.737 123.747 126.437 123.819C127.879 123.881 128.87 124.999 128.827 126.341C128.786 127.624 127.82 128.591 126.44 128.728C126.338 128.737 126.232 128.737 126.13 128.737C125.356 128.737 124.582 128.737 123.808 128.737C123.808 128.737 123.808 128.731 123.808 128.728L123.811 128.734Z" fill="white"/>
<path d="M116.448 121.259C116.482 122.592 115.377 123.751 114.04 123.782C112.699 123.816 111.554 122.719 111.517 121.374C111.483 120.029 112.572 118.885 113.919 118.854C115.263 118.823 116.411 119.914 116.445 121.256L116.448 121.259Z" fill="white"/>
<path d="M52.0398 29.7743C53.3834 29.7588 54.5134 30.8652 54.5319 32.2103C54.5474 33.5491 53.436 34.6834 52.0925 34.6989C50.752 34.7144 49.6189 33.6049 49.6034 32.263C49.588 30.9179 50.6901 29.7929 52.0398 29.7743Z" fill="white"/>
<path d="M114.178 93.6816C116.304 93.694 118.954 92.6371 120.509 91.0597C121.573 89.9812 121.7 88.664 120.843 87.6041C119.948 86.4977 118.567 86.3892 117.28 87.3252C114.75 89.163 113.184 89.1754 110.751 87.3748C109.444 86.4078 108.101 86.4698 107.172 87.539C106.215 88.6423 106.379 90.0679 107.627 91.2084C109.413 92.8386 111.546 93.5979 114.178 93.6816ZM116.119 79.3014C116.335 79.1837 116.549 79.0628 116.766 78.945C116.094 78.2694 115.527 77.3985 114.722 76.9678C113.713 76.4254 112.645 76.8686 112.029 77.8169C111.388 78.8025 110.676 79.8655 110.491 80.9781C110.348 81.8334 110.782 82.946 111.305 83.7084C112.023 84.7529 113.017 85.7353 114.524 85.3603C115.695 85.069 116.428 84.2601 116.425 83.039C116.419 81.7932 116.227 80.5473 116.119 79.3014ZM121.474 74.3149C120.128 74.2777 118.985 75.3686 118.951 76.7136C118.917 78.0556 120.01 79.2054 121.354 79.2394C122.688 79.2735 123.846 78.1733 123.88 76.8345C123.914 75.4956 122.818 74.349 121.474 74.3118V74.3149ZM106.512 79.2394C107.85 79.2642 108.995 78.1578 109.02 76.819C109.045 75.4771 107.943 74.3397 106.599 74.3149C105.252 74.2901 104.119 75.3872 104.095 76.7322C104.07 78.0742 105.169 79.2147 106.516 79.2394H106.512Z" fill="white"/>
<path d="M114.178 93.6819C111.547 93.5982 109.414 92.8389 107.627 91.2087C106.38 90.0713 106.216 88.6457 107.172 87.5393C108.098 86.467 109.441 86.405 110.751 87.3751C113.184 89.1757 114.751 89.1633 117.28 87.3255C118.571 86.3895 119.949 86.4949 120.843 87.6044C121.701 88.6643 121.574 89.9815 120.509 91.06C118.955 92.6374 116.305 93.6943 114.178 93.6819Z" fill="white"/>
<path d="M116.116 79.3015C116.227 80.5474 116.419 81.7932 116.422 83.0391C116.429 84.2571 115.692 85.0691 114.522 85.3604C113.011 85.7354 112.017 84.7529 111.302 83.7085C110.779 82.9461 110.345 81.8335 110.488 80.9781C110.674 79.8655 111.386 78.8025 112.026 77.817C112.643 76.8687 113.711 76.4224 114.72 76.9678C115.525 77.4017 116.091 78.2695 116.763 78.9451C116.546 79.0629 116.333 79.1837 116.116 79.3015Z" fill="white"/>
<path d="M121.472 74.3149C122.818 74.3521 123.911 75.4988 123.877 76.8377C123.843 78.1734 122.685 79.2767 121.351 79.2426C120.007 79.2085 118.914 78.0587 118.949 76.7168C118.983 75.3687 120.125 74.2808 121.472 74.318V74.3149Z" fill="white"/>
<path d="M106.509 79.2399C105.166 79.2151 104.064 78.0746 104.088 76.7327C104.113 75.3846 105.249 74.2906 106.593 74.3154C107.936 74.3401 109.038 75.4775 109.014 76.8195C108.989 78.1583 107.844 79.2647 106.506 79.2399H106.509Z" fill="white"/>
<path d="M84.2511 123.731C84.2852 125.067 83.1893 126.22 81.8488 126.257C80.5083 126.294 79.3598 125.2 79.3257 123.855C79.2917 122.513 80.3783 121.367 81.725 121.333C83.0685 121.299 84.2171 122.389 84.2511 123.731Z" fill="white"/>
</svg>
