<svg width="149" height="100" viewBox="0 0 149 100" fill="none" xmlns="http://www.w3.org/2000/svg">
<path d="M111.246 69.5115C110.525 74.4139 107.776 77.1934 102.886 77.8906C102.739 83.3346 99.9909 86.5281 94.5124 87.4246C94.4533 88.156 94.4409 88.9248 94.3196 89.675C93.4677 94.9384 87.7623 98.2004 82.7565 96.3017C81.0402 95.6512 80.3033 94.4155 80.7821 92.9837C81.2516 91.5737 82.6197 91.0445 84.3546 91.6017C86.5 92.2896 88.3624 91.5923 89.205 89.7839C90.0476 87.9786 89.4227 86.0021 87.5074 84.8753C82.6041 81.9962 77.6667 79.1793 72.7448 76.3374C72.3873 76.132 72.0203 75.939 71.6721 75.7149C70.3165 74.8372 69.8999 73.5081 70.5777 72.2662C71.271 70.9962 72.7573 70.6196 74.2155 71.4506C78.1673 73.7011 82.0942 75.9951 86.0305 78.2735C87.9986 79.4127 89.9543 80.5706 91.9349 81.6849C94.0678 82.8864 96.2629 82.3977 97.3418 80.527C98.4332 78.6377 97.7864 76.4931 95.6629 75.2512C90.0383 71.9705 84.3919 68.7271 78.7518 65.4713C78.5279 65.3406 78.2979 65.2223 78.0802 65.0854C76.5474 64.1391 76.0748 62.7291 76.8614 61.4436C77.6201 60.1986 79.0037 59.9091 80.5116 60.7651C83.4343 62.4179 86.3352 64.1111 89.2454 65.7919C92.9609 67.9365 96.6733 70.0842 100.386 72.235C101.81 73.0599 103.243 73.1408 104.617 72.1728C105.87 71.2888 106.371 70.0251 106.141 68.5092C105.917 67.0401 104.897 66.2059 103.685 65.5087C97.7709 62.1097 91.8665 58.6921 85.959 55.2807C85.5548 55.0472 85.1506 54.82 84.7495 54.5834C82.8404 53.4691 82.2466 52.1338 83.0332 50.7331C83.8105 49.3449 85.3123 49.1706 87.2213 50.2725C94.786 54.6363 102.348 59.0096 109.909 63.3765C110.357 63.6349 110.792 63.9181 111.259 64.1391C113.165 65.0511 115.242 64.4348 116.237 62.6855C117.2 60.9861 116.774 58.8975 115.024 57.777C112.764 56.3265 110.401 55.0379 108.081 53.6839C105.874 52.3953 105.239 51.1502 106.057 49.6811C106.887 48.187 108.463 47.8726 110.46 49.3854C114.399 52.3735 118.578 53.2108 123.335 51.8848C125.204 51.365 127.2 51.309 129.392 51.0102C126.78 40.5456 124.202 30.2024 121.572 19.6693C120.052 20.0833 118.628 20.4599 117.207 20.8614C114.324 21.6769 111.445 22.5049 108.566 23.3297C105.982 24.0705 104.683 23.6628 104.216 21.9664C103.756 20.2794 104.624 19.3114 107.276 18.5488C111.196 17.4251 115.12 16.2983 119.041 15.1685C119.43 15.0564 119.809 14.9101 120.3 14.742C119.974 13.3849 119.654 12.0932 119.355 10.7984C118.96 9.08021 119.548 7.94411 121.221 7.43987C129.326 4.99024 137.438 2.56241 145.556 0.150137C147.155 -0.326092 148.482 0.361795 148.899 1.77181C149.294 3.11957 148.516 4.41441 146.884 4.91243C140.069 6.99165 133.244 9.03663 126.422 11.0941C125.888 11.2559 125.356 11.4271 124.678 11.6388C128.428 26.6415 132.159 41.5665 135.93 56.6595C139.108 56.037 142.186 55.4425 145.261 54.8355C147.251 54.4434 148.569 55.1188 148.874 56.7031C149.157 58.1723 148.215 59.2617 146.24 59.6694C142.497 60.4445 138.75 61.1977 135.004 61.9448C133.185 62.3089 132.109 61.6553 131.621 59.8873C131.267 58.5987 130.956 57.2945 130.586 55.8471C127.389 56.2954 124.243 56.7405 121.078 57.1856C123.571 64.936 117.717 70.3706 111.246 69.5177V69.5115Z" fill="white"/>
<path d="M13.0569 61.6338C14.0021 57.8893 14.9131 54.2912 15.8148 50.693C16.5455 47.7858 17.2637 44.8755 17.9975 41.9684C18.4825 40.0479 19.6423 39.1421 21.1129 39.5156C22.6831 39.914 23.2769 41.2338 22.7794 43.2414C21.6881 47.652 20.5875 52.0625 19.4495 56.6381C21.2093 57.3384 22.9194 58.017 24.6295 58.6986C25.7799 59.1562 26.9551 59.567 28.0745 60.0931C30.1638 61.0767 31.9019 61.4937 34.2431 59.9779C37.7503 57.7088 42.5137 59.2091 44.9295 62.6516C45.2218 63.0687 45.4861 63.5076 45.8219 64.0336C48.0791 63.0438 50.38 62.6423 52.7305 63.5761C53.3493 63.822 53.996 64.0834 54.509 64.4912C55.5289 65.3036 55.7527 66.4179 55.1247 67.5447C54.509 68.6465 53.5141 69.1103 52.2331 68.7306C48.5269 67.6349 47.7993 67.9244 45.881 71.2455C44.174 74.1994 42.4515 77.147 40.76 80.1103C39.42 82.4509 39.8677 84.6391 41.8732 85.7596C43.8195 86.8459 45.8654 86.1363 47.1868 83.8765C48.6761 81.3335 50.125 78.7656 51.605 76.2195C53.6788 72.6524 57.1736 70.8845 60.7803 71.5599C64.8036 72.3101 67.3377 75.0492 68.0248 79.3819C68.0403 79.4753 68.1025 79.5624 68.1678 79.7056C68.9513 79.8052 69.7722 79.855 70.5712 80.0138C76.1336 81.1125 79.2304 86.9798 76.7399 92.0627C75.7605 94.061 74.4764 96.1153 72.8099 97.5222C68.9731 100.756 63.2646 99.645 60.4663 95.4647C60.2393 95.1255 60.031 94.7706 59.7325 94.2975C57.5467 95.2531 55.3143 95.6453 52.9855 94.8485C50.6598 94.0547 49.0026 92.514 47.762 90.2449C44.9824 91.4806 42.181 91.658 39.4604 90.1111C36.743 88.5641 35.294 86.183 34.98 82.9521C30.708 82.8276 27.4433 81.0938 25.9166 76.8482C24.3682 72.5435 26.9551 69.3126 28.9512 65.7642C25.3663 64.3511 21.8902 62.9847 18.2462 61.5467C17.9198 62.8073 17.6648 63.8967 17.3539 64.9705C16.8875 66.5891 15.8241 67.2303 14.1887 66.9066C10.2866 66.1378 6.38143 65.3721 2.48558 64.5846C0.694667 64.2235 -0.234976 63.0594 0.0510722 61.612C0.352666 60.0837 1.6803 59.3772 3.54894 59.7507C6.6364 60.3639 9.72694 60.977 13.0569 61.6369V61.6338ZM30.4437 73.4804C30.4095 75.6966 31.4044 77.1004 32.9404 77.6482C34.467 78.1929 36.1647 77.81 37.0632 76.3907C38.5805 74.0002 39.9921 71.5319 41.2886 69.0138C42.0473 67.5415 41.4938 65.8887 40.2222 64.8398C38.9971 63.8282 37.2187 63.4827 36.0682 64.5223C33.2264 67.0996 31.9423 70.6884 30.4406 73.4804H30.4437ZM63.0625 80.7577C63.0469 78.5135 62.1297 77.2 60.6435 76.6521C59.1169 76.0888 57.5809 76.3347 56.7228 77.6171C55.0376 80.1383 53.5421 82.7995 52.1647 85.5044C51.4651 86.8771 52.1336 88.5765 53.3679 89.5041C54.6396 90.4597 56.2129 90.8207 57.3944 89.7936C60.3388 87.2319 61.6229 83.5933 63.0625 80.7577ZM67.8756 94.6555C68.7555 94.0983 69.8095 93.6968 70.4749 92.9498C71.277 92.0471 71.8522 90.8954 72.3373 89.7687C73.0462 88.1221 72.3497 86.2794 70.8262 85.3394C69.2436 84.3621 67.2444 84.6173 66.1002 86.1207C65.3291 87.1354 64.6544 88.2746 64.1849 89.4543C63.2459 91.8292 65.1457 94.4034 67.8787 94.6555H67.8756Z" fill="white"/>
<path d="M63.5258 27.9238C61.567 26.8499 59.8911 25.6609 58.0256 24.9979C56.6917 24.5217 55.078 24.5186 53.6385 24.7084C50.4733 25.1224 47.361 25.9784 44.1896 26.3052C39.7247 26.7659 35.5024 25.359 31.2956 24.0672C30.2167 23.7373 29.1378 23.4229 27.8568 23.0401C27.1417 25.8539 26.4608 28.5338 25.783 31.2169C25.6555 31.718 25.5653 32.2285 25.413 32.7234C24.9528 34.2143 23.6687 35.0049 22.3473 34.6408C20.9948 34.2673 20.2424 32.9693 20.6093 31.4659C21.5234 27.6996 22.4872 23.9427 23.4262 20.1827C23.7122 19.0341 23.9921 17.8856 24.3155 16.5627C22.0893 15.8811 19.9408 15.2119 17.7861 14.5613C12.6435 13.0112 7.50081 11.4705 2.35816 9.91732C0.501959 9.35705 -0.337537 8.112 0.135064 6.66464C0.620102 5.17993 1.93218 4.63833 3.81637 5.20171C11.4868 7.48637 19.1541 9.78659 26.8215 12.0806C29.7348 12.9521 30.167 13.724 29.4332 16.737C29.3244 17.179 29.2311 17.621 29.1192 18.1066C36.0776 20.5656 42.9707 22.7817 50.3303 20.3477C55.0967 18.7727 59.4776 19.4263 63.6098 22.2401C64.8441 23.0805 66.2339 24.3349 67.5056 24.282C68.6684 24.2322 69.7473 22.6479 70.904 21.7888C74.691 18.975 78.9009 17.9665 83.4994 19.1338C87.7373 20.2107 91.9969 20.8675 96.3809 20.6496C98.0847 20.5656 99.2165 21.5398 99.2849 22.9809C99.3533 24.3878 98.3086 25.471 96.5986 25.5924C92.2799 25.8943 87.9954 25.5084 83.8508 24.3069C79.4605 23.0338 75.7606 23.8836 72.415 26.9931C66.3023 32.6798 59.5678 37.3892 51.5429 40.0567C49.5219 40.729 49.099 42.581 50.3831 44.2867C52.1772 46.671 55.3983 47.3309 58.1779 45.7932C61.3431 44.0408 64.4834 42.2386 67.5958 40.3991C68.7617 39.7081 69.8562 39.5587 71.1123 40.1158C77.5577 42.9794 83.829 42.7242 89.9884 39.1696C90.691 38.765 91.9876 38.7836 92.7307 39.1603C95.445 40.5423 98.0537 42.1328 100.672 43.6953C102.152 44.5793 102.54 45.98 101.772 47.2437C101.011 48.4981 99.6363 48.7845 98.1065 47.9285C96.2099 46.8702 94.3288 45.7839 92.4757 44.6571C91.7544 44.2183 91.1947 44.1436 90.3677 44.5389C83.9813 47.5799 77.4582 47.8444 70.8014 45.3886C70.1951 45.1645 69.281 45.2734 68.6995 45.5816C65.8266 47.1099 63.0532 48.8311 60.1741 50.347C55.2864 52.9211 49.3571 51.4706 46.2261 47.0383C43.1418 42.6713 44.7865 37.1869 49.8017 35.3784C54.6521 33.6292 59.1729 31.3103 63.5165 27.9206L63.5258 27.9238Z" fill="white"/>
</svg>
